G04*
G04 #@! TF.GenerationSoftware,Altium Limited,Altium Designer,21.6.4 (81)*
G04*
G04 Layer_Color=16711935*
%FSLAX44Y44*%
%MOMM*%
G71*
G04*
G04 #@! TF.SameCoordinates,036B5A74-53F7-47AD-A214-E4BF2A679DD1*
G04*
G04*
G04 #@! TF.FilePolarity,Negative*
G04*
G01*
G75*
G04:AMPARAMS|DCode=17|XSize=3.65mm|YSize=2.65mm|CornerRadius=0.7mm|HoleSize=0mm|Usage=FLASHONLY|Rotation=0.000|XOffset=0mm|YOffset=0mm|HoleType=Round|Shape=RoundedRectangle|*
%AMROUNDEDRECTD17*
21,1,3.6500,1.2500,0,0,0.0*
21,1,2.2500,2.6500,0,0,0.0*
1,1,1.4000,1.1250,-0.6250*
1,1,1.4000,-1.1250,-0.6250*
1,1,1.4000,-1.1250,0.6250*
1,1,1.4000,1.1250,0.6250*
%
%ADD17ROUNDEDRECTD17*%
%ADD38C,1.9500*%
%ADD39C,1.1500*%
%ADD40C,0.9500*%
G36*
X19490Y48960D02*
X19460Y48620D01*
X19420Y48280D01*
X19360Y47950D01*
X19280Y47620D01*
X19180Y47290D01*
X19070Y46970D01*
X18940Y46660D01*
X18790Y46350D01*
X18630Y46050D01*
X18450Y45760D01*
X18260Y45480D01*
X18050Y45210D01*
X17830Y44950D01*
X17600Y44700D01*
X17350Y44470D01*
X17090Y44250D01*
X16820Y44040D01*
X16540Y43850D01*
X16250Y43670D01*
X15950Y43510D01*
X15640Y43360D01*
X15330Y43230D01*
X15010Y43120D01*
X14680Y43020D01*
X14350Y42940D01*
X14020Y42880D01*
X13680Y42840D01*
X13340Y42810D01*
X13000Y42800D01*
X7000D01*
X6660Y42810D01*
X6320Y42840D01*
X5980Y42880D01*
X5650Y42940D01*
X5320Y43020D01*
X4990Y43120D01*
X4670Y43230D01*
X4360Y43360D01*
X4050Y43510D01*
X3750Y43670D01*
X3460Y43850D01*
X3180Y44040D01*
X2910Y44250D01*
X2650Y44470D01*
X2400Y44700D01*
X2170Y44950D01*
X1950Y45210D01*
X1740Y45480D01*
X1550Y45760D01*
X1370Y46050D01*
X1210Y46350D01*
X1060Y46660D01*
X930Y46970D01*
X820Y47290D01*
X720Y47620D01*
X640Y47950D01*
X580Y48280D01*
X540Y48620D01*
X510Y48960D01*
X500Y49300D01*
X510Y49640D01*
X540Y49980D01*
X580Y50320D01*
X640Y50650D01*
X720Y50980D01*
X820Y51310D01*
X930Y51630D01*
X1060Y51940D01*
X1210Y52250D01*
X1370Y52550D01*
X1550Y52840D01*
X1740Y53120D01*
X1950Y53390D01*
X2170Y53650D01*
X2400Y53900D01*
X2650Y54130D01*
X2910Y54350D01*
X3180Y54560D01*
X3460Y54750D01*
X3750Y54930D01*
X4050Y55090D01*
X4360Y55240D01*
X4670Y55370D01*
X4990Y55480D01*
X5320Y55580D01*
X5650Y55660D01*
X5980Y55720D01*
X6320Y55760D01*
X6660Y55790D01*
X7000Y55800D01*
X13000D01*
X13340Y55790D01*
X13680Y55760D01*
X14020Y55720D01*
X14350Y55660D01*
X14680Y55580D01*
X15010Y55480D01*
X15330Y55370D01*
X15640Y55240D01*
X15950Y55090D01*
X16250Y54930D01*
X16540Y54750D01*
X16820Y54560D01*
X17090Y54350D01*
X17350Y54130D01*
X17600Y53900D01*
X17830Y53650D01*
X18050Y53390D01*
X18260Y53120D01*
X18450Y52840D01*
X18630Y52550D01*
X18790Y52250D01*
X18940Y51940D01*
X19070Y51630D01*
X19180Y51310D01*
X19280Y50980D01*
X19360Y50650D01*
X19420Y50320D01*
X19460Y49980D01*
X19490Y49640D01*
X19500Y49300D01*
X19490Y48960D01*
D02*
G37*
G36*
X57490D02*
X57460Y48620D01*
X57420Y48280D01*
X57360Y47950D01*
X57280Y47620D01*
X57180Y47290D01*
X57070Y46970D01*
X56940Y46660D01*
X56790Y46350D01*
X56630Y46050D01*
X56450Y45760D01*
X56260Y45480D01*
X56050Y45210D01*
X55830Y44950D01*
X55600Y44700D01*
X55350Y44470D01*
X55090Y44250D01*
X54820Y44040D01*
X54540Y43850D01*
X54250Y43670D01*
X53950Y43510D01*
X53640Y43360D01*
X53330Y43230D01*
X53010Y43120D01*
X52680Y43020D01*
X52350Y42940D01*
X52020Y42880D01*
X51680Y42840D01*
X51340Y42810D01*
X51000Y42800D01*
X45000D01*
X44660Y42810D01*
X44320Y42840D01*
X43980Y42880D01*
X43650Y42940D01*
X43320Y43020D01*
X42990Y43120D01*
X42670Y43230D01*
X42360Y43360D01*
X42050Y43510D01*
X41750Y43670D01*
X41460Y43850D01*
X41180Y44040D01*
X40910Y44250D01*
X40650Y44470D01*
X40400Y44700D01*
X40170Y44950D01*
X39950Y45210D01*
X39740Y45480D01*
X39550Y45760D01*
X39370Y46050D01*
X39210Y46350D01*
X39060Y46660D01*
X38930Y46970D01*
X38820Y47290D01*
X38720Y47620D01*
X38640Y47950D01*
X38580Y48280D01*
X38540Y48620D01*
X38510Y48960D01*
X38500Y49300D01*
X38510Y49640D01*
X38540Y49980D01*
X38580Y50320D01*
X38640Y50650D01*
X38720Y50980D01*
X38820Y51310D01*
X38930Y51630D01*
X39060Y51940D01*
X39210Y52250D01*
X39370Y52550D01*
X39550Y52840D01*
X39740Y53120D01*
X39950Y53390D01*
X40170Y53650D01*
X40400Y53900D01*
X40650Y54130D01*
X40910Y54350D01*
X41180Y54560D01*
X41460Y54750D01*
X41750Y54930D01*
X42050Y55090D01*
X42360Y55240D01*
X42670Y55370D01*
X42990Y55480D01*
X43320Y55580D01*
X43650Y55660D01*
X43980Y55720D01*
X44320Y55760D01*
X44660Y55790D01*
X45000Y55800D01*
X51000D01*
X51340Y55790D01*
X51680Y55760D01*
X52020Y55720D01*
X52350Y55660D01*
X52680Y55580D01*
X53010Y55480D01*
X53330Y55370D01*
X53640Y55240D01*
X53950Y55090D01*
X54250Y54930D01*
X54540Y54750D01*
X54820Y54560D01*
X55090Y54350D01*
X55350Y54130D01*
X55600Y53900D01*
X55830Y53650D01*
X56050Y53390D01*
X56260Y53120D01*
X56450Y52840D01*
X56630Y52550D01*
X56790Y52250D01*
X56940Y51940D01*
X57070Y51630D01*
X57180Y51310D01*
X57280Y50980D01*
X57360Y50650D01*
X57420Y50320D01*
X57460Y49980D01*
X57490Y49640D01*
X57500Y49300D01*
X57490Y48960D01*
D02*
G37*
G36*
X19490Y135360D02*
X19460Y135020D01*
X19420Y134680D01*
X19360Y134350D01*
X19280Y134020D01*
X19180Y133690D01*
X19070Y133370D01*
X18940Y133060D01*
X18790Y132750D01*
X18630Y132450D01*
X18450Y132160D01*
X18260Y131880D01*
X18050Y131610D01*
X17830Y131350D01*
X17600Y131100D01*
X17350Y130870D01*
X17090Y130650D01*
X16820Y130440D01*
X16540Y130250D01*
X16250Y130070D01*
X15950Y129910D01*
X15640Y129760D01*
X15330Y129630D01*
X15010Y129520D01*
X14680Y129420D01*
X14350Y129340D01*
X14020Y129280D01*
X13680Y129240D01*
X13340Y129210D01*
X13000Y129200D01*
X7000D01*
X6660Y129210D01*
X6320Y129240D01*
X5980Y129280D01*
X5650Y129340D01*
X5320Y129420D01*
X4990Y129520D01*
X4670Y129630D01*
X4360Y129760D01*
X4050Y129910D01*
X3750Y130070D01*
X3460Y130250D01*
X3180Y130440D01*
X2910Y130650D01*
X2650Y130870D01*
X2400Y131100D01*
X2170Y131350D01*
X1950Y131610D01*
X1740Y131880D01*
X1550Y132160D01*
X1370Y132450D01*
X1210Y132750D01*
X1060Y133060D01*
X930Y133370D01*
X820Y133690D01*
X720Y134020D01*
X640Y134350D01*
X580Y134680D01*
X540Y135020D01*
X510Y135360D01*
X500Y135700D01*
X510Y136040D01*
X540Y136380D01*
X580Y136720D01*
X640Y137050D01*
X720Y137380D01*
X820Y137710D01*
X930Y138030D01*
X1060Y138340D01*
X1210Y138650D01*
X1370Y138950D01*
X1550Y139240D01*
X1740Y139520D01*
X1950Y139790D01*
X2170Y140050D01*
X2400Y140300D01*
X2650Y140530D01*
X2910Y140750D01*
X3180Y140960D01*
X3460Y141150D01*
X3750Y141330D01*
X4050Y141490D01*
X4360Y141640D01*
X4670Y141770D01*
X4990Y141880D01*
X5320Y141980D01*
X5650Y142060D01*
X5980Y142120D01*
X6320Y142160D01*
X6660Y142190D01*
X7000Y142200D01*
X13000D01*
X13340Y142190D01*
X13680Y142160D01*
X14020Y142120D01*
X14350Y142060D01*
X14680Y141980D01*
X15010Y141880D01*
X15330Y141770D01*
X15640Y141640D01*
X15950Y141490D01*
X16250Y141330D01*
X16540Y141150D01*
X16820Y140960D01*
X17090Y140750D01*
X17350Y140530D01*
X17600Y140300D01*
X17830Y140050D01*
X18050Y139790D01*
X18260Y139520D01*
X18450Y139240D01*
X18630Y138950D01*
X18790Y138650D01*
X18940Y138340D01*
X19070Y138030D01*
X19180Y137710D01*
X19280Y137380D01*
X19360Y137050D01*
X19420Y136720D01*
X19460Y136380D01*
X19490Y136040D01*
X19500Y135700D01*
X19490Y135360D01*
D02*
G37*
G36*
X57490D02*
X57460Y135020D01*
X57420Y134680D01*
X57360Y134350D01*
X57280Y134020D01*
X57180Y133690D01*
X57070Y133370D01*
X56940Y133060D01*
X56790Y132750D01*
X56630Y132450D01*
X56450Y132160D01*
X56260Y131880D01*
X56050Y131610D01*
X55830Y131350D01*
X55600Y131100D01*
X55350Y130870D01*
X55090Y130650D01*
X54820Y130440D01*
X54540Y130250D01*
X54250Y130070D01*
X53950Y129910D01*
X53640Y129760D01*
X53330Y129630D01*
X53010Y129520D01*
X52680Y129420D01*
X52350Y129340D01*
X52020Y129280D01*
X51680Y129240D01*
X51340Y129210D01*
X51000Y129200D01*
X45000D01*
X44660Y129210D01*
X44320Y129240D01*
X43980Y129280D01*
X43650Y129340D01*
X43320Y129420D01*
X42990Y129520D01*
X42670Y129630D01*
X42360Y129760D01*
X42050Y129910D01*
X41750Y130070D01*
X41460Y130250D01*
X41180Y130440D01*
X40910Y130650D01*
X40650Y130870D01*
X40400Y131100D01*
X40170Y131350D01*
X39950Y131610D01*
X39740Y131880D01*
X39550Y132160D01*
X39370Y132450D01*
X39210Y132750D01*
X39060Y133060D01*
X38930Y133370D01*
X38820Y133690D01*
X38720Y134020D01*
X38640Y134350D01*
X38580Y134680D01*
X38540Y135020D01*
X38510Y135360D01*
X38500Y135700D01*
X38510Y136040D01*
X38540Y136380D01*
X38580Y136720D01*
X38640Y137050D01*
X38720Y137380D01*
X38820Y137710D01*
X38930Y138030D01*
X39060Y138340D01*
X39210Y138650D01*
X39370Y138950D01*
X39550Y139240D01*
X39740Y139520D01*
X39950Y139790D01*
X40170Y140050D01*
X40400Y140300D01*
X40650Y140530D01*
X40910Y140750D01*
X41180Y140960D01*
X41460Y141150D01*
X41750Y141330D01*
X42050Y141490D01*
X42360Y141640D01*
X42670Y141770D01*
X42990Y141880D01*
X43320Y141980D01*
X43650Y142060D01*
X43980Y142120D01*
X44320Y142160D01*
X44660Y142190D01*
X45000Y142200D01*
X51000D01*
X51340Y142190D01*
X51680Y142160D01*
X52020Y142120D01*
X52350Y142060D01*
X52680Y141980D01*
X53010Y141880D01*
X53330Y141770D01*
X53640Y141640D01*
X53950Y141490D01*
X54250Y141330D01*
X54540Y141150D01*
X54820Y140960D01*
X55090Y140750D01*
X55350Y140530D01*
X55600Y140300D01*
X55830Y140050D01*
X56050Y139790D01*
X56260Y139520D01*
X56450Y139240D01*
X56630Y138950D01*
X56790Y138650D01*
X56940Y138340D01*
X57070Y138030D01*
X57180Y137710D01*
X57280Y137380D01*
X57360Y137050D01*
X57420Y136720D01*
X57460Y136380D01*
X57490Y136040D01*
X57500Y135700D01*
X57490Y135360D01*
D02*
G37*
D17*
X579000Y8000D02*
D03*
Y177000D02*
D03*
D38*
X515000Y35000D02*
D03*
Y150000D02*
D03*
D39*
X583000Y5750D02*
D03*
Y179250D02*
D03*
D40*
X136000Y80300D02*
D03*
X148700D02*
D03*
X136000Y93000D02*
D03*
X148700D02*
D03*
X136000Y105700D02*
D03*
X148700D02*
D03*
X142350Y118400D02*
D03*
X152510Y67600D02*
D03*
X132190D02*
D03*
M02*
