G04*
G04 #@! TF.GenerationSoftware,Altium Limited,Altium Designer,21.6.4 (81)*
G04*
G04 Layer_Color=32896*
%FSLAX44Y44*%
%MOMM*%
G71*
G04*
G04 #@! TF.SameCoordinates,036B5A74-53F7-47AD-A214-E4BF2A679DD1*
G04*
G04*
G04 #@! TF.FilePolarity,Positive*
G04*
G01*
G75*
%ADD10C,0.2000*%
G36*
X286493Y26408D02*
X286975Y26371D01*
X287419Y26260D01*
X287826Y26149D01*
X288123Y26075D01*
X288382Y25964D01*
X288530Y25926D01*
X288567Y25889D01*
X288974Y25667D01*
X289382Y25408D01*
X289715Y25149D01*
X290011Y24890D01*
X290234Y24667D01*
X290382Y24482D01*
X290493Y24334D01*
X290530Y24297D01*
X290789Y23890D01*
X291048Y23445D01*
X291234Y23001D01*
X291419Y22631D01*
X291530Y22260D01*
X291641Y22001D01*
X291715Y21816D01*
Y21742D01*
X291863Y21186D01*
X291974Y20594D01*
X292048Y20038D01*
X292122Y19483D01*
Y19038D01*
X292159Y18705D01*
Y18557D01*
Y18446D01*
Y18409D01*
Y18372D01*
Y17779D01*
X292122Y17261D01*
X292048Y16742D01*
X292011Y16298D01*
X291937Y15928D01*
X291863Y15668D01*
X291826Y15483D01*
Y15409D01*
X291678Y14891D01*
X291530Y14446D01*
X291345Y14002D01*
X291196Y13669D01*
X291048Y13372D01*
X290900Y13150D01*
X290826Y13002D01*
X290789Y12965D01*
X290530Y12595D01*
X290234Y12261D01*
X289937Y11965D01*
X289641Y11706D01*
X289382Y11521D01*
X289160Y11372D01*
X289011Y11298D01*
X288974Y11261D01*
X288530Y11039D01*
X288086Y10891D01*
X287641Y10780D01*
X287234Y10706D01*
X286863Y10669D01*
X286567Y10632D01*
X286308D01*
X285864Y10669D01*
X285456Y10706D01*
X285308Y10743D01*
X285197D01*
X285123Y10780D01*
X285086D01*
X284641Y10891D01*
X284271Y11039D01*
X284123Y11076D01*
X284012Y11150D01*
X283938Y11187D01*
X283901D01*
X283493Y11409D01*
X283123Y11669D01*
X282975Y11780D01*
X282864Y11854D01*
X282790Y11891D01*
X282753Y11928D01*
X282309Y12298D01*
X281938Y12632D01*
X281753Y12780D01*
X281642Y12891D01*
X281568Y12965D01*
X281531Y13002D01*
Y4373D01*
X281494Y4225D01*
X281457Y4188D01*
X281309Y4040D01*
X281271Y4003D01*
X281234D01*
X281123Y3966D01*
X280975Y3929D01*
X280864Y3892D01*
X280827D01*
X280642Y3855D01*
X279716D01*
X279568Y3892D01*
X279531D01*
X279383Y3929D01*
X279272Y3966D01*
X279198Y4003D01*
X279161D01*
X279013Y4114D01*
X278938Y4151D01*
Y4188D01*
X278901Y4299D01*
Y4336D01*
Y4373D01*
Y25778D01*
X278938Y25964D01*
Y26001D01*
Y26038D01*
X278976Y26075D01*
X279049Y26112D01*
X279087Y26149D01*
X279124D01*
X279383Y26186D01*
X279457Y26223D01*
X279494D01*
X279679Y26260D01*
X280272D01*
X280420Y26223D01*
X280568D01*
X280716Y26186D01*
X280827D01*
X280901Y26149D01*
X280938D01*
X281049Y26112D01*
X281086Y26075D01*
X281123Y26001D01*
X281197Y25852D01*
Y25778D01*
Y24001D01*
X281642Y24445D01*
X282012Y24815D01*
X282160Y24964D01*
X282271Y25075D01*
X282346Y25112D01*
X282383Y25149D01*
X282827Y25445D01*
X283197Y25667D01*
X283308Y25778D01*
X283419Y25852D01*
X283493Y25889D01*
X283531D01*
X283938Y26075D01*
X284308Y26186D01*
X284419Y26223D01*
X284530Y26260D01*
X284604Y26297D01*
X284641D01*
X285086Y26371D01*
X285530Y26408D01*
X285679Y26445D01*
X285938D01*
X286493Y26408D01*
D02*
G37*
G36*
X171579Y26371D02*
X171727Y26334D01*
X171801D01*
X172061Y26297D01*
X172283Y26260D01*
X172431Y26223D01*
X172468D01*
X172690Y26149D01*
X172875Y26112D01*
X173023Y26075D01*
X173060D01*
X173246Y26001D01*
X173357Y25926D01*
X173394Y25852D01*
X173431D01*
X173542Y25741D01*
X173616Y25593D01*
X173653Y25482D01*
Y25445D01*
X173690Y25186D01*
X173727Y24964D01*
Y24778D01*
Y24704D01*
Y24519D01*
Y24334D01*
X173690Y24260D01*
Y24223D01*
X173653Y24001D01*
X173616Y23964D01*
Y23927D01*
X173542Y23816D01*
X173505Y23779D01*
X173394Y23705D01*
X173357D01*
X173135Y23742D01*
X173060Y23779D01*
X173023D01*
X172801Y23890D01*
X172690Y23927D01*
X172653Y23964D01*
X172468Y24001D01*
X172320Y24075D01*
X172172Y24112D01*
X172135D01*
X171912Y24149D01*
X171505D01*
X171098Y24112D01*
X170765Y24038D01*
X170505Y23927D01*
X170283Y23779D01*
X170098Y23630D01*
X169987Y23519D01*
X169950Y23445D01*
X169913Y23408D01*
X169765Y23075D01*
X169690Y22742D01*
X169542Y22001D01*
Y21668D01*
X169505Y21409D01*
Y21223D01*
Y21149D01*
Y13113D01*
X173172D01*
X173357Y13076D01*
X173468Y13002D01*
X173542Y12928D01*
X173579Y12891D01*
X173653Y12632D01*
X173727Y12372D01*
Y12150D01*
Y12076D01*
Y12039D01*
Y11854D01*
Y11669D01*
X173690Y11595D01*
Y11558D01*
X173653Y11409D01*
X173616Y11298D01*
X173579Y11261D01*
Y11224D01*
X173468Y11039D01*
X173431Y11002D01*
X173394D01*
X173246Y10928D01*
X169505D01*
Y7521D01*
X169468Y7373D01*
X169431Y7336D01*
X169283Y7188D01*
X169246Y7151D01*
X169209D01*
X169098Y7114D01*
X168950Y7077D01*
X168839Y7040D01*
X168802D01*
X168617Y7003D01*
X167691D01*
X167543Y7040D01*
X167505D01*
X167357Y7077D01*
X167246Y7114D01*
X167172Y7151D01*
X167135D01*
X166987Y7262D01*
X166913Y7299D01*
Y7336D01*
X166876Y7447D01*
Y7484D01*
Y7521D01*
Y10928D01*
X164839D01*
X164691Y10965D01*
X164654Y11002D01*
X164617D01*
X164469Y11150D01*
X164432Y11187D01*
Y11224D01*
X164395Y11335D01*
Y11446D01*
X164358Y11521D01*
Y11558D01*
X164321Y11706D01*
Y11854D01*
Y12002D01*
Y12039D01*
X164358Y12409D01*
X164395Y12669D01*
X164432Y12854D01*
Y12891D01*
X164543Y13002D01*
X164691Y13076D01*
X164802Y13113D01*
X166876D01*
Y21557D01*
Y22001D01*
X166913Y22408D01*
X166950Y22779D01*
X166987Y23075D01*
X167024Y23334D01*
X167061Y23556D01*
X167098Y23668D01*
Y23705D01*
X167320Y24334D01*
X167432Y24593D01*
X167543Y24815D01*
X167654Y25001D01*
X167765Y25149D01*
X167802Y25223D01*
X167839Y25260D01*
X168246Y25630D01*
X168691Y25926D01*
X168876Y26038D01*
X169024Y26075D01*
X169098Y26149D01*
X169135D01*
X169765Y26297D01*
X170098Y26334D01*
X170394Y26371D01*
X170653Y26408D01*
X171320D01*
X171579Y26371D01*
D02*
G37*
G36*
X96476D02*
X96624Y26334D01*
X96698D01*
X96957Y26297D01*
X97179Y26260D01*
X97328Y26223D01*
X97365D01*
X97587Y26149D01*
X97772Y26112D01*
X97920Y26075D01*
X97957D01*
X98142Y26001D01*
X98253Y25926D01*
X98291Y25852D01*
X98328D01*
X98439Y25741D01*
X98513Y25593D01*
X98550Y25482D01*
Y25445D01*
X98587Y25186D01*
X98624Y24964D01*
Y24778D01*
Y24704D01*
Y24519D01*
Y24334D01*
X98587Y24260D01*
Y24223D01*
X98550Y24001D01*
X98513Y23964D01*
Y23927D01*
X98439Y23816D01*
X98402Y23779D01*
X98291Y23705D01*
X98253D01*
X98031Y23742D01*
X97957Y23779D01*
X97920D01*
X97698Y23890D01*
X97587Y23927D01*
X97550Y23964D01*
X97365Y24001D01*
X97217Y24075D01*
X97068Y24112D01*
X97031D01*
X96809Y24149D01*
X96402D01*
X95994Y24112D01*
X95661Y24038D01*
X95402Y23927D01*
X95180Y23779D01*
X94994Y23630D01*
X94883Y23519D01*
X94846Y23445D01*
X94809Y23408D01*
X94661Y23075D01*
X94587Y22742D01*
X94439Y22001D01*
Y21668D01*
X94402Y21409D01*
Y21223D01*
Y21149D01*
Y13113D01*
X98068D01*
X98253Y13076D01*
X98364Y13002D01*
X98439Y12928D01*
X98476Y12891D01*
X98550Y12632D01*
X98624Y12372D01*
Y12150D01*
Y12076D01*
Y12039D01*
Y11854D01*
Y11669D01*
X98587Y11595D01*
Y11558D01*
X98550Y11409D01*
X98513Y11298D01*
X98476Y11261D01*
Y11224D01*
X98364Y11039D01*
X98328Y11002D01*
X98291D01*
X98142Y10928D01*
X94402D01*
Y7521D01*
X94365Y7373D01*
X94328Y7336D01*
X94180Y7188D01*
X94143Y7151D01*
X94106D01*
X93995Y7114D01*
X93847Y7077D01*
X93735Y7040D01*
X93698D01*
X93513Y7003D01*
X92587D01*
X92439Y7040D01*
X92402D01*
X92254Y7077D01*
X92143Y7114D01*
X92069Y7151D01*
X92032D01*
X91884Y7262D01*
X91810Y7299D01*
Y7336D01*
X91773Y7447D01*
Y7484D01*
Y7521D01*
Y10928D01*
X89736D01*
X89588Y10965D01*
X89551Y11002D01*
X89514D01*
X89366Y11150D01*
X89328Y11187D01*
Y11224D01*
X89291Y11335D01*
Y11446D01*
X89254Y11521D01*
Y11558D01*
X89217Y11706D01*
Y11854D01*
Y12002D01*
Y12039D01*
X89254Y12409D01*
X89291Y12669D01*
X89328Y12854D01*
Y12891D01*
X89439Y13002D01*
X89588Y13076D01*
X89699Y13113D01*
X91773D01*
Y21557D01*
Y22001D01*
X91810Y22408D01*
X91847Y22779D01*
X91884Y23075D01*
X91921Y23334D01*
X91958Y23556D01*
X91995Y23668D01*
Y23705D01*
X92217Y24334D01*
X92328Y24593D01*
X92439Y24815D01*
X92550Y25001D01*
X92661Y25149D01*
X92698Y25223D01*
X92736Y25260D01*
X93143Y25630D01*
X93587Y25926D01*
X93772Y26038D01*
X93921Y26075D01*
X93995Y26149D01*
X94032D01*
X94661Y26297D01*
X94994Y26334D01*
X95291Y26371D01*
X95550Y26408D01*
X96217D01*
X96476Y26371D01*
D02*
G37*
G36*
X85514D02*
X85662Y26334D01*
X85736D01*
X85996Y26297D01*
X86218Y26260D01*
X86366Y26223D01*
X86403D01*
X86625Y26149D01*
X86810Y26112D01*
X86958Y26075D01*
X86995D01*
X87181Y26001D01*
X87292Y25926D01*
X87329Y25852D01*
X87366D01*
X87477Y25741D01*
X87551Y25593D01*
X87588Y25482D01*
Y25445D01*
X87625Y25186D01*
X87662Y24964D01*
Y24778D01*
Y24704D01*
Y24519D01*
Y24334D01*
X87625Y24260D01*
Y24223D01*
X87588Y24001D01*
X87551Y23964D01*
Y23927D01*
X87477Y23816D01*
X87440Y23779D01*
X87329Y23705D01*
X87292D01*
X87069Y23742D01*
X86995Y23779D01*
X86958D01*
X86736Y23890D01*
X86625Y23927D01*
X86588Y23964D01*
X86403Y24001D01*
X86255Y24075D01*
X86107Y24112D01*
X86069D01*
X85847Y24149D01*
X85440D01*
X85033Y24112D01*
X84699Y24038D01*
X84440Y23927D01*
X84218Y23779D01*
X84033Y23630D01*
X83922Y23519D01*
X83885Y23445D01*
X83848Y23408D01*
X83699Y23075D01*
X83625Y22742D01*
X83477Y22001D01*
Y21668D01*
X83440Y21409D01*
Y21223D01*
Y21149D01*
Y13113D01*
X87107D01*
X87292Y13076D01*
X87403Y13002D01*
X87477Y12928D01*
X87514Y12891D01*
X87588Y12632D01*
X87662Y12372D01*
Y12150D01*
Y12076D01*
Y12039D01*
Y11854D01*
Y11669D01*
X87625Y11595D01*
Y11558D01*
X87588Y11409D01*
X87551Y11298D01*
X87514Y11261D01*
Y11224D01*
X87403Y11039D01*
X87366Y11002D01*
X87329D01*
X87181Y10928D01*
X83440D01*
Y7521D01*
X83403Y7373D01*
X83366Y7336D01*
X83218Y7188D01*
X83181Y7151D01*
X83144D01*
X83033Y7114D01*
X82885Y7077D01*
X82774Y7040D01*
X82737D01*
X82551Y7003D01*
X81625D01*
X81477Y7040D01*
X81440D01*
X81292Y7077D01*
X81181Y7114D01*
X81107Y7151D01*
X81070D01*
X80922Y7262D01*
X80848Y7299D01*
Y7336D01*
X80811Y7447D01*
Y7484D01*
Y7521D01*
Y10928D01*
X78774D01*
X78626Y10965D01*
X78589Y11002D01*
X78552D01*
X78404Y11150D01*
X78367Y11187D01*
Y11224D01*
X78330Y11335D01*
Y11446D01*
X78293Y11521D01*
Y11558D01*
X78256Y11706D01*
Y11854D01*
Y12002D01*
Y12039D01*
X78293Y12409D01*
X78330Y12669D01*
X78367Y12854D01*
Y12891D01*
X78478Y13002D01*
X78626Y13076D01*
X78737Y13113D01*
X80811D01*
Y21557D01*
Y22001D01*
X80848Y22408D01*
X80885Y22779D01*
X80922Y23075D01*
X80959Y23334D01*
X80996Y23556D01*
X81033Y23668D01*
Y23705D01*
X81255Y24334D01*
X81366Y24593D01*
X81477Y24815D01*
X81588Y25001D01*
X81700Y25149D01*
X81737Y25223D01*
X81774Y25260D01*
X82181Y25630D01*
X82625Y25926D01*
X82811Y26038D01*
X82959Y26075D01*
X83033Y26149D01*
X83070D01*
X83699Y26297D01*
X84033Y26334D01*
X84329Y26371D01*
X84588Y26408D01*
X85255D01*
X85514Y26371D01*
D02*
G37*
G36*
X319379Y26408D02*
X319712D01*
X320008Y26371D01*
X320230Y26334D01*
X320416D01*
X320527Y26297D01*
X320564D01*
X321193Y26186D01*
X321490Y26112D01*
X321712Y26075D01*
X321897Y26038D01*
X322045Y26001D01*
X322119Y25964D01*
X322156D01*
X322638Y25815D01*
X323008Y25704D01*
X323119Y25667D01*
X323230Y25630D01*
X323267Y25593D01*
X323304D01*
X323563Y25445D01*
X323749Y25371D01*
X323823Y25297D01*
X323897Y25186D01*
X323934Y25149D01*
X324008Y25001D01*
X324045Y24927D01*
X324082Y24704D01*
Y24667D01*
Y24630D01*
X324119Y24371D01*
Y24297D01*
Y24260D01*
Y24075D01*
Y23890D01*
X324082Y23816D01*
Y23779D01*
X324045Y23556D01*
X324008Y23519D01*
Y23482D01*
X323934Y23334D01*
X323897Y23297D01*
X323860D01*
X323749Y23223D01*
X323675D01*
X323489Y23260D01*
X323304Y23297D01*
X323156Y23371D01*
X323119Y23408D01*
X323082D01*
X322786Y23519D01*
X322452Y23630D01*
X322230Y23742D01*
X322156Y23779D01*
X322119D01*
X321638Y23927D01*
X321193Y24038D01*
X321008Y24075D01*
X320860Y24112D01*
X320749Y24149D01*
X320712D01*
X320119Y24223D01*
X319527Y24260D01*
X319268Y24297D01*
X318416D01*
X318008Y24260D01*
X317638Y24186D01*
X317305Y24112D01*
X317046Y24075D01*
X316823Y24001D01*
X316712Y23964D01*
X316675D01*
X316083Y23630D01*
X315823Y23482D01*
X315638Y23297D01*
X315453Y23149D01*
X315342Y23038D01*
X315268Y22964D01*
X315231Y22927D01*
X314861Y22371D01*
X314601Y21816D01*
X314527Y21594D01*
X314453Y21409D01*
X314416Y21297D01*
Y21260D01*
X314305Y20520D01*
X314231Y20149D01*
Y19816D01*
X314194Y19520D01*
Y19298D01*
Y19112D01*
Y19075D01*
X323675D01*
X323971Y19038D01*
X324193Y18927D01*
X324341Y18853D01*
X324378Y18816D01*
X324563Y18557D01*
X324674Y18261D01*
X324711Y18039D01*
Y17964D01*
Y17927D01*
Y17446D01*
Y16927D01*
X324637Y16446D01*
X324600Y16002D01*
X324526Y15594D01*
X324452Y15261D01*
X324415Y15039D01*
X324341Y14854D01*
Y14817D01*
X324193Y14372D01*
X324008Y13965D01*
X323823Y13594D01*
X323638Y13298D01*
X323452Y13039D01*
X323304Y12817D01*
X323230Y12706D01*
X323193Y12669D01*
X322897Y12335D01*
X322564Y12039D01*
X322230Y11780D01*
X321934Y11595D01*
X321675Y11409D01*
X321452Y11298D01*
X321267Y11224D01*
X321230Y11187D01*
X320749Y11002D01*
X320267Y10854D01*
X319786Y10780D01*
X319342Y10706D01*
X318934Y10669D01*
X318638Y10632D01*
X318342D01*
X317749Y10669D01*
X317231Y10706D01*
X316712Y10817D01*
X316305Y10891D01*
X315935Y11002D01*
X315675Y11113D01*
X315527Y11150D01*
X315453Y11187D01*
X315009Y11409D01*
X314564Y11669D01*
X314194Y11928D01*
X313898Y12187D01*
X313638Y12409D01*
X313416Y12595D01*
X313305Y12743D01*
X313268Y12780D01*
X312972Y13187D01*
X312676Y13594D01*
X312453Y14039D01*
X312268Y14409D01*
X312083Y14779D01*
X311972Y15039D01*
X311935Y15224D01*
X311898Y15298D01*
X311750Y15854D01*
X311639Y16446D01*
X311565Y17002D01*
X311528Y17520D01*
X311491Y17964D01*
X311454Y18335D01*
Y18557D01*
Y18594D01*
Y18631D01*
X311491Y19335D01*
X311528Y20001D01*
X311602Y20594D01*
X311676Y21075D01*
X311750Y21520D01*
X311824Y21816D01*
X311898Y22001D01*
Y22075D01*
X312083Y22594D01*
X312305Y23075D01*
X312528Y23482D01*
X312750Y23853D01*
X312972Y24112D01*
X313120Y24334D01*
X313231Y24482D01*
X313268Y24519D01*
X313638Y24853D01*
X314009Y25149D01*
X314379Y25408D01*
X314750Y25593D01*
X315046Y25741D01*
X315305Y25889D01*
X315453Y25926D01*
X315527Y25964D01*
X316046Y26112D01*
X316564Y26223D01*
X317083Y26334D01*
X317601Y26371D01*
X318008Y26408D01*
X318342Y26445D01*
X318638D01*
X319379Y26408D01*
D02*
G37*
G36*
X303084D02*
X303417D01*
X303714Y26371D01*
X303936Y26334D01*
X304121D01*
X304232Y26297D01*
X304269D01*
X304899Y26186D01*
X305195Y26112D01*
X305417Y26075D01*
X305602Y26038D01*
X305751Y26001D01*
X305825Y25964D01*
X305862D01*
X306343Y25815D01*
X306713Y25704D01*
X306824Y25667D01*
X306936Y25630D01*
X306973Y25593D01*
X307010D01*
X307269Y25445D01*
X307454Y25371D01*
X307528Y25297D01*
X307602Y25186D01*
X307639Y25149D01*
X307713Y25001D01*
X307750Y24927D01*
X307787Y24704D01*
Y24667D01*
Y24630D01*
X307824Y24371D01*
Y24297D01*
Y24260D01*
Y24075D01*
Y23890D01*
X307787Y23816D01*
Y23779D01*
X307750Y23556D01*
X307713Y23519D01*
Y23482D01*
X307639Y23334D01*
X307602Y23297D01*
X307565D01*
X307454Y23223D01*
X307380D01*
X307195Y23260D01*
X307010Y23297D01*
X306861Y23371D01*
X306824Y23408D01*
X306787D01*
X306491Y23519D01*
X306158Y23630D01*
X305936Y23742D01*
X305862Y23779D01*
X305825D01*
X305343Y23927D01*
X304899Y24038D01*
X304713Y24075D01*
X304565Y24112D01*
X304454Y24149D01*
X304417D01*
X303825Y24223D01*
X303232Y24260D01*
X302973Y24297D01*
X302121D01*
X301714Y24260D01*
X301343Y24186D01*
X301010Y24112D01*
X300751Y24075D01*
X300529Y24001D01*
X300418Y23964D01*
X300381D01*
X299788Y23630D01*
X299529Y23482D01*
X299344Y23297D01*
X299159Y23149D01*
X299048Y23038D01*
X298973Y22964D01*
X298936Y22927D01*
X298566Y22371D01*
X298307Y21816D01*
X298233Y21594D01*
X298159Y21409D01*
X298122Y21297D01*
Y21260D01*
X298011Y20520D01*
X297936Y20149D01*
Y19816D01*
X297899Y19520D01*
Y19298D01*
Y19112D01*
Y19075D01*
X307380D01*
X307676Y19038D01*
X307898Y18927D01*
X308046Y18853D01*
X308084Y18816D01*
X308269Y18557D01*
X308380Y18261D01*
X308417Y18039D01*
Y17964D01*
Y17927D01*
Y17446D01*
Y16927D01*
X308343Y16446D01*
X308306Y16002D01*
X308232Y15594D01*
X308158Y15261D01*
X308121Y15039D01*
X308046Y14854D01*
Y14817D01*
X307898Y14372D01*
X307713Y13965D01*
X307528Y13594D01*
X307343Y13298D01*
X307158Y13039D01*
X307010Y12817D01*
X306936Y12706D01*
X306898Y12669D01*
X306602Y12335D01*
X306269Y12039D01*
X305936Y11780D01*
X305639Y11595D01*
X305380Y11409D01*
X305158Y11298D01*
X304973Y11224D01*
X304936Y11187D01*
X304454Y11002D01*
X303973Y10854D01*
X303491Y10780D01*
X303047Y10706D01*
X302640Y10669D01*
X302343Y10632D01*
X302047D01*
X301455Y10669D01*
X300936Y10706D01*
X300418Y10817D01*
X300010Y10891D01*
X299640Y11002D01*
X299381Y11113D01*
X299233Y11150D01*
X299159Y11187D01*
X298714Y11409D01*
X298270Y11669D01*
X297899Y11928D01*
X297603Y12187D01*
X297344Y12409D01*
X297122Y12595D01*
X297011Y12743D01*
X296974Y12780D01*
X296677Y13187D01*
X296381Y13594D01*
X296159Y14039D01*
X295974Y14409D01*
X295788Y14779D01*
X295677Y15039D01*
X295640Y15224D01*
X295603Y15298D01*
X295455Y15854D01*
X295344Y16446D01*
X295270Y17002D01*
X295233Y17520D01*
X295196Y17964D01*
X295159Y18335D01*
Y18557D01*
Y18594D01*
Y18631D01*
X295196Y19335D01*
X295233Y20001D01*
X295307Y20594D01*
X295381Y21075D01*
X295455Y21520D01*
X295529Y21816D01*
X295603Y22001D01*
Y22075D01*
X295788Y22594D01*
X296011Y23075D01*
X296233Y23482D01*
X296455Y23853D01*
X296677Y24112D01*
X296826Y24334D01*
X296937Y24482D01*
X296974Y24519D01*
X297344Y24853D01*
X297714Y25149D01*
X298085Y25408D01*
X298455Y25593D01*
X298751Y25741D01*
X299010Y25889D01*
X299159Y25926D01*
X299233Y25964D01*
X299751Y26112D01*
X300270Y26223D01*
X300788Y26334D01*
X301306Y26371D01*
X301714Y26408D01*
X302047Y26445D01*
X302343D01*
X303084Y26408D01*
D02*
G37*
G36*
X218611D02*
X218945D01*
X219241Y26371D01*
X219463Y26334D01*
X219648D01*
X219759Y26297D01*
X219796D01*
X220426Y26186D01*
X220722Y26112D01*
X220944Y26075D01*
X221130Y26038D01*
X221278Y26001D01*
X221352Y25964D01*
X221389D01*
X221870Y25815D01*
X222241Y25704D01*
X222352Y25667D01*
X222463Y25630D01*
X222500Y25593D01*
X222537D01*
X222796Y25445D01*
X222981Y25371D01*
X223055Y25297D01*
X223129Y25186D01*
X223166Y25149D01*
X223241Y25001D01*
X223277Y24927D01*
X223315Y24704D01*
Y24667D01*
Y24630D01*
X223352Y24371D01*
Y24297D01*
Y24260D01*
Y24075D01*
Y23890D01*
X223315Y23816D01*
Y23779D01*
X223277Y23556D01*
X223241Y23519D01*
Y23482D01*
X223166Y23334D01*
X223129Y23297D01*
X223092D01*
X222981Y23223D01*
X222907D01*
X222722Y23260D01*
X222537Y23297D01*
X222389Y23371D01*
X222352Y23408D01*
X222315D01*
X222018Y23519D01*
X221685Y23630D01*
X221463Y23742D01*
X221389Y23779D01*
X221352D01*
X220870Y23927D01*
X220426Y24038D01*
X220241Y24075D01*
X220093Y24112D01*
X219982Y24149D01*
X219944D01*
X219352Y24223D01*
X218759Y24260D01*
X218500Y24297D01*
X217649D01*
X217241Y24260D01*
X216871Y24186D01*
X216537Y24112D01*
X216278Y24075D01*
X216056Y24001D01*
X215945Y23964D01*
X215908D01*
X215315Y23630D01*
X215056Y23482D01*
X214871Y23297D01*
X214686Y23149D01*
X214575Y23038D01*
X214501Y22964D01*
X214464Y22927D01*
X214093Y22371D01*
X213834Y21816D01*
X213760Y21594D01*
X213686Y21409D01*
X213649Y21297D01*
Y21260D01*
X213538Y20520D01*
X213464Y20149D01*
Y19816D01*
X213427Y19520D01*
Y19298D01*
Y19112D01*
Y19075D01*
X222907D01*
X223204Y19038D01*
X223426Y18927D01*
X223574Y18853D01*
X223611Y18816D01*
X223796Y18557D01*
X223907Y18261D01*
X223944Y18039D01*
Y17964D01*
Y17927D01*
Y17446D01*
Y16927D01*
X223870Y16446D01*
X223833Y16002D01*
X223759Y15594D01*
X223685Y15261D01*
X223648Y15039D01*
X223574Y14854D01*
Y14817D01*
X223426Y14372D01*
X223241Y13965D01*
X223055Y13594D01*
X222870Y13298D01*
X222685Y13039D01*
X222537Y12817D01*
X222463Y12706D01*
X222426Y12669D01*
X222129Y12335D01*
X221796Y12039D01*
X221463Y11780D01*
X221167Y11595D01*
X220907Y11409D01*
X220685Y11298D01*
X220500Y11224D01*
X220463Y11187D01*
X219982Y11002D01*
X219500Y10854D01*
X219019Y10780D01*
X218574Y10706D01*
X218167Y10669D01*
X217871Y10632D01*
X217574D01*
X216982Y10669D01*
X216463Y10706D01*
X215945Y10817D01*
X215538Y10891D01*
X215167Y11002D01*
X214908Y11113D01*
X214760Y11150D01*
X214686Y11187D01*
X214241Y11409D01*
X213797Y11669D01*
X213427Y11928D01*
X213130Y12187D01*
X212871Y12409D01*
X212649Y12595D01*
X212538Y12743D01*
X212501Y12780D01*
X212205Y13187D01*
X211908Y13594D01*
X211686Y14039D01*
X211501Y14409D01*
X211316Y14779D01*
X211205Y15039D01*
X211168Y15224D01*
X211131Y15298D01*
X210982Y15854D01*
X210871Y16446D01*
X210797Y17002D01*
X210760Y17520D01*
X210723Y17964D01*
X210686Y18335D01*
Y18557D01*
Y18594D01*
Y18631D01*
X210723Y19335D01*
X210760Y20001D01*
X210834Y20594D01*
X210908Y21075D01*
X210982Y21520D01*
X211057Y21816D01*
X211131Y22001D01*
Y22075D01*
X211316Y22594D01*
X211538Y23075D01*
X211760Y23482D01*
X211982Y23853D01*
X212205Y24112D01*
X212353Y24334D01*
X212464Y24482D01*
X212501Y24519D01*
X212871Y24853D01*
X213242Y25149D01*
X213612Y25408D01*
X213982Y25593D01*
X214279Y25741D01*
X214538Y25889D01*
X214686Y25926D01*
X214760Y25964D01*
X215278Y26112D01*
X215797Y26223D01*
X216315Y26334D01*
X216834Y26371D01*
X217241Y26408D01*
X217574Y26445D01*
X217871D01*
X218611Y26408D01*
D02*
G37*
G36*
X134953Y26260D02*
X135101Y26223D01*
X135176D01*
X135398Y26149D01*
X135546Y26038D01*
X135657Y25963D01*
X135694Y25926D01*
X135842Y25741D01*
X135916Y25556D01*
X135990Y25408D01*
Y25371D01*
X136027Y25075D01*
X136064Y24778D01*
Y24556D01*
Y24519D01*
Y24482D01*
Y24112D01*
X136027Y23816D01*
X135990Y23668D01*
Y23593D01*
X135916Y23334D01*
X135805Y23186D01*
X135731Y23075D01*
X135694Y23038D01*
X135546Y22890D01*
X135361Y22779D01*
X135250Y22742D01*
X135176Y22705D01*
X134916Y22631D01*
X134657Y22594D01*
X134028D01*
X133731Y22631D01*
X133583Y22668D01*
X133509Y22705D01*
X133287Y22816D01*
X133139Y22927D01*
X133028Y23001D01*
X132991Y23038D01*
X132879Y23186D01*
X132805Y23371D01*
X132731Y23519D01*
Y23593D01*
X132694Y23890D01*
Y24149D01*
Y24371D01*
Y24445D01*
Y24482D01*
Y24853D01*
X132731Y25112D01*
Y25297D01*
Y25371D01*
X132805Y25593D01*
X132879Y25778D01*
X132954Y25889D01*
X132991Y25926D01*
X133176Y26075D01*
X133324Y26149D01*
X133472Y26223D01*
X133509D01*
X133768Y26260D01*
X134065Y26297D01*
X134694D01*
X134953Y26260D01*
D02*
G37*
G36*
X179467Y26223D02*
X179727Y26186D01*
X179912Y26112D01*
X180023Y26038D01*
X180134Y26001D01*
X180208Y25926D01*
X180319Y25741D01*
X180430Y25519D01*
X180541Y25038D01*
X180578Y24778D01*
Y24593D01*
Y24445D01*
Y24408D01*
Y24038D01*
X180504Y23705D01*
X180467Y23445D01*
X180393Y23260D01*
X180319Y23112D01*
X180282Y23001D01*
X180208Y22927D01*
X180060Y22816D01*
X179875Y22705D01*
X179430Y22594D01*
X179245Y22557D01*
X178578D01*
X178282Y22631D01*
X178023Y22668D01*
X177838Y22742D01*
X177727Y22816D01*
X177616Y22890D01*
X177579Y22927D01*
X177542Y22964D01*
X177430Y23149D01*
X177319Y23371D01*
X177208Y23853D01*
Y24112D01*
X177171Y24297D01*
Y24445D01*
Y24482D01*
Y24853D01*
X177208Y25186D01*
X177282Y25445D01*
X177356Y25630D01*
X177393Y25778D01*
X177467Y25889D01*
X177505Y25926D01*
Y25963D01*
X177653Y26075D01*
X177875Y26149D01*
X178319Y26260D01*
X178504D01*
X178690Y26297D01*
X179171D01*
X179467Y26223D01*
D02*
G37*
G36*
X378113Y26223D02*
X378298D01*
X378484Y26186D01*
X378632D01*
X378706Y26149D01*
X378743D01*
X378928Y26038D01*
X378965Y26001D01*
X379039Y25852D01*
Y25778D01*
Y25667D01*
X379002Y25556D01*
X378965Y25519D01*
X378928Y25482D01*
X378854Y25334D01*
X378743Y25186D01*
X378669Y25038D01*
X378632Y25001D01*
X372818Y17409D01*
X377965Y12187D01*
X378150Y12002D01*
X378261Y11854D01*
X378298Y11780D01*
X378335Y11743D01*
X378410Y11595D01*
X378447Y11484D01*
Y11372D01*
Y11336D01*
X378410Y11187D01*
X378373Y11150D01*
X378298Y11076D01*
X378224Y11039D01*
X378150Y11002D01*
X378113D01*
X377965Y10965D01*
X377854Y10928D01*
X377706Y10891D01*
X377669D01*
X377447Y10854D01*
X376521D01*
X376373Y10891D01*
X376336D01*
X376151Y10928D01*
X376002Y10965D01*
X375891Y11002D01*
X375854D01*
X375632Y11113D01*
X375558Y11150D01*
X375521Y11187D01*
X375447Y11261D01*
X375336Y11336D01*
X375299Y11409D01*
X375262Y11447D01*
X369855Y17409D01*
Y4373D01*
X369818Y4225D01*
X369781Y4188D01*
X369633Y4040D01*
X369596Y4003D01*
X369559D01*
X369448Y3966D01*
X369299Y3929D01*
X369188Y3892D01*
X369151D01*
X368966Y3855D01*
X368040D01*
X367892Y3892D01*
X367855D01*
X367707Y3929D01*
X367596Y3966D01*
X367522Y4003D01*
X367485D01*
X367337Y4114D01*
X367263Y4151D01*
Y4188D01*
X367226Y4299D01*
Y4336D01*
Y4373D01*
Y25778D01*
X367263Y25926D01*
Y26001D01*
X367411Y26112D01*
X367448Y26149D01*
X367485D01*
X367744Y26186D01*
X367818Y26223D01*
X367855D01*
X368077Y26260D01*
X368781D01*
X369003Y26223D01*
X369151D01*
X369337Y26186D01*
X369448D01*
X369522Y26149D01*
X369559D01*
X369744Y26038D01*
X369781Y26001D01*
X369855Y25852D01*
Y25815D01*
Y25778D01*
Y17779D01*
X375928Y25778D01*
X376040Y25964D01*
X376114Y26001D01*
Y26038D01*
X376336Y26112D01*
X376410Y26149D01*
X376447D01*
X376743Y26186D01*
X376854Y26223D01*
X376891D01*
X377150Y26260D01*
X377891D01*
X378113Y26223D01*
D02*
G37*
G36*
X361559D02*
X361708D01*
X361893Y26186D01*
X362004D01*
X362078Y26149D01*
X362115D01*
X362300Y26038D01*
X362337Y26001D01*
X362411Y25852D01*
Y25815D01*
Y25778D01*
Y17002D01*
Y16446D01*
X362374Y15928D01*
X362337Y15483D01*
X362263Y15113D01*
X362226Y14779D01*
X362152Y14557D01*
X362115Y14409D01*
Y14372D01*
X362004Y13965D01*
X361856Y13594D01*
X361708Y13261D01*
X361559Y13002D01*
X361448Y12780D01*
X361337Y12595D01*
X361263Y12484D01*
X361226Y12447D01*
X361004Y12150D01*
X360745Y11891D01*
X360448Y11669D01*
X360226Y11484D01*
X359967Y11336D01*
X359819Y11224D01*
X359671Y11187D01*
X359634Y11150D01*
X359263Y10965D01*
X358856Y10854D01*
X358449Y10743D01*
X358078Y10706D01*
X357745Y10669D01*
X357486Y10632D01*
X357227D01*
X356782Y10669D01*
X356338Y10743D01*
X355930Y10854D01*
X355560Y10965D01*
X355227Y11076D01*
X355005Y11187D01*
X354856Y11261D01*
X354782Y11298D01*
X354338Y11558D01*
X353894Y11854D01*
X353486Y12187D01*
X353153Y12521D01*
X352820Y12817D01*
X352598Y13039D01*
X352449Y13187D01*
X352375Y13261D01*
Y11372D01*
X352338Y11187D01*
X352301Y11150D01*
X352264Y11076D01*
X352190Y11039D01*
X352153Y11002D01*
X352116D01*
X352005Y10965D01*
X351894Y10928D01*
X351783Y10891D01*
X351746D01*
X351561Y10854D01*
X350746D01*
X350635Y10891D01*
X350598D01*
X350449Y10928D01*
X350338Y10965D01*
X350264Y11002D01*
X350227D01*
X350153Y11039D01*
X350079Y11113D01*
X350042Y11150D01*
X350005Y11298D01*
Y11336D01*
Y11372D01*
Y25778D01*
X350042Y25926D01*
Y26001D01*
X350190Y26112D01*
X350227Y26149D01*
X350264D01*
X350524Y26186D01*
X350598Y26223D01*
X350635D01*
X350857Y26260D01*
X351561D01*
X351783Y26223D01*
X351931D01*
X352116Y26186D01*
X352227D01*
X352301Y26149D01*
X352338D01*
X352523Y26038D01*
X352560Y26001D01*
X352635Y25852D01*
Y25815D01*
Y25778D01*
Y15705D01*
X353042Y15224D01*
X353412Y14817D01*
X353745Y14483D01*
X354079Y14187D01*
X354338Y13965D01*
X354523Y13780D01*
X354671Y13706D01*
X354708Y13669D01*
X355079Y13409D01*
X355449Y13224D01*
X355782Y13113D01*
X356079Y13002D01*
X356338Y12965D01*
X356523Y12928D01*
X356708D01*
X357227Y12965D01*
X357671Y13076D01*
X357819Y13113D01*
X357930Y13187D01*
X358004Y13224D01*
X358041D01*
X358449Y13483D01*
X358745Y13743D01*
X358930Y13965D01*
X359004Y14039D01*
Y14076D01*
X359263Y14483D01*
X359412Y14928D01*
X359486Y15113D01*
X359523Y15224D01*
X359560Y15335D01*
Y15372D01*
X359634Y15668D01*
X359708Y16002D01*
X359745Y16631D01*
X359782Y16890D01*
Y17113D01*
Y17298D01*
Y17335D01*
Y25778D01*
X359819Y25926D01*
Y26001D01*
X359967Y26112D01*
X360004Y26149D01*
X360041D01*
X360300Y26186D01*
X360374Y26223D01*
X360411D01*
X360634Y26260D01*
X361337D01*
X361559Y26223D01*
D02*
G37*
G36*
X205946Y26223D02*
X206131D01*
X206316Y26186D01*
X206427D01*
X206502Y26149D01*
X206539D01*
X206724Y26038D01*
X206761Y26001D01*
X206835Y25852D01*
Y25815D01*
Y25778D01*
Y16668D01*
X206798Y15779D01*
X206761Y15409D01*
X206724Y15076D01*
X206650Y14779D01*
X206613Y14557D01*
X206576Y14409D01*
Y14372D01*
X206465Y13965D01*
X206316Y13594D01*
X206205Y13261D01*
X206057Y13002D01*
X205909Y12780D01*
X205835Y12595D01*
X205761Y12484D01*
X205724Y12446D01*
X205502Y12150D01*
X205242Y11891D01*
X204983Y11669D01*
X204761Y11484D01*
X204539Y11335D01*
X204354Y11224D01*
X204242Y11187D01*
X204205Y11150D01*
X203835Y10965D01*
X203465Y10854D01*
X203057Y10743D01*
X202687Y10706D01*
X202354Y10669D01*
X202094Y10632D01*
X201872D01*
X201428Y10669D01*
X201095Y10706D01*
X200947Y10743D01*
X200835Y10780D01*
X200761Y10817D01*
X200724D01*
X200317Y10965D01*
X199910Y11113D01*
X199761Y11187D01*
X199650Y11224D01*
X199576Y11298D01*
X199539D01*
X199095Y11595D01*
X198687Y11854D01*
X198539Y12002D01*
X198391Y12076D01*
X198317Y12150D01*
X198280Y12187D01*
X197799Y12595D01*
X197391Y13039D01*
X197206Y13224D01*
X197058Y13335D01*
X196984Y13446D01*
X196947Y13483D01*
X196725Y13039D01*
X196502Y12669D01*
X196429Y12521D01*
X196354Y12409D01*
X196317Y12372D01*
X196280Y12335D01*
X195984Y11965D01*
X195688Y11706D01*
X195466Y11521D01*
X195392Y11446D01*
X195354D01*
X194947Y11187D01*
X194540Y11002D01*
X194355Y10928D01*
X194207Y10891D01*
X194132Y10854D01*
X194095D01*
X193540Y10706D01*
X193021Y10669D01*
X192836Y10632D01*
X192503D01*
X192059Y10669D01*
X191651Y10743D01*
X191244Y10854D01*
X190910Y10965D01*
X190614Y11076D01*
X190355Y11187D01*
X190207Y11261D01*
X190170Y11298D01*
X189725Y11558D01*
X189318Y11854D01*
X188911Y12187D01*
X188577Y12521D01*
X188281Y12817D01*
X188059Y13039D01*
X187874Y13187D01*
X187837Y13261D01*
Y11372D01*
X187800Y11187D01*
X187763Y11150D01*
X187726Y11076D01*
X187652Y11039D01*
X187615Y11002D01*
X187577D01*
X187466Y10965D01*
X187355Y10928D01*
X187244Y10891D01*
X187207D01*
X187022Y10854D01*
X186207D01*
X186096Y10891D01*
X186059D01*
X185911Y10928D01*
X185800Y10965D01*
X185726Y11002D01*
X185689D01*
X185615Y11039D01*
X185541Y11113D01*
X185504Y11150D01*
X185467Y11298D01*
Y11335D01*
Y11372D01*
Y25778D01*
X185504Y25926D01*
Y26001D01*
X185652Y26112D01*
X185689Y26149D01*
X185726D01*
X185985Y26186D01*
X186059Y26223D01*
X186096D01*
X186318Y26260D01*
X187022D01*
X187244Y26223D01*
X187392D01*
X187577Y26186D01*
X187689D01*
X187763Y26149D01*
X187800D01*
X187985Y26038D01*
X188022Y26001D01*
X188096Y25852D01*
Y25815D01*
Y25778D01*
Y15705D01*
X188503Y15224D01*
X188874Y14817D01*
X189207Y14483D01*
X189503Y14187D01*
X189762Y13965D01*
X189948Y13780D01*
X190059Y13706D01*
X190096Y13669D01*
X190429Y13409D01*
X190762Y13224D01*
X191096Y13113D01*
X191355Y13002D01*
X191614Y12965D01*
X191799Y12928D01*
X191947D01*
X192466Y12965D01*
X192873Y13076D01*
X193021Y13113D01*
X193132Y13187D01*
X193169Y13224D01*
X193207D01*
X193577Y13483D01*
X193873Y13743D01*
X194021Y13965D01*
X194095Y14039D01*
Y14076D01*
X194355Y14483D01*
X194503Y14928D01*
X194577Y15113D01*
X194614Y15224D01*
X194651Y15335D01*
Y15372D01*
X194762Y15928D01*
X194799Y16483D01*
X194836Y16705D01*
Y16890D01*
Y17002D01*
Y17039D01*
Y25778D01*
X194873Y25926D01*
Y26001D01*
X195021Y26112D01*
X195058Y26149D01*
X195095D01*
X195206Y26186D01*
X195354D01*
X195466Y26223D01*
X195503D01*
X195725Y26260D01*
X196391D01*
X196577Y26223D01*
X196762D01*
X196947Y26186D01*
X197058D01*
X197132Y26149D01*
X197169D01*
X197354Y26038D01*
X197391Y26001D01*
X197465Y25852D01*
Y25815D01*
Y25778D01*
Y15705D01*
X197873Y15224D01*
X198243Y14817D01*
X198576Y14483D01*
X198873Y14187D01*
X199132Y13965D01*
X199317Y13780D01*
X199428Y13706D01*
X199465Y13669D01*
X199799Y13409D01*
X200132Y13224D01*
X200465Y13113D01*
X200724Y13002D01*
X200984Y12965D01*
X201169Y12928D01*
X201317D01*
X201798Y12965D01*
X202206Y13076D01*
X202354Y13113D01*
X202465Y13187D01*
X202539Y13224D01*
X202576D01*
X202946Y13483D01*
X203243Y13743D01*
X203391Y13965D01*
X203465Y14039D01*
Y14076D01*
X203687Y14483D01*
X203872Y14928D01*
X203909Y15113D01*
X203946Y15224D01*
X203983Y15335D01*
Y15372D01*
X204094Y15928D01*
X204131Y16483D01*
X204168Y16705D01*
Y16890D01*
Y17002D01*
Y17039D01*
Y25778D01*
X204205Y25926D01*
Y26001D01*
X204354Y26112D01*
X204391Y26149D01*
X204428D01*
X204539Y26186D01*
X204687D01*
X204798Y26223D01*
X204835D01*
X205057Y26260D01*
X205761D01*
X205946Y26223D01*
D02*
G37*
G36*
X74515D02*
X74663D01*
X74848Y26186D01*
X74960D01*
X75034Y26149D01*
X75071D01*
X75256Y26038D01*
X75293Y26001D01*
X75367Y25852D01*
Y25815D01*
Y25778D01*
Y17002D01*
Y16446D01*
X75330Y15928D01*
X75293Y15483D01*
X75219Y15113D01*
X75182Y14779D01*
X75108Y14557D01*
X75071Y14409D01*
Y14372D01*
X74960Y13965D01*
X74811Y13594D01*
X74663Y13261D01*
X74515Y13002D01*
X74404Y12780D01*
X74293Y12595D01*
X74219Y12484D01*
X74182Y12446D01*
X73960Y12150D01*
X73700Y11891D01*
X73404Y11669D01*
X73182Y11484D01*
X72923Y11335D01*
X72775Y11224D01*
X72627Y11187D01*
X72589Y11150D01*
X72219Y10965D01*
X71812Y10854D01*
X71404Y10743D01*
X71034Y10706D01*
X70701Y10669D01*
X70441Y10632D01*
X70182D01*
X69738Y10669D01*
X69331Y10706D01*
X68923Y10817D01*
X68590Y10928D01*
X68294Y11039D01*
X68071Y11113D01*
X67886Y11187D01*
X67849Y11224D01*
X67442Y11484D01*
X66997Y11743D01*
X66627Y12039D01*
X66294Y12335D01*
X65998Y12595D01*
X65775Y12817D01*
X65627Y12965D01*
X65590Y13002D01*
Y4373D01*
X65553Y4225D01*
X65516Y4188D01*
X65368Y4040D01*
X65331Y4003D01*
X65294D01*
X65183Y3966D01*
X65035Y3929D01*
X64924Y3892D01*
X64886D01*
X64701Y3855D01*
X63776D01*
X63627Y3892D01*
X63590D01*
X63442Y3929D01*
X63331Y3966D01*
X63257Y4003D01*
X63220D01*
X63072Y4114D01*
X62998Y4151D01*
Y4188D01*
X62961Y4299D01*
Y4336D01*
Y4373D01*
Y25778D01*
X62998Y25926D01*
Y26001D01*
X63146Y26112D01*
X63183Y26149D01*
X63220D01*
X63479Y26186D01*
X63553Y26223D01*
X63590D01*
X63813Y26260D01*
X64516D01*
X64738Y26223D01*
X64886D01*
X65072Y26186D01*
X65183D01*
X65257Y26149D01*
X65294D01*
X65479Y26038D01*
X65516Y26001D01*
X65590Y25852D01*
Y25815D01*
Y25778D01*
Y15705D01*
X65998Y15224D01*
X66368Y14817D01*
X66701Y14483D01*
X67035Y14187D01*
X67294Y13965D01*
X67479Y13780D01*
X67627Y13706D01*
X67664Y13669D01*
X68034Y13409D01*
X68405Y13224D01*
X68738Y13113D01*
X69034Y13002D01*
X69293Y12965D01*
X69479Y12928D01*
X69664D01*
X70182Y12965D01*
X70627Y13076D01*
X70775Y13113D01*
X70886Y13187D01*
X70960Y13224D01*
X70997D01*
X71404Y13483D01*
X71701Y13743D01*
X71886Y13965D01*
X71960Y14039D01*
Y14076D01*
X72219Y14483D01*
X72367Y14928D01*
X72441Y15113D01*
X72478Y15224D01*
X72515Y15335D01*
Y15372D01*
X72589Y15668D01*
X72663Y16002D01*
X72701Y16631D01*
X72738Y16890D01*
Y17113D01*
Y17298D01*
Y17335D01*
Y25778D01*
X72775Y25926D01*
Y26001D01*
X72923Y26112D01*
X72960Y26149D01*
X72997D01*
X73256Y26186D01*
X73330Y26223D01*
X73367D01*
X73589Y26260D01*
X74293D01*
X74515Y26223D01*
D02*
G37*
G36*
X134953Y15150D02*
X135101Y15113D01*
X135176D01*
X135398Y15039D01*
X135546Y14928D01*
X135657Y14854D01*
X135694Y14817D01*
X135842Y14631D01*
X135916Y14446D01*
X135990Y14298D01*
Y14261D01*
X136027Y13965D01*
X136064Y13669D01*
Y13446D01*
Y13409D01*
Y13372D01*
Y13002D01*
X136027Y12706D01*
X135990Y12557D01*
Y12484D01*
X135916Y12224D01*
X135805Y12039D01*
X135731Y11928D01*
X135694Y11891D01*
X135546Y11743D01*
X135361Y11669D01*
X135250Y11595D01*
X135176D01*
X134916Y11521D01*
X134657Y11484D01*
X134028D01*
X133731Y11521D01*
X133583Y11558D01*
X133509Y11595D01*
X133287Y11669D01*
X133139Y11780D01*
X133028Y11854D01*
X132991Y11891D01*
X132879Y12076D01*
X132805Y12261D01*
X132731Y12409D01*
Y12484D01*
X132694Y12780D01*
Y13039D01*
Y13261D01*
Y13335D01*
Y13372D01*
Y13743D01*
X132731Y14002D01*
Y14187D01*
Y14261D01*
X132805Y14483D01*
X132879Y14668D01*
X132954Y14779D01*
X132991Y14817D01*
X133176Y14965D01*
X133324Y15039D01*
X133472Y15113D01*
X133509D01*
X133768Y15150D01*
X134065Y15187D01*
X134694D01*
X134953Y15150D01*
D02*
G37*
G36*
X344265Y26223D02*
X344413D01*
X344598Y26186D01*
X344709D01*
X344784Y26149D01*
X344821D01*
X345006Y26038D01*
X345043Y26001D01*
X345117Y25852D01*
Y25815D01*
Y25778D01*
Y11372D01*
X345080Y11224D01*
X345043Y11187D01*
X344895Y11039D01*
X344857Y11002D01*
X344821D01*
X344709Y10965D01*
X344561Y10928D01*
X344450Y10891D01*
X344413D01*
X344228Y10854D01*
X343302D01*
X343154Y10891D01*
X343117D01*
X342969Y10928D01*
X342858Y10965D01*
X342784Y11002D01*
X342747D01*
X342598Y11113D01*
X342524Y11150D01*
Y11187D01*
X342487Y11298D01*
Y11336D01*
Y11372D01*
Y25778D01*
X342524Y25926D01*
Y26001D01*
X342673Y26112D01*
X342710Y26149D01*
X342747D01*
X343006Y26186D01*
X343080Y26223D01*
X343117D01*
X343339Y26260D01*
X344043D01*
X344265Y26223D01*
D02*
G37*
G36*
X257718D02*
X257866D01*
X258052Y26186D01*
X258163D01*
X258237Y26149D01*
X258274D01*
X258459Y26038D01*
X258496Y26001D01*
X258570Y25852D01*
Y25815D01*
Y25778D01*
Y11372D01*
X258533Y11224D01*
X258496Y11187D01*
X258348Y11039D01*
X258311Y11002D01*
X258274D01*
X258163Y10965D01*
X258015Y10928D01*
X257904Y10891D01*
X257866D01*
X257681Y10854D01*
X256756D01*
X256607Y10891D01*
X256570D01*
X256422Y10928D01*
X256311Y10965D01*
X256237Y11002D01*
X256200D01*
X256052Y11113D01*
X255978Y11150D01*
Y11187D01*
X255941Y11298D01*
Y11336D01*
Y11372D01*
Y25778D01*
X255978Y25926D01*
Y26001D01*
X256126Y26112D01*
X256163Y26149D01*
X256200D01*
X256459Y26186D01*
X256533Y26223D01*
X256570D01*
X256793Y26260D01*
X257496D01*
X257718Y26223D01*
D02*
G37*
G36*
X268976Y31963D02*
X269569Y31926D01*
X270088Y31852D01*
X270569Y31778D01*
X270939Y31704D01*
X271236Y31667D01*
X271384Y31593D01*
X271458D01*
X271939Y31444D01*
X272346Y31259D01*
X272754Y31074D01*
X273050Y30889D01*
X273309Y30741D01*
X273495Y30630D01*
X273606Y30556D01*
X273643Y30519D01*
X273939Y30259D01*
X274198Y30000D01*
X274420Y29704D01*
X274606Y29482D01*
X274717Y29260D01*
X274828Y29074D01*
X274902Y28963D01*
Y28926D01*
X275050Y28593D01*
X275161Y28260D01*
X275235Y27926D01*
X275309Y27630D01*
Y27408D01*
X275346Y27223D01*
Y27075D01*
Y27037D01*
X275272Y26408D01*
X275235Y26149D01*
X275161Y25889D01*
X275087Y25704D01*
X275050Y25556D01*
X274976Y25482D01*
Y25445D01*
X274643Y24927D01*
X274309Y24556D01*
X274161Y24408D01*
X274050Y24297D01*
X273976Y24260D01*
X273939Y24223D01*
X273421Y23890D01*
X272902Y23668D01*
X272717Y23593D01*
X272532Y23519D01*
X272421Y23482D01*
X272384D01*
X271717Y23334D01*
X271384Y23260D01*
X271087Y23223D01*
X270791D01*
X270606Y23186D01*
X270421D01*
X266680Y23001D01*
X266125Y22927D01*
X265866Y22890D01*
X265681Y22816D01*
X265532Y22742D01*
X265421Y22705D01*
X265347Y22631D01*
X265310D01*
X265125Y22483D01*
X265014Y22334D01*
X264866Y22038D01*
X264792Y21779D01*
Y21742D01*
Y21705D01*
X264829Y21372D01*
X264866Y21112D01*
X264903Y20927D01*
X264940Y20853D01*
X265088Y20594D01*
X265236Y20372D01*
X265347Y20223D01*
X265384Y20186D01*
X265755Y20446D01*
X266162Y20631D01*
X266347Y20705D01*
X266495Y20742D01*
X266569Y20779D01*
X266606D01*
X267236Y20890D01*
X267495Y20964D01*
X267754D01*
X267977Y21001D01*
X268754D01*
X269162Y20964D01*
X269569Y20890D01*
X269902Y20816D01*
X270162Y20779D01*
X270384Y20705D01*
X270532Y20668D01*
X270569D01*
X270939Y20520D01*
X271273Y20372D01*
X271606Y20186D01*
X271865Y20038D01*
X272050Y19890D01*
X272198Y19779D01*
X272309Y19705D01*
X272346Y19668D01*
X272828Y19112D01*
X273198Y18594D01*
X273309Y18372D01*
X273421Y18187D01*
X273495Y18075D01*
Y18039D01*
X273643Y17668D01*
X273717Y17298D01*
X273791Y16927D01*
X273865Y16557D01*
Y16261D01*
X273902Y16039D01*
Y15854D01*
Y15817D01*
X273865Y15261D01*
X273791Y14779D01*
X273717Y14594D01*
X273680Y14446D01*
X273643Y14372D01*
Y14335D01*
X273421Y13817D01*
X273161Y13409D01*
X273050Y13261D01*
X272939Y13150D01*
X272902Y13076D01*
X272865Y13039D01*
X274939D01*
X275087Y13002D01*
X275198Y12928D01*
X275272Y12854D01*
X275309Y12817D01*
X275420Y12595D01*
X275457Y12298D01*
X275494Y12076D01*
Y12039D01*
Y12002D01*
X275457Y11669D01*
X275420Y11409D01*
X275383Y11261D01*
X275346Y11224D01*
X275235Y11039D01*
X275087Y10965D01*
X274976Y10928D01*
X270569D01*
X270199Y10854D01*
X269865Y10780D01*
X269717D01*
X269606Y10743D01*
X269495D01*
X269088Y10706D01*
X268680Y10669D01*
X268273D01*
X267421Y10743D01*
X267051Y10780D01*
X266717Y10854D01*
X266458Y10928D01*
X266236Y10965D01*
X266088Y11039D01*
X266051D01*
X265681Y11187D01*
X265347Y11372D01*
X265051Y11521D01*
X264792Y11706D01*
X264569Y11854D01*
X264421Y11965D01*
X264310Y12039D01*
X264273Y12076D01*
X263792Y12632D01*
X263421Y13150D01*
X263310Y13372D01*
X263199Y13557D01*
X263162Y13706D01*
X263125Y13743D01*
X262977Y14113D01*
X262903Y14483D01*
X262829Y14854D01*
X262755Y15187D01*
Y15483D01*
X262718Y15705D01*
Y15854D01*
Y15928D01*
Y16298D01*
X262755Y16668D01*
X262792Y16964D01*
X262866Y17224D01*
X262903Y17446D01*
X262940Y17594D01*
X262977Y17705D01*
Y17742D01*
X263236Y18261D01*
X263496Y18668D01*
X263570Y18853D01*
X263681Y18964D01*
X263718Y19038D01*
X263755Y19075D01*
X263384Y19557D01*
X263051Y20001D01*
X262940Y20186D01*
X262866Y20334D01*
X262829Y20446D01*
X262792Y20483D01*
X262570Y21075D01*
X262459Y21594D01*
Y21853D01*
X262422Y22038D01*
Y22149D01*
Y22186D01*
X262496Y22705D01*
X262607Y23112D01*
X262681Y23297D01*
X262718Y23408D01*
X262792Y23482D01*
Y23519D01*
X262940Y23742D01*
X263125Y23927D01*
X263496Y24223D01*
X263681Y24371D01*
X263829Y24445D01*
X263903Y24482D01*
X263940Y24519D01*
X263570Y24815D01*
X263273Y25075D01*
X263088Y25260D01*
X263051Y25297D01*
X263014Y25334D01*
X262755Y25630D01*
X262533Y25889D01*
X262385Y26075D01*
X262348Y26112D01*
Y26149D01*
X262199Y26482D01*
X262051Y26778D01*
X262014Y27001D01*
X261977Y27037D01*
Y27075D01*
X261903Y27445D01*
X261866Y27778D01*
Y28037D01*
Y28075D01*
Y28112D01*
X261903Y28704D01*
X261977Y28963D01*
X262051Y29186D01*
X262088Y29371D01*
X262162Y29519D01*
X262199Y29593D01*
Y29630D01*
X262348Y29889D01*
X262533Y30148D01*
X262903Y30519D01*
X263088Y30667D01*
X263236Y30778D01*
X263310Y30852D01*
X263347Y30889D01*
X263644Y31074D01*
X263977Y31222D01*
X264644Y31481D01*
X264903Y31593D01*
X265162Y31630D01*
X265310Y31704D01*
X265347D01*
X265829Y31815D01*
X266310Y31889D01*
X266829Y31926D01*
X267273Y31963D01*
X267680Y32000D01*
X268310D01*
X268976Y31963D01*
D02*
G37*
G36*
X123584Y26408D02*
X123991Y26334D01*
X124325Y26297D01*
X124584Y26223D01*
X124806Y26186D01*
X124954Y26149D01*
X124991D01*
X125362Y26038D01*
X125695Y25889D01*
X126028Y25741D01*
X126288Y25593D01*
X126473Y25445D01*
X126621Y25371D01*
X126732Y25297D01*
X126769Y25260D01*
X127250Y24778D01*
X127621Y24297D01*
X127732Y24112D01*
X127843Y23964D01*
X127917Y23853D01*
Y23816D01*
X128065Y23482D01*
X128176Y23149D01*
X128250Y22816D01*
X128324Y22520D01*
Y22260D01*
X128361Y22038D01*
Y21890D01*
Y21853D01*
X128324Y21223D01*
X128250Y20927D01*
X128213Y20705D01*
X128139Y20520D01*
X128065Y20371D01*
X128028Y20298D01*
Y20260D01*
X127769Y19779D01*
X127510Y19409D01*
X127399Y19298D01*
X127288Y19187D01*
X127250Y19149D01*
X127213Y19112D01*
X126806Y18779D01*
X126436Y18520D01*
X126250Y18446D01*
X126139Y18372D01*
X126065Y18298D01*
X126028D01*
X125547Y18038D01*
X125103Y17853D01*
X124954Y17779D01*
X124806Y17705D01*
X124732Y17668D01*
X124695D01*
X124214Y17483D01*
X123769Y17298D01*
X123621Y17261D01*
X123473Y17187D01*
X123399Y17150D01*
X123362D01*
X122880Y16964D01*
X122510Y16779D01*
X122362Y16705D01*
X122288Y16631D01*
X122214Y16594D01*
X122177D01*
X121844Y16335D01*
X121584Y16113D01*
X121436Y15928D01*
X121362Y15854D01*
X121177Y15483D01*
X121103Y15150D01*
X121066Y15002D01*
Y14891D01*
Y14817D01*
Y14779D01*
X121103Y14446D01*
X121140Y14187D01*
X121177Y14039D01*
X121214Y13965D01*
X121362Y13706D01*
X121510Y13483D01*
X121658Y13335D01*
X121695Y13298D01*
X121955Y13113D01*
X122251Y12965D01*
X122473Y12891D01*
X122510Y12854D01*
X122547D01*
X122955Y12743D01*
X123325Y12706D01*
X123510Y12669D01*
X123732D01*
X124251Y12706D01*
X124695Y12743D01*
X124843Y12780D01*
X124954Y12817D01*
X125028Y12854D01*
X125065D01*
X125473Y13002D01*
X125806Y13113D01*
X125991Y13224D01*
X126065Y13261D01*
X126362Y13409D01*
X126584Y13520D01*
X126732Y13594D01*
X126769Y13632D01*
X126954Y13706D01*
X127065Y13743D01*
X127139Y13780D01*
X127176D01*
X127324Y13743D01*
X127361D01*
X127436Y13632D01*
X127473Y13557D01*
X127547Y13372D01*
X127584Y13298D01*
Y13261D01*
X127621Y13076D01*
Y12928D01*
Y12780D01*
Y12743D01*
Y12595D01*
Y12446D01*
X127584Y12372D01*
Y12335D01*
X127547Y12113D01*
X127510Y12076D01*
Y12039D01*
X127473Y11891D01*
X127436Y11817D01*
X127399Y11743D01*
X127324Y11669D01*
X127250Y11595D01*
X127213D01*
X127065Y11484D01*
X126917Y11409D01*
X126806Y11335D01*
X126732Y11298D01*
X126473Y11187D01*
X126214Y11076D01*
X125991Y11039D01*
X125954Y11002D01*
X125917D01*
X125584Y10891D01*
X125251Y10817D01*
X125103Y10780D01*
X124991Y10743D01*
X124880D01*
X124473Y10669D01*
X124103Y10632D01*
X123288D01*
X122844Y10706D01*
X122436Y10743D01*
X122103Y10817D01*
X121807Y10891D01*
X121621Y10928D01*
X121473Y11002D01*
X121436D01*
X120770Y11298D01*
X120510Y11446D01*
X120251Y11595D01*
X120066Y11706D01*
X119918Y11817D01*
X119844Y11891D01*
X119807Y11928D01*
X119399Y12372D01*
X119103Y12817D01*
X118992Y13002D01*
X118918Y13150D01*
X118844Y13261D01*
Y13298D01*
X118659Y13891D01*
X118585Y14409D01*
X118548Y14631D01*
Y14779D01*
Y14891D01*
Y14928D01*
X118585Y15594D01*
X118659Y15891D01*
X118696Y16113D01*
X118770Y16335D01*
X118807Y16483D01*
X118844Y16557D01*
Y16594D01*
X119103Y17076D01*
X119362Y17446D01*
X119473Y17594D01*
X119585Y17668D01*
X119622Y17742D01*
X119659Y17779D01*
X120066Y18112D01*
X120436Y18372D01*
X120584Y18446D01*
X120696Y18520D01*
X120770Y18594D01*
X120807D01*
X121288Y18816D01*
X121733Y19038D01*
X121881Y19112D01*
X122029Y19187D01*
X122103Y19224D01*
X122140D01*
X122658Y19409D01*
X123066Y19594D01*
X123251Y19631D01*
X123362Y19705D01*
X123436Y19742D01*
X123473D01*
X123918Y19927D01*
X124288Y20112D01*
X124436Y20186D01*
X124547Y20223D01*
X124584Y20298D01*
X124621D01*
X124954Y20520D01*
X125214Y20779D01*
X125399Y20964D01*
X125436Y21001D01*
Y21038D01*
X125621Y21371D01*
X125732Y21705D01*
X125769Y21816D01*
Y21927D01*
Y22001D01*
Y22038D01*
X125732Y22445D01*
X125658Y22779D01*
X125584Y23001D01*
X125547Y23038D01*
Y23075D01*
X125362Y23371D01*
X125140Y23593D01*
X124991Y23779D01*
X124954Y23816D01*
X124917D01*
X124584Y24001D01*
X124288Y24112D01*
X124066Y24186D01*
X123991Y24223D01*
X123954D01*
X123547Y24297D01*
X123177Y24334D01*
X122769D01*
X122140Y24297D01*
X121844Y24260D01*
X121621Y24223D01*
X121399D01*
X121251Y24186D01*
X121177Y24149D01*
X121140D01*
X120659Y23964D01*
X120288Y23816D01*
X120140Y23742D01*
X120066Y23705D01*
X119992Y23668D01*
X119955D01*
X119622Y23482D01*
X119362Y23334D01*
X119177Y23223D01*
X119103Y23186D01*
X118881Y23038D01*
X118733Y23001D01*
X118659Y22964D01*
X118622D01*
X118474Y23001D01*
X118436Y23038D01*
X118399D01*
X118363Y23075D01*
X118288Y23149D01*
X118251Y23186D01*
Y23223D01*
X118214Y23334D01*
Y23445D01*
X118177Y23519D01*
Y23556D01*
Y23742D01*
Y23890D01*
Y24038D01*
Y24075D01*
Y24408D01*
X118214Y24630D01*
X118251Y24815D01*
Y24853D01*
X118325Y25038D01*
X118399Y25186D01*
X118436Y25260D01*
X118474Y25297D01*
X118622Y25408D01*
X118807Y25519D01*
X118955Y25630D01*
X119029Y25667D01*
X119362Y25815D01*
X119659Y25926D01*
X119918Y26001D01*
X119955Y26038D01*
X119992D01*
X120436Y26149D01*
X120807Y26223D01*
X120992Y26260D01*
X121103D01*
X121177Y26297D01*
X121214D01*
X121733Y26371D01*
X122214Y26408D01*
X122399Y26445D01*
X123140D01*
X123584Y26408D01*
D02*
G37*
G36*
X103883Y31926D02*
X104031D01*
X104216Y31889D01*
X104327Y31852D01*
X104401Y31815D01*
X104438D01*
X104623Y31704D01*
X104660Y31630D01*
X104734Y31518D01*
Y31444D01*
Y24260D01*
X105142Y24667D01*
X105475Y24964D01*
X105623Y25075D01*
X105734Y25186D01*
X105771Y25223D01*
X105808Y25260D01*
X106179Y25519D01*
X106512Y25741D01*
X106771Y25889D01*
X106808Y25926D01*
X106845D01*
X107215Y26075D01*
X107549Y26223D01*
X107808Y26260D01*
X107845Y26297D01*
X107882D01*
X108327Y26371D01*
X108697Y26408D01*
X108882Y26445D01*
X109104D01*
X109660Y26408D01*
X110141Y26371D01*
X110585Y26260D01*
X110993Y26149D01*
X111326Y26075D01*
X111548Y25963D01*
X111734Y25926D01*
X111771Y25889D01*
X112178Y25667D01*
X112585Y25408D01*
X112919Y25149D01*
X113215Y24890D01*
X113437Y24667D01*
X113585Y24482D01*
X113696Y24334D01*
X113733Y24297D01*
X113993Y23890D01*
X114252Y23445D01*
X114437Y23001D01*
X114622Y22631D01*
X114733Y22260D01*
X114844Y22001D01*
X114918Y21816D01*
Y21742D01*
X115066Y21149D01*
X115178Y20557D01*
X115252Y20001D01*
X115326Y19483D01*
Y19001D01*
X115363Y18668D01*
Y18520D01*
Y18409D01*
Y18372D01*
Y18335D01*
Y17742D01*
X115326Y17224D01*
X115252Y16705D01*
X115215Y16261D01*
X115141Y15891D01*
X115066Y15631D01*
X115029Y15446D01*
Y15372D01*
X114881Y14854D01*
X114733Y14409D01*
X114548Y13965D01*
X114400Y13632D01*
X114252Y13335D01*
X114104Y13113D01*
X114030Y12965D01*
X113993Y12928D01*
X113733Y12557D01*
X113437Y12224D01*
X113141Y11928D01*
X112844Y11706D01*
X112585Y11521D01*
X112400Y11372D01*
X112252Y11298D01*
X112215Y11261D01*
X111771Y11039D01*
X111326Y10891D01*
X110882Y10780D01*
X110437Y10706D01*
X110067Y10669D01*
X109771Y10632D01*
X109511D01*
X108993Y10669D01*
X108549Y10706D01*
X108400Y10743D01*
X108252Y10780D01*
X108178Y10817D01*
X108141D01*
X107697Y10965D01*
X107289Y11150D01*
X107104Y11224D01*
X106993Y11261D01*
X106919Y11335D01*
X106882D01*
X106438Y11595D01*
X106067Y11854D01*
X105882Y11965D01*
X105771Y12076D01*
X105697Y12113D01*
X105660Y12150D01*
X105216Y12521D01*
X104808Y12891D01*
X104660Y13076D01*
X104512Y13187D01*
X104438Y13261D01*
X104401Y13298D01*
Y11372D01*
X104364Y11187D01*
X104327Y11150D01*
X104290Y11076D01*
X104216Y11039D01*
X104179Y11002D01*
X104142D01*
X103919Y10928D01*
X103808Y10891D01*
X103771D01*
X103623Y10854D01*
X102846D01*
X102734Y10891D01*
X102697D01*
X102549Y10928D01*
X102438Y10965D01*
X102364Y11002D01*
X102327D01*
X102253Y11039D01*
X102179Y11076D01*
X102142Y11113D01*
Y11150D01*
X102105Y11298D01*
Y11335D01*
Y11372D01*
Y31444D01*
X102142Y31593D01*
Y31630D01*
X102290Y31778D01*
X102327Y31815D01*
X102364D01*
X102623Y31889D01*
X102697Y31926D01*
X102734D01*
X102957Y31963D01*
X103660D01*
X103883Y31926D01*
D02*
G37*
G36*
X252423Y26112D02*
X252497D01*
X252645Y25964D01*
X252682Y25926D01*
Y25889D01*
X252756Y25630D01*
Y25556D01*
Y25519D01*
X252793Y25334D01*
Y25186D01*
Y25038D01*
Y25001D01*
X252756Y24593D01*
X252719Y24334D01*
X252682Y24149D01*
X252645Y24112D01*
X252534Y23927D01*
X252386Y23853D01*
X252274Y23816D01*
X242127D01*
X251645Y8965D01*
X251793Y8743D01*
X251904Y8558D01*
X251941Y8447D01*
X251978Y8410D01*
X252089Y8225D01*
X252163Y8077D01*
X252201Y8002D01*
Y7965D01*
X252274Y7817D01*
X252312Y7669D01*
Y7595D01*
Y7558D01*
X252349Y7373D01*
Y7225D01*
Y7114D01*
Y7077D01*
Y6484D01*
X252312Y6151D01*
X252237Y5892D01*
X252126Y5743D01*
X252089Y5706D01*
X251904Y5558D01*
X251682Y5484D01*
X251497Y5447D01*
X239905D01*
X239720Y5484D01*
X239683Y5521D01*
X239646D01*
X239498Y5669D01*
X239461Y5706D01*
Y5743D01*
X239387Y5966D01*
X239350Y6077D01*
Y6114D01*
X239313Y6299D01*
Y6447D01*
Y6595D01*
Y6632D01*
Y6854D01*
X239350Y7003D01*
Y7114D01*
Y7151D01*
X239387Y7299D01*
X239424Y7410D01*
X239461Y7484D01*
Y7521D01*
X239572Y7669D01*
X239646Y7706D01*
X239831Y7743D01*
X249349D01*
X239794Y22705D01*
X239646Y22927D01*
X239535Y23112D01*
X239461Y23260D01*
X239424Y23297D01*
X239350Y23445D01*
X239276Y23593D01*
X239239Y23705D01*
X239202Y23742D01*
X239128Y24001D01*
X239091Y24075D01*
Y24112D01*
Y24371D01*
Y24445D01*
Y24482D01*
Y25075D01*
X239128Y25445D01*
X239239Y25704D01*
X239313Y25889D01*
X239350Y25926D01*
X239572Y26038D01*
X239794Y26112D01*
X239942Y26149D01*
X252237D01*
X252423Y26112D01*
D02*
G37*
G36*
X339340D02*
X339414D01*
X339562Y25964D01*
X339599Y25926D01*
Y25889D01*
X339673Y25630D01*
X339710Y25556D01*
Y25519D01*
X339747Y25334D01*
Y25149D01*
Y25001D01*
Y24964D01*
Y24741D01*
Y24593D01*
X339710Y24482D01*
Y24445D01*
X339673Y24297D01*
X339636Y24186D01*
X339599Y24112D01*
Y24075D01*
X339488Y23890D01*
X339451Y23853D01*
X339414D01*
X339229Y23779D01*
X331748D01*
Y5854D01*
X331711Y5706D01*
X331674Y5669D01*
X331600Y5595D01*
X331526Y5558D01*
X331451Y5521D01*
X331414D01*
X331303Y5484D01*
X331155Y5447D01*
X331044Y5410D01*
X331007D01*
X330785Y5373D01*
X330600Y5336D01*
X330118D01*
X329896Y5373D01*
X329748Y5410D01*
X329711D01*
X329526Y5447D01*
X329378Y5484D01*
X329304Y5521D01*
X329267D01*
X329118Y5595D01*
X329044Y5632D01*
Y5669D01*
X329007Y5781D01*
Y5817D01*
Y5854D01*
Y25038D01*
X329044Y25445D01*
X329156Y25704D01*
X329267Y25889D01*
X329304Y25926D01*
X329563Y26038D01*
X329785Y26112D01*
X329933Y26149D01*
X339154D01*
X339340Y26112D01*
D02*
G37*
G36*
X344339Y8040D02*
X344598Y7965D01*
X344746Y7891D01*
X344895Y7854D01*
X344969Y7780D01*
X345043Y7743D01*
X345154Y7595D01*
X345265Y7410D01*
X345376Y7003D01*
X345413Y6780D01*
Y6632D01*
Y6521D01*
Y6484D01*
Y6151D01*
X345339Y5892D01*
X345302Y5669D01*
X345228Y5521D01*
X345154Y5373D01*
X345117Y5299D01*
X345043Y5225D01*
X344895Y5114D01*
X344709Y5040D01*
X344302Y4929D01*
X344080Y4892D01*
X343450D01*
X343191Y4966D01*
X342969Y5003D01*
X342784Y5077D01*
X342635Y5151D01*
X342561Y5188D01*
X342487Y5262D01*
X342376Y5410D01*
X342302Y5595D01*
X342191Y6003D01*
Y6225D01*
X342154Y6373D01*
Y6484D01*
Y6521D01*
Y6854D01*
X342191Y7114D01*
X342265Y7336D01*
X342339Y7484D01*
X342376Y7632D01*
X342450Y7706D01*
X342487Y7780D01*
X342635Y7891D01*
X342821Y7965D01*
X343228Y8040D01*
X343450Y8077D01*
X344080D01*
X344339Y8040D01*
D02*
G37*
G36*
X257792D02*
X258052Y7965D01*
X258200Y7891D01*
X258348Y7854D01*
X258422Y7780D01*
X258496Y7743D01*
X258607Y7595D01*
X258718Y7410D01*
X258829Y7003D01*
X258866Y6780D01*
Y6632D01*
Y6521D01*
Y6484D01*
Y6151D01*
X258792Y5892D01*
X258755Y5669D01*
X258681Y5521D01*
X258607Y5373D01*
X258570Y5299D01*
X258496Y5225D01*
X258348Y5114D01*
X258163Y5040D01*
X257755Y4929D01*
X257533Y4892D01*
X256904D01*
X256644Y4966D01*
X256422Y5003D01*
X256237Y5077D01*
X256089Y5151D01*
X256015Y5188D01*
X255941Y5262D01*
X255830Y5410D01*
X255756Y5595D01*
X255644Y6003D01*
Y6225D01*
X255607Y6373D01*
Y6484D01*
Y6521D01*
Y6854D01*
X255644Y7114D01*
X255719Y7336D01*
X255793Y7484D01*
X255830Y7632D01*
X255904Y7706D01*
X255941Y7780D01*
X256089Y7891D01*
X256274Y7965D01*
X256681Y8040D01*
X256904Y8077D01*
X257533D01*
X257792Y8040D01*
D02*
G37*
G36*
X227203Y30593D02*
X227351D01*
X227499Y30556D01*
X227610Y30519D01*
X227684Y30482D01*
X227722D01*
X227833Y30408D01*
X227907Y30371D01*
X227981Y30296D01*
X228055Y30185D01*
X228129Y30074D01*
X228166Y30000D01*
Y29963D01*
X237869Y3484D01*
X237906Y3336D01*
Y3225D01*
Y3151D01*
Y3114D01*
X237869Y3003D01*
X237794Y2929D01*
X237757Y2892D01*
X237721D01*
X237609Y2818D01*
X237461Y2744D01*
X237350Y2707D01*
X237313D01*
X237091Y2670D01*
X236906Y2633D01*
X236239D01*
X236128Y2670D01*
X236091D01*
X235943Y2707D01*
X235795Y2744D01*
X235721Y2781D01*
X235684D01*
X235499Y2892D01*
X235462Y2929D01*
X235424Y2966D01*
X235387Y3077D01*
X235313Y3188D01*
X235276Y3262D01*
Y3299D01*
X225611Y29778D01*
X225537Y29926D01*
Y30037D01*
Y30111D01*
Y30148D01*
X225611Y30296D01*
X225685Y30371D01*
X225796Y30445D01*
X225944Y30519D01*
X226055Y30556D01*
X226092D01*
X226314Y30593D01*
X226574Y30630D01*
X227018D01*
X227203Y30593D01*
D02*
G37*
G36*
X152840Y30593D02*
X152989D01*
X153137Y30556D01*
X153248Y30519D01*
X153322Y30482D01*
X153359D01*
X153470Y30408D01*
X153544Y30371D01*
X153618Y30296D01*
X153692Y30185D01*
X153766Y30074D01*
X153803Y30000D01*
Y29963D01*
X163506Y3484D01*
X163543Y3336D01*
Y3225D01*
Y3151D01*
Y3114D01*
X163506Y3003D01*
X163432Y2929D01*
X163395Y2892D01*
X163358D01*
X163247Y2818D01*
X163099Y2744D01*
X162987Y2707D01*
X162950D01*
X162728Y2670D01*
X162543Y2633D01*
X161877D01*
X161765Y2670D01*
X161728D01*
X161580Y2707D01*
X161432Y2744D01*
X161358Y2781D01*
X161321D01*
X161136Y2892D01*
X161099Y2929D01*
X161062Y2966D01*
X161025Y3077D01*
X160951Y3188D01*
X160914Y3262D01*
Y3299D01*
X151248Y29778D01*
X151174Y29926D01*
Y30037D01*
Y30111D01*
Y30148D01*
X151248Y30296D01*
X151322Y30371D01*
X151433Y30445D01*
X151581Y30519D01*
X151692Y30556D01*
X151729D01*
X151952Y30593D01*
X152211Y30630D01*
X152655D01*
X152840Y30593D01*
D02*
G37*
G36*
X140175D02*
X140323D01*
X140471Y30556D01*
X140582Y30519D01*
X140656Y30482D01*
X140694D01*
X140805Y30408D01*
X140879Y30371D01*
X140953Y30296D01*
X141027Y30185D01*
X141101Y30074D01*
X141138Y30000D01*
Y29963D01*
X150841Y3484D01*
X150878Y3336D01*
Y3225D01*
Y3151D01*
Y3114D01*
X150841Y3003D01*
X150766Y2929D01*
X150730Y2892D01*
X150693D01*
X150581Y2818D01*
X150433Y2744D01*
X150322Y2707D01*
X150285D01*
X150063Y2670D01*
X149878Y2633D01*
X149211D01*
X149100Y2670D01*
X149063D01*
X148915Y2707D01*
X148767Y2744D01*
X148693Y2781D01*
X148656D01*
X148470Y2892D01*
X148433Y2929D01*
X148396Y2966D01*
X148359Y3077D01*
X148285Y3188D01*
X148248Y3262D01*
Y3299D01*
X138583Y29778D01*
X138509Y29926D01*
Y30037D01*
Y30111D01*
Y30148D01*
X138583Y30296D01*
X138657Y30371D01*
X138768Y30445D01*
X138916Y30519D01*
X139027Y30556D01*
X139064D01*
X139286Y30593D01*
X139545Y30630D01*
X139990D01*
X140175Y30593D01*
D02*
G37*
G36*
X37331Y7464D02*
X6981D01*
Y22000D01*
X37331D01*
Y7464D01*
D02*
G37*
G36*
X160179Y127109D02*
X127000D01*
Y139000D01*
X160179D01*
Y127109D01*
D02*
G37*
%LPC*%
G36*
X285864Y24186D02*
X285679D01*
X285271Y24149D01*
X284901Y24075D01*
X284568Y23964D01*
X284234Y23853D01*
X283975Y23742D01*
X283790Y23630D01*
X283642Y23556D01*
X283605Y23519D01*
X283234Y23223D01*
X282864Y22890D01*
X282494Y22557D01*
X282197Y22223D01*
X281938Y21927D01*
X281716Y21705D01*
X281568Y21557D01*
X281531Y21483D01*
Y15742D01*
X281975Y15187D01*
X282160Y14965D01*
X282346Y14779D01*
X282457Y14631D01*
X282568Y14483D01*
X282642Y14446D01*
X282679Y14409D01*
X283086Y14039D01*
X283456Y13780D01*
X283679Y13632D01*
X283716Y13557D01*
X283753D01*
X284123Y13335D01*
X284456Y13150D01*
X284679Y13076D01*
X284716Y13039D01*
X284753D01*
X285123Y12965D01*
X285456Y12891D01*
X285790D01*
X286160Y12928D01*
X286493Y12965D01*
X286789Y13039D01*
X287049Y13150D01*
X287271Y13261D01*
X287419Y13335D01*
X287493Y13372D01*
X287530Y13409D01*
X288012Y13817D01*
X288345Y14224D01*
X288493Y14409D01*
X288567Y14557D01*
X288641Y14668D01*
Y14705D01*
X288900Y15298D01*
X289086Y15891D01*
X289160Y16150D01*
X289197Y16335D01*
X289234Y16483D01*
Y16520D01*
X289345Y17298D01*
X289382Y17668D01*
Y17964D01*
X289419Y18261D01*
Y18483D01*
Y18631D01*
Y18668D01*
X289382Y19409D01*
X289345Y19742D01*
X289308Y20038D01*
X289271Y20298D01*
X289234Y20483D01*
X289197Y20631D01*
Y20668D01*
X289011Y21372D01*
X288900Y21668D01*
X288826Y21964D01*
X288715Y22186D01*
X288641Y22334D01*
X288604Y22445D01*
X288567Y22483D01*
X288197Y23001D01*
X287826Y23408D01*
X287641Y23556D01*
X287493Y23668D01*
X287419Y23705D01*
X287382Y23742D01*
X287123Y23890D01*
X286826Y24001D01*
X286271Y24112D01*
X286049Y24149D01*
X285864Y24186D01*
D02*
G37*
G36*
X322045Y17150D02*
X314194D01*
X314231Y16520D01*
X314268Y16261D01*
X314342Y16002D01*
X314379Y15779D01*
X314416Y15631D01*
X314453Y15520D01*
Y15483D01*
X314713Y14928D01*
X314824Y14668D01*
X314972Y14483D01*
X315046Y14298D01*
X315157Y14187D01*
X315194Y14113D01*
X315231Y14076D01*
X315638Y13669D01*
X316046Y13335D01*
X316231Y13224D01*
X316379Y13150D01*
X316453Y13076D01*
X316490D01*
X317083Y12854D01*
X317638Y12743D01*
X317860Y12706D01*
X318231D01*
X318897Y12743D01*
X319490Y12891D01*
X319971Y13076D01*
X320379Y13298D01*
X320675Y13520D01*
X320897Y13706D01*
X321045Y13854D01*
X321082Y13891D01*
X321415Y14372D01*
X321638Y14891D01*
X321823Y15446D01*
X321934Y15965D01*
X322008Y16446D01*
X322045Y16816D01*
Y16964D01*
Y17039D01*
Y17113D01*
Y17150D01*
D02*
G37*
G36*
X305751D02*
X297899D01*
X297936Y16520D01*
X297973Y16261D01*
X298048Y16002D01*
X298085Y15779D01*
X298122Y15631D01*
X298159Y15520D01*
Y15483D01*
X298418Y14928D01*
X298529Y14668D01*
X298677Y14483D01*
X298751Y14298D01*
X298862Y14187D01*
X298899Y14113D01*
X298936Y14076D01*
X299344Y13669D01*
X299751Y13335D01*
X299936Y13224D01*
X300084Y13150D01*
X300159Y13076D01*
X300196D01*
X300788Y12854D01*
X301343Y12743D01*
X301566Y12706D01*
X301936D01*
X302603Y12743D01*
X303195Y12891D01*
X303677Y13076D01*
X304084Y13298D01*
X304380Y13520D01*
X304602Y13706D01*
X304751Y13854D01*
X304788Y13891D01*
X305121Y14372D01*
X305343Y14891D01*
X305528Y15446D01*
X305639Y15965D01*
X305713Y16446D01*
X305751Y16816D01*
Y16964D01*
Y17039D01*
Y17113D01*
Y17150D01*
D02*
G37*
G36*
X221278D02*
X213427D01*
X213464Y16520D01*
X213501Y16261D01*
X213575Y16002D01*
X213612Y15779D01*
X213649Y15631D01*
X213686Y15520D01*
Y15483D01*
X213945Y14928D01*
X214056Y14668D01*
X214204Y14483D01*
X214279Y14298D01*
X214390Y14187D01*
X214427Y14113D01*
X214464Y14076D01*
X214871Y13669D01*
X215278Y13335D01*
X215464Y13224D01*
X215612Y13150D01*
X215686Y13076D01*
X215723D01*
X216315Y12854D01*
X216871Y12743D01*
X217093Y12706D01*
X217463D01*
X218130Y12743D01*
X218722Y12891D01*
X219204Y13076D01*
X219611Y13298D01*
X219907Y13520D01*
X220130Y13706D01*
X220278Y13854D01*
X220315Y13891D01*
X220648Y14372D01*
X220870Y14891D01*
X221056Y15446D01*
X221167Y15965D01*
X221241Y16446D01*
X221278Y16816D01*
Y16964D01*
Y17039D01*
Y17113D01*
Y17150D01*
D02*
G37*
G36*
X268865Y30000D02*
X268458D01*
X267791Y29963D01*
X267199Y29926D01*
X266680Y29815D01*
X266273Y29704D01*
X265940Y29630D01*
X265681Y29519D01*
X265532Y29482D01*
X265495Y29445D01*
X265162Y29223D01*
X264903Y28963D01*
X264718Y28704D01*
X264607Y28445D01*
X264533Y28223D01*
X264459Y28037D01*
Y27889D01*
Y27852D01*
Y27593D01*
X264496Y27408D01*
Y27260D01*
Y27186D01*
X264569Y26964D01*
X264644Y26741D01*
X264718Y26593D01*
X264755Y26556D01*
X264940Y26297D01*
X265125Y26112D01*
X265273Y25964D01*
X265310Y25889D01*
X265569Y25593D01*
X265829Y25371D01*
X266051Y25186D01*
X266088Y25112D01*
X266125D01*
X269865Y25260D01*
X270310Y25297D01*
X270754Y25371D01*
X271087Y25445D01*
X271384Y25519D01*
X271643Y25630D01*
X271791Y25704D01*
X271902Y25741D01*
X271939Y25778D01*
X272198Y25964D01*
X272384Y26186D01*
X272532Y26445D01*
X272606Y26667D01*
X272680Y26852D01*
X272717Y27037D01*
Y27149D01*
Y27186D01*
X272680Y27593D01*
X272606Y27926D01*
X272532Y28149D01*
X272495Y28186D01*
Y28223D01*
X272272Y28593D01*
X272050Y28852D01*
X271828Y29037D01*
X271791Y29111D01*
X271754D01*
X271347Y29371D01*
X270939Y29593D01*
X270754Y29630D01*
X270606Y29704D01*
X270495Y29741D01*
X270458D01*
X269791Y29889D01*
X269458Y29926D01*
X269162Y29963D01*
X268865Y30000D01*
D02*
G37*
G36*
X268569Y18964D02*
X268310D01*
X267791Y18927D01*
X267310Y18853D01*
X266940Y18705D01*
X266606Y18557D01*
X266347Y18409D01*
X266162Y18261D01*
X266051Y18187D01*
X266014Y18150D01*
X265755Y17816D01*
X265569Y17446D01*
X265421Y17076D01*
X265347Y16742D01*
X265273Y16409D01*
X265236Y16150D01*
Y16002D01*
Y15928D01*
X265273Y15446D01*
X265310Y15076D01*
X265347Y14928D01*
Y14817D01*
X265384Y14742D01*
Y14705D01*
X265532Y14298D01*
X265718Y13965D01*
X265866Y13743D01*
X265940Y13706D01*
Y13669D01*
X266273Y13335D01*
X266569Y13113D01*
X266829Y12965D01*
X266866Y12928D01*
X266903D01*
X267347Y12780D01*
X267791Y12706D01*
X267977Y12669D01*
X268236D01*
X268791Y12706D01*
X269236Y12817D01*
X269643Y12928D01*
X269976Y13076D01*
X270236Y13261D01*
X270421Y13372D01*
X270532Y13483D01*
X270569Y13520D01*
X270828Y13854D01*
X271050Y14224D01*
X271199Y14594D01*
X271273Y14965D01*
X271347Y15298D01*
X271384Y15557D01*
Y15742D01*
Y15817D01*
X271347Y16261D01*
X271310Y16668D01*
X271273Y16816D01*
X271236Y16927D01*
X271199Y17002D01*
Y17039D01*
X271013Y17446D01*
X270828Y17742D01*
X270680Y17964D01*
X270643Y18001D01*
X270606Y18039D01*
X270310Y18335D01*
X269976Y18557D01*
X269754Y18705D01*
X269680Y18742D01*
X269643D01*
X269199Y18853D01*
X268754Y18927D01*
X268569Y18964D01*
D02*
G37*
G36*
X109030Y24186D02*
X108845D01*
X108438Y24149D01*
X108067Y24075D01*
X107734Y23964D01*
X107401Y23816D01*
X107141Y23705D01*
X106956Y23593D01*
X106808Y23519D01*
X106771Y23482D01*
X106401Y23186D01*
X106030Y22853D01*
X105697Y22520D01*
X105401Y22186D01*
X105142Y21890D01*
X104919Y21668D01*
X104771Y21520D01*
X104734Y21446D01*
Y15742D01*
X105179Y15224D01*
X105549Y14817D01*
X105660Y14668D01*
X105771Y14520D01*
X105845Y14483D01*
X105882Y14446D01*
X106290Y14076D01*
X106660Y13780D01*
X106808Y13706D01*
X106919Y13632D01*
X106956Y13557D01*
X106993D01*
X107364Y13335D01*
X107697Y13187D01*
X107919Y13113D01*
X107956Y13076D01*
X107993D01*
X108364Y12965D01*
X108697Y12928D01*
X108956Y12891D01*
X109030D01*
X109400Y12928D01*
X109734Y12965D01*
X110030Y13039D01*
X110289Y13113D01*
X110474Y13224D01*
X110623Y13298D01*
X110697Y13335D01*
X110734Y13372D01*
X111215Y13780D01*
X111548Y14187D01*
X111697Y14372D01*
X111771Y14520D01*
X111845Y14631D01*
Y14668D01*
X112104Y15298D01*
X112215Y15594D01*
X112289Y15891D01*
X112363Y16150D01*
X112400Y16335D01*
X112437Y16483D01*
Y16520D01*
X112548Y17298D01*
X112585Y17631D01*
Y17964D01*
X112622Y18224D01*
Y18446D01*
Y18594D01*
Y18631D01*
X112585Y19372D01*
X112548Y19742D01*
X112511Y20038D01*
X112474Y20298D01*
X112437Y20483D01*
X112400Y20631D01*
Y20668D01*
X112215Y21334D01*
X112104Y21668D01*
X111993Y21927D01*
X111882Y22149D01*
X111808Y22297D01*
X111771Y22408D01*
X111734Y22445D01*
X111363Y23001D01*
X111178Y23223D01*
X110993Y23408D01*
X110808Y23556D01*
X110660Y23668D01*
X110585Y23705D01*
X110548Y23742D01*
X110289Y23890D01*
X109993Y24001D01*
X109438Y24112D01*
X109215Y24149D01*
X109030Y24186D01*
D02*
G37*
G36*
X35331Y20000D02*
X30053D01*
Y19482D01*
Y20000D01*
X30516D01*
X30424Y19963D01*
X30331Y19926D01*
X30220Y19870D01*
X30146Y19778D01*
X30072Y19648D01*
X30053Y19482D01*
D01*
D01*
Y19389D01*
X30090Y19315D01*
X30127Y19204D01*
X30183Y19111D01*
X30276Y19019D01*
X30405Y18963D01*
X30590Y18945D01*
X32794D01*
X32924Y18926D01*
X33072Y18889D01*
X33257Y18834D01*
X33442Y18759D01*
X33627Y18648D01*
X33812Y18500D01*
X33831Y18482D01*
X33886Y18408D01*
X33960Y18315D01*
X34053Y18185D01*
X34127Y18019D01*
X34201Y17834D01*
X34257Y17611D01*
X34275Y17371D01*
Y16334D01*
Y16297D01*
Y16223D01*
X34257Y16093D01*
X34220Y15945D01*
X34164Y15760D01*
X34072Y15575D01*
X33960Y15389D01*
X33812Y15204D01*
X33794Y15186D01*
X33738Y15130D01*
X33627Y15056D01*
X33498Y14964D01*
X33331Y14889D01*
X33146Y14815D01*
X32924Y14760D01*
X32683Y14741D01*
X31553D01*
X31461Y14704D01*
X31368Y14667D01*
X31275Y14612D01*
X31183Y14519D01*
X31127Y14389D01*
X31109Y14223D01*
Y14204D01*
Y14130D01*
X31146Y14056D01*
X31183Y13945D01*
X31238Y13852D01*
X31331Y13760D01*
X31461Y13704D01*
X31627Y13686D01*
X32794D01*
X32924Y13667D01*
X33072Y13630D01*
X33257Y13575D01*
X33442Y13501D01*
X33627Y13390D01*
X33812Y13241D01*
X33831Y13223D01*
X33886Y13149D01*
X33960Y13056D01*
X34053Y12927D01*
X34127Y12760D01*
X34201Y12575D01*
X34257Y12353D01*
X34275Y12112D01*
Y12075D01*
Y12001D01*
X34257Y11890D01*
X34220Y11723D01*
X34164Y11556D01*
X34072Y11371D01*
X33960Y11186D01*
X33812Y11001D01*
X33794Y10982D01*
X33738Y10927D01*
X33627Y10853D01*
X33498Y10760D01*
X33331Y10668D01*
X33146Y10594D01*
X32924Y10538D01*
X32683Y10519D01*
X30516D01*
X30424Y10482D01*
X30331Y10445D01*
X30220Y10390D01*
X30146Y10297D01*
X30072Y10168D01*
X30053Y10001D01*
Y9908D01*
X30090Y9834D01*
X30127Y9723D01*
X30183Y9631D01*
X30276Y9538D01*
X30405Y9483D01*
X30590Y9464D01*
X32794D01*
X32868Y9483D01*
X33072Y9501D01*
X33331Y9557D01*
X33627Y9649D01*
X33942Y9797D01*
X34257Y9983D01*
X34553Y10242D01*
X34590Y10279D01*
X34683Y10371D01*
X34794Y10538D01*
X34942Y10760D01*
X35090Y11038D01*
X35201Y11353D01*
X35294Y11723D01*
X35331Y12112D01*
Y11001D01*
Y12242D01*
X35312Y12334D01*
X35294Y12445D01*
X35275Y12575D01*
X35201Y12871D01*
X35071Y13204D01*
X34997Y13371D01*
X34886Y13556D01*
X34757Y13723D01*
X34627Y13908D01*
X34460Y14075D01*
X34275Y14223D01*
X34294D01*
X34312Y14260D01*
X34368Y14297D01*
X34442Y14371D01*
X34609Y14538D01*
X34812Y14778D01*
X34997Y15093D01*
X35164Y15445D01*
X35238Y15649D01*
X35294Y15871D01*
X35312Y16093D01*
X35331Y16334D01*
Y17482D01*
X35312Y17556D01*
X35294Y17759D01*
X35238Y18019D01*
X35145Y18315D01*
X34997Y18611D01*
X34812Y18945D01*
X34553Y19241D01*
X34516Y19278D01*
X34423Y19352D01*
X34257Y19482D01*
X34035Y19611D01*
X33757Y19759D01*
X33442Y19889D01*
X33072Y19963D01*
X32683Y20000D01*
X35331D01*
D01*
D02*
G37*
G36*
X27961D02*
X26906D01*
X27350D01*
X27257Y19963D01*
X27165Y19926D01*
X27072Y19870D01*
X26980Y19778D01*
X26924Y19648D01*
X26906Y19482D01*
D01*
D01*
Y18871D01*
X26943Y18796D01*
X26980Y18685D01*
X27035Y18593D01*
X27128Y18500D01*
X27257Y18445D01*
X27424Y18426D01*
X27517D01*
X27591Y18445D01*
X27702Y18500D01*
X27794Y18556D01*
X27887Y18648D01*
X27943Y18778D01*
X27961Y18963D01*
Y18945D01*
Y19556D01*
X27943Y19648D01*
X27887Y19741D01*
X27831Y19833D01*
X27739Y19926D01*
X27609Y19981D01*
X27424Y20000D01*
X27961D01*
D02*
G37*
G36*
X17425D02*
X16370D01*
X16814D01*
X16721Y19963D01*
X16629Y19926D01*
X16536Y19870D01*
X16444Y19778D01*
X16388Y19648D01*
X16370Y19482D01*
Y18871D01*
X16407Y18796D01*
X16444Y18685D01*
X16499Y18593D01*
X16592Y18500D01*
X16721Y18445D01*
X16888Y18426D01*
X16981D01*
X17055Y18445D01*
X17166Y18500D01*
X17258Y18556D01*
X17351Y18648D01*
X17407Y18778D01*
X17425Y18963D01*
Y19556D01*
X17407Y19648D01*
X17351Y19741D01*
X17295Y19833D01*
X17203Y19926D01*
X17073Y19981D01*
X16888Y20000D01*
X17425D01*
D02*
G37*
G36*
X14259D02*
X8982D01*
X11555D01*
X11481Y19981D01*
X11407Y19944D01*
X11315Y19889D01*
X11241Y19815D01*
X11166Y19722D01*
X11092Y19574D01*
X9018Y13334D01*
Y13316D01*
X9000Y13278D01*
X8982Y13149D01*
Y14760D01*
Y12630D01*
Y13112D01*
X9000Y13019D01*
X9037Y12908D01*
X9130Y12797D01*
X9167Y12779D01*
X9241Y12704D01*
X9370Y12649D01*
X9518Y12630D01*
X9574D01*
X9648Y12649D01*
X9722Y12667D01*
X9796Y12723D01*
X9889Y12779D01*
X9963Y12871D01*
X10018Y13001D01*
X11611Y17815D01*
X13222Y13001D01*
Y12982D01*
X13240Y12945D01*
X13333Y12816D01*
X13388Y12742D01*
X13481Y12686D01*
X13592Y12649D01*
X13722Y12630D01*
X13814D01*
X13888Y12649D01*
X14000Y12686D01*
X14092Y12760D01*
X14185Y12853D01*
X14240Y12982D01*
X14259Y13149D01*
Y13204D01*
X14222Y13334D01*
X12148Y19574D01*
Y19593D01*
X12111Y19648D01*
X12074Y19704D01*
X12018Y19778D01*
X11944Y19870D01*
X11852Y19926D01*
X11740Y19981D01*
X11611Y20000D01*
X14259D01*
D01*
D02*
G37*
G36*
X9518Y12630D02*
D01*
X8982D01*
X9518D01*
D02*
G37*
G36*
X22165Y20000D02*
X19536D01*
X22091D01*
X22017Y19981D01*
X21925Y19963D01*
X21795Y19944D01*
X21647Y19889D01*
X21499Y19833D01*
X21332Y19741D01*
X21147Y19648D01*
X20980Y19519D01*
X20795Y19352D01*
X20610Y19148D01*
X20443Y18926D01*
X20277Y18667D01*
X20110Y18352D01*
X19980Y18000D01*
Y17982D01*
X19962Y17945D01*
X19943Y17852D01*
X19906Y17759D01*
X19869Y17630D01*
X19832Y17463D01*
X19795Y17278D01*
X19758Y17074D01*
X19721Y16852D01*
X19684Y16593D01*
X19647Y16334D01*
X19610Y16037D01*
X19555Y15426D01*
X19536Y14741D01*
Y14426D01*
X19555Y14260D01*
Y14075D01*
X19573Y13852D01*
X19591Y13630D01*
X19647Y13112D01*
X19721Y12575D01*
X19832Y12019D01*
X19980Y11482D01*
Y11464D01*
X20017Y11390D01*
X20054Y11297D01*
X20110Y11168D01*
X20184Y11020D01*
X20277Y10834D01*
X20517Y10464D01*
X20814Y10094D01*
X20999Y9927D01*
X21184Y9779D01*
X21406Y9649D01*
X21647Y9557D01*
X21888Y9483D01*
X22165Y9464D01*
X19536D01*
X24795D01*
X22239D01*
X22313Y9483D01*
X22406Y9501D01*
X22536Y9520D01*
X22665Y9575D01*
X22832Y9631D01*
X22999Y9723D01*
X23165Y9816D01*
X23350Y9964D01*
X23517Y10112D01*
X23702Y10316D01*
X23869Y10538D01*
X24035Y10816D01*
X24202Y11131D01*
X24332Y11482D01*
Y11501D01*
X24350Y11538D01*
X24369Y11612D01*
X24406Y11723D01*
X24443Y11853D01*
X24480Y12019D01*
X24517Y12205D01*
X24573Y12408D01*
X24609Y12630D01*
X24646Y12871D01*
X24684Y13149D01*
X24721Y13427D01*
X24776Y14056D01*
X24795Y14741D01*
Y15056D01*
X24776Y15223D01*
Y15408D01*
X24758Y15630D01*
X24739Y15852D01*
X24684Y16371D01*
X24591Y16908D01*
X24480Y17463D01*
X24332Y18000D01*
Y18019D01*
X24295Y18093D01*
X24258Y18185D01*
X24202Y18315D01*
X24128Y18463D01*
X24035Y18630D01*
X23813Y19000D01*
X23498Y19370D01*
X23332Y19537D01*
X23128Y19685D01*
X22924Y19815D01*
X22684Y19907D01*
X22443Y19981D01*
X22165Y20000D01*
D02*
G37*
%LPD*%
G36*
X22313Y18908D02*
X22462Y18852D01*
X22554Y18796D01*
X22647Y18722D01*
X22758Y18630D01*
X22869Y18519D01*
X22961Y18370D01*
X23073Y18204D01*
X23165Y18019D01*
X23276Y17778D01*
X23369Y17519D01*
X23443Y17204D01*
Y17185D01*
X23461Y17148D01*
X23480Y17093D01*
X23498Y17000D01*
X23517Y16889D01*
X23535Y16760D01*
X23591Y16463D01*
X23647Y16093D01*
X23702Y15667D01*
X23721Y15223D01*
X23739Y14741D01*
Y14723D01*
Y14686D01*
Y14612D01*
Y14519D01*
Y14408D01*
X23721Y14260D01*
X23702Y13945D01*
X23665Y13556D01*
X23610Y13149D01*
X23535Y12704D01*
X23443Y12279D01*
Y12260D01*
X23424Y12205D01*
X23406Y12112D01*
X23369Y12001D01*
X23313Y11871D01*
X23276Y11723D01*
X23128Y11390D01*
X22961Y11075D01*
X22850Y10927D01*
X22739Y10797D01*
X22610Y10686D01*
X22462Y10594D01*
X22332Y10538D01*
X22165Y10519D01*
X22128D01*
X22017Y10538D01*
X21869Y10612D01*
X21776Y10668D01*
X21684Y10742D01*
X21573Y10834D01*
X21462Y10945D01*
X21351Y11093D01*
X21258Y11260D01*
X21147Y11464D01*
X21054Y11705D01*
X20962Y11964D01*
X20869Y12279D01*
Y12297D01*
X20851Y12334D01*
Y12390D01*
X20832Y12482D01*
X20814Y12593D01*
X20777Y12723D01*
X20740Y13038D01*
X20684Y13408D01*
X20628Y13815D01*
X20610Y14260D01*
X20591Y14741D01*
Y14760D01*
Y14797D01*
Y14871D01*
Y14964D01*
Y15075D01*
X20610Y15204D01*
X20628Y15538D01*
X20666Y15908D01*
X20703Y16334D01*
X20777Y16760D01*
X20869Y17204D01*
Y17222D01*
X20888Y17278D01*
X20906Y17371D01*
X20943Y17482D01*
X20999Y17611D01*
X21054Y17759D01*
X21184Y18074D01*
X21369Y18389D01*
X21480Y18537D01*
X21591Y18667D01*
X21721Y18778D01*
X21851Y18871D01*
X21999Y18926D01*
X22165Y18945D01*
X22202D01*
X22313Y18908D01*
D02*
G37*
%LPC*%
G36*
X157777Y137000D02*
X155336D01*
X155281Y136986D01*
X155128Y136972D01*
X154934Y136931D01*
X154712Y136861D01*
X154490Y136764D01*
X154241Y136626D01*
X154019Y136431D01*
X153991Y136404D01*
X153935Y136320D01*
X153838Y136209D01*
X153741Y136043D01*
X153630Y135835D01*
X153533Y135599D01*
X153478Y135322D01*
X153450Y135031D01*
Y129109D01*
X158179D01*
D01*
X157846D01*
X157902Y129123D01*
X157985Y129164D01*
X158054Y129206D01*
X158124Y129275D01*
X158165Y129372D01*
X158179Y129511D01*
Y129566D01*
X158165Y129636D01*
X158124Y129705D01*
X158082Y129775D01*
X158013Y129844D01*
X157916Y129886D01*
X157777Y129899D01*
X155336D01*
X155239Y129913D01*
X155128Y129941D01*
X154989Y129983D01*
X154851Y130052D01*
X154712Y130135D01*
X154573Y130246D01*
X154559Y130260D01*
X154518Y130302D01*
X154462Y130385D01*
X154407Y130482D01*
X154351Y130607D01*
X154296Y130745D01*
X154254Y130912D01*
X154241Y131092D01*
Y135031D01*
Y135058D01*
Y135114D01*
X154254Y135211D01*
X154282Y135322D01*
X154324Y135461D01*
X154379Y135599D01*
X154462Y135738D01*
X154573Y135877D01*
X154587Y135891D01*
X154643Y135932D01*
X154712Y135988D01*
X154809Y136043D01*
X154934Y136099D01*
X155073Y136154D01*
X155239Y136196D01*
X155419Y136209D01*
X157389D01*
Y133061D01*
X156543D01*
X156473Y133034D01*
X156404Y133006D01*
X156321Y132964D01*
X156265Y132895D01*
X156210Y132798D01*
X156196Y132673D01*
Y132659D01*
Y132604D01*
X156224Y132548D01*
X156251Y132465D01*
X156293Y132396D01*
X156362Y132326D01*
X156459Y132285D01*
X156598Y132271D01*
X157846D01*
X157902Y132285D01*
X157985Y132326D01*
X158054Y132368D01*
X158124Y132437D01*
X158165Y132534D01*
X158179Y132673D01*
Y136667D01*
X158165Y136736D01*
X158124Y136806D01*
X158082Y136875D01*
X158013Y136945D01*
X157916Y136986D01*
X157777Y137000D01*
D02*
G37*
G36*
X138847D02*
X135310D01*
X135643D01*
X135574Y136972D01*
X135504Y136945D01*
X135435Y136903D01*
X135366Y136834D01*
X135324Y136736D01*
X135310Y136612D01*
Y129109D01*
Y129442D01*
X135338Y129386D01*
X135366Y129303D01*
X135407Y129234D01*
X135477Y129164D01*
X135574Y129123D01*
X135698Y129109D01*
X139249D01*
Y129178D01*
Y129109D01*
X138916D01*
X138971Y129123D01*
X139055Y129164D01*
X139124Y129206D01*
X139193Y129275D01*
X139235Y129372D01*
X139249Y129511D01*
Y129178D01*
Y129511D01*
D01*
Y129566D01*
X139235Y129636D01*
X139193Y129705D01*
X139152Y129775D01*
X139082Y129844D01*
X138985Y129886D01*
X138847Y129899D01*
X136101D01*
Y132271D01*
X138125D01*
X138195Y132285D01*
X138264Y132326D01*
X138333Y132368D01*
X138403Y132437D01*
X138444Y132534D01*
X138458Y132673D01*
Y132687D01*
Y132729D01*
X138444Y132798D01*
X138417Y132867D01*
X138361Y132937D01*
X138292Y133006D01*
X138195Y133048D01*
X138070Y133061D01*
X136101D01*
Y136209D01*
X138916D01*
X138971Y136223D01*
X139055Y136265D01*
X139124Y136307D01*
X139193Y136376D01*
X139235Y136473D01*
X139249Y136612D01*
Y136667D01*
X139235Y136736D01*
X139193Y136806D01*
X139152Y136875D01*
X139082Y136945D01*
X138985Y136986D01*
X138847Y137000D01*
D02*
G37*
G36*
X149497D02*
X149324D01*
X149400D01*
X149331Y136986D01*
X149248Y136972D01*
X149151Y136958D01*
X148915Y136917D01*
X148652Y136834D01*
X148374Y136709D01*
X148236Y136639D01*
X148097Y136542D01*
X147958Y136445D01*
X147819Y136320D01*
X147806Y136307D01*
X147792Y136293D01*
X147764Y136251D01*
X147709Y136196D01*
X147667Y136126D01*
X147611Y136043D01*
X147487Y135849D01*
X147362Y135599D01*
X147251Y135322D01*
X147168Y135003D01*
X147154Y134823D01*
X147140Y134642D01*
Y129456D01*
X147168Y129400D01*
X147195Y129317D01*
X147237Y129248D01*
X147306Y129178D01*
X147403Y129137D01*
X147528Y129123D01*
X147140D01*
D01*
X151869D01*
X151536D01*
X151592Y129137D01*
X151675Y129178D01*
X151744Y129220D01*
X151813Y129289D01*
X151855Y129386D01*
X151869Y129525D01*
Y134740D01*
X151855Y134809D01*
Y134892D01*
X151827Y134989D01*
X151786Y135225D01*
X151703Y135488D01*
X151578Y135766D01*
X151495Y135904D01*
X151411Y136043D01*
X151300Y136182D01*
X151176Y136320D01*
X151162Y136334D01*
X151148Y136348D01*
X151106Y136376D01*
X151051Y136431D01*
X150981Y136473D01*
X150898Y136529D01*
X150704Y136653D01*
X150468Y136778D01*
X150177Y136889D01*
X149858Y136972D01*
X149678Y136986D01*
X149497Y137000D01*
D02*
G37*
G36*
X145573Y129109D02*
X143650D01*
X145573D01*
D01*
D02*
G37*
G36*
X143201Y137000D02*
X140830D01*
X141163D01*
X141093Y136972D01*
X141024Y136945D01*
X140955Y136903D01*
X140885Y136834D01*
X140844Y136736D01*
X140830Y136612D01*
Y129109D01*
Y129442D01*
X140857Y129386D01*
X140885Y129303D01*
X140927Y129234D01*
X140996Y129164D01*
X141093Y129123D01*
X141218Y129109D01*
X143271D01*
D01*
X143650D01*
X143271D01*
X143326Y129123D01*
X143479Y129137D01*
X143673Y129178D01*
X143895Y129248D01*
X144130Y129359D01*
X144366Y129497D01*
X144588Y129691D01*
X144616Y129719D01*
X144685Y129788D01*
X144768Y129913D01*
X144879Y130080D01*
X144990Y130288D01*
X145073Y130524D01*
X145143Y130787D01*
X145171Y131092D01*
Y131106D01*
Y131134D01*
Y131189D01*
X145157Y131245D01*
X145143Y131328D01*
X145129Y131425D01*
X145073Y131633D01*
X144990Y131883D01*
X144865Y132132D01*
X144782Y132271D01*
X144685Y132396D01*
X144560Y132521D01*
X144436Y132632D01*
X144449Y132645D01*
X144491Y132659D01*
X144546Y132701D01*
X144616Y132756D01*
X144699Y132826D01*
X144796Y132909D01*
X144893Y133020D01*
X145004Y133131D01*
X145115Y133269D01*
X145212Y133408D01*
X145309Y133574D01*
X145392Y133755D01*
X145462Y133963D01*
X145531Y134171D01*
X145559Y134393D01*
X145573Y134642D01*
Y134740D01*
X145559Y134809D01*
X145545Y134892D01*
X145531Y134989D01*
X145490Y135225D01*
X145406Y135488D01*
X145281Y135766D01*
X145198Y135904D01*
X145101Y136043D01*
X144990Y136182D01*
X144865Y136320D01*
X144852Y136334D01*
X144838Y136348D01*
X144796Y136376D01*
X144741Y136431D01*
X144602Y136529D01*
X144394Y136653D01*
X144158Y136778D01*
X143867Y136889D01*
X143548Y136972D01*
X143382Y136986D01*
X143201Y137000D01*
D02*
G37*
G36*
X131746D02*
X129333D01*
X129263Y136972D01*
X129194Y136945D01*
X129125Y136903D01*
X129056Y136834D01*
X129014Y136736D01*
X129000Y136612D01*
Y129109D01*
X133729D01*
D01*
X131829D01*
X131885Y129123D01*
X132037Y129137D01*
X132231Y129178D01*
X132453Y129248D01*
X132689Y129359D01*
X132925Y129497D01*
X133147Y129691D01*
X133174Y129719D01*
X133244Y129788D01*
X133327Y129913D01*
X133438Y130080D01*
X133549Y130288D01*
X133632Y130524D01*
X133701Y130787D01*
X133729Y131092D01*
Y135114D01*
D01*
X133715Y135169D01*
X133701Y135322D01*
X133660Y135516D01*
X133590Y135738D01*
X133479Y135960D01*
X133341Y136209D01*
X133147Y136431D01*
X133119Y136459D01*
X133050Y136515D01*
X132925Y136612D01*
X132758Y136709D01*
X132550Y136820D01*
X132315Y136917D01*
X132037Y136972D01*
X131746Y137000D01*
D02*
G37*
%LPD*%
G36*
X153464Y130953D02*
X153478Y130801D01*
X153519Y130607D01*
X153589Y130385D01*
X153686Y130149D01*
X153824Y129913D01*
X154019Y129691D01*
X154046Y129664D01*
X154129Y129594D01*
X154241Y129511D01*
X154407Y129400D01*
X154615Y129289D01*
X154851Y129206D01*
X155128Y129137D01*
X155419Y129109D01*
X153450D01*
Y131009D01*
X153464Y130953D01*
D02*
G37*
G36*
X149608Y136196D02*
X149733Y136182D01*
X149886Y136154D01*
X150066Y136099D01*
X150246Y136015D01*
X150441Y135918D01*
X150621Y135766D01*
X150635Y135738D01*
X150690Y135682D01*
X150759Y135585D01*
X150857Y135447D01*
X150940Y135294D01*
X151009Y135100D01*
X151065Y134878D01*
X151079Y134642D01*
Y129525D01*
Y129511D01*
Y129456D01*
X151106Y129400D01*
X151134Y129317D01*
X151176Y129248D01*
X151245Y129178D01*
X151342Y129137D01*
X151467Y129123D01*
X147598D01*
X147653Y129137D01*
X147736Y129178D01*
X147806Y129220D01*
X147875Y129289D01*
X147916Y129386D01*
X147930Y129525D01*
Y134642D01*
Y134656D01*
Y134670D01*
X147944Y134753D01*
X147958Y134878D01*
X147986Y135031D01*
X148041Y135211D01*
X148125Y135391D01*
X148222Y135585D01*
X148374Y135766D01*
X148402Y135780D01*
X148457Y135835D01*
X148554Y135904D01*
X148693Y135988D01*
X148846Y136071D01*
X149040Y136140D01*
X149262Y136196D01*
X149497Y136209D01*
X149525D01*
X149608Y136196D01*
D02*
G37*
G36*
X143312D02*
X143437Y136182D01*
X143590Y136154D01*
X143756Y136099D01*
X143950Y136015D01*
X144130Y135918D01*
X144311Y135766D01*
X144325Y135738D01*
X144380Y135682D01*
X144463Y135585D01*
X144546Y135447D01*
X144630Y135294D01*
X144713Y135100D01*
X144768Y134878D01*
X144782Y134642D01*
Y134628D01*
Y134615D01*
Y134531D01*
X144754Y134407D01*
X144727Y134254D01*
X144671Y134074D01*
X144588Y133893D01*
X144463Y133699D01*
X144311Y133519D01*
X144297Y133505D01*
X144228Y133450D01*
X144130Y133380D01*
X144006Y133283D01*
X143839Y133200D01*
X143645Y133131D01*
X143437Y133075D01*
X143201Y133061D01*
X141620D01*
Y136209D01*
X143229D01*
X143312Y136196D01*
D02*
G37*
G36*
X143368Y132257D02*
X143479Y132229D01*
X143617Y132188D01*
X143756Y132118D01*
X143895Y132035D01*
X144033Y131924D01*
X144047Y131910D01*
X144089Y131869D01*
X144144Y131785D01*
X144214Y131688D01*
X144269Y131564D01*
X144325Y131425D01*
X144366Y131272D01*
X144380Y131092D01*
Y131064D01*
Y131009D01*
X144366Y130926D01*
X144338Y130801D01*
X144297Y130676D01*
X144228Y130537D01*
X144144Y130399D01*
X144033Y130260D01*
X144019Y130246D01*
X143978Y130204D01*
X143895Y130149D01*
X143798Y130080D01*
X143673Y130010D01*
X143534Y129955D01*
X143368Y129913D01*
X143187Y129899D01*
X141620D01*
Y132271D01*
X143271D01*
X143368Y132257D01*
D02*
G37*
G36*
X131926Y136196D02*
X132037Y136168D01*
X132176Y136126D01*
X132315Y136071D01*
X132453Y135988D01*
X132592Y135877D01*
X132606Y135863D01*
X132647Y135807D01*
X132703Y135738D01*
X132772Y135641D01*
X132828Y135516D01*
X132883Y135377D01*
X132925Y135211D01*
X132939Y135031D01*
Y131092D01*
Y131064D01*
Y131009D01*
X132925Y130912D01*
X132897Y130801D01*
X132855Y130662D01*
X132786Y130524D01*
X132703Y130385D01*
X132592Y130246D01*
X132578Y130232D01*
X132536Y130191D01*
X132453Y130135D01*
X132356Y130066D01*
X132231Y130010D01*
X132093Y129955D01*
X131926Y129913D01*
X131746Y129899D01*
X129790D01*
Y136209D01*
X131829D01*
X131926Y136196D01*
D02*
G37*
G36*
X129028Y129386D02*
X129056Y129303D01*
X129097Y129234D01*
X129166Y129164D01*
X129263Y129123D01*
X129388Y129109D01*
X129000D01*
Y129442D01*
X129028Y129386D01*
D02*
G37*
D10*
X127350Y73400D02*
Y108400D01*
Y113400D01*
X132190Y118400D01*
X152510D02*
X157350Y113400D01*
Y108400D02*
Y113400D01*
Y73400D02*
Y108400D01*
M02*
