G04*
G04 #@! TF.GenerationSoftware,Altium Limited,Altium Designer,21.6.4 (81)*
G04*
G04 Layer_Color=65535*
%FSLAX44Y44*%
%MOMM*%
G71*
G04*
G04 #@! TF.SameCoordinates,036B5A74-53F7-47AD-A214-E4BF2A679DD1*
G04*
G04*
G04 #@! TF.FilePolarity,Positive*
G04*
G01*
G75*
%ADD10C,0.2000*%
%ADD11C,0.1270*%
%ADD12C,0.0000*%
%ADD13C,0.2500*%
%ADD14C,0.5000*%
%ADD15C,0.5000*%
G36*
X281800Y61900D02*
X289000Y61900D01*
X281800Y69100D01*
X281800Y61900D01*
D02*
G37*
G36*
X110406Y14499D02*
X110517Y14443D01*
X110610Y14388D01*
X110702Y14295D01*
X110758Y14166D01*
X110776Y13980D01*
Y4518D01*
Y4500D01*
Y4444D01*
X110758Y4352D01*
X110702Y4259D01*
X110646Y4167D01*
X110554Y4074D01*
X110424Y4018D01*
X110239Y4000D01*
X110165D01*
X110072Y4037D01*
X109980Y4074D01*
X109887Y4130D01*
X109795Y4222D01*
X109739Y4352D01*
X109721Y4518D01*
Y12721D01*
X108499Y11499D01*
X108480Y11481D01*
X108406Y11425D01*
X108276Y11370D01*
X108128Y11351D01*
X108054D01*
X107962Y11388D01*
X107869Y11425D01*
X107776Y11481D01*
X107684Y11573D01*
X107628Y11703D01*
X107610Y11869D01*
Y11888D01*
Y11907D01*
X107628Y11999D01*
X107665Y12129D01*
X107758Y12240D01*
X109813Y14295D01*
X109832Y14314D01*
X109850Y14332D01*
X109943Y14406D01*
X110072Y14480D01*
X110165Y14517D01*
X110332D01*
X110406Y14499D01*
D02*
G37*
G36*
X105147D02*
X105258Y14443D01*
X105351Y14388D01*
X105443Y14295D01*
X105499Y14166D01*
X105517Y13980D01*
Y4518D01*
Y4500D01*
Y4444D01*
X105499Y4352D01*
X105443Y4259D01*
X105388Y4167D01*
X105295Y4074D01*
X105166Y4018D01*
X104980Y4000D01*
X104906D01*
X104814Y4037D01*
X104721Y4074D01*
X104629Y4130D01*
X104536Y4222D01*
X104480Y4352D01*
X104462Y4518D01*
Y12721D01*
X103240Y11499D01*
X103221Y11481D01*
X103147Y11425D01*
X103018Y11370D01*
X102870Y11351D01*
X102795D01*
X102703Y11388D01*
X102610Y11425D01*
X102518Y11481D01*
X102425Y11573D01*
X102370Y11703D01*
X102351Y11869D01*
Y11888D01*
Y11907D01*
X102370Y11999D01*
X102407Y12129D01*
X102499Y12240D01*
X104555Y14295D01*
X104573Y14314D01*
X104592Y14332D01*
X104684Y14406D01*
X104814Y14480D01*
X104906Y14517D01*
X105073D01*
X105147Y14499D01*
D02*
G37*
G36*
X99888Y14517D02*
X100000Y14462D01*
X100092Y14406D01*
X100185Y14314D01*
X100240Y14184D01*
X100259Y13999D01*
Y13980D01*
Y13925D01*
X100240Y13832D01*
X100185Y13740D01*
X100129Y13647D01*
X100036Y13555D01*
X99907Y13499D01*
X99722Y13480D01*
X97518D01*
X97389Y13462D01*
X97240Y13425D01*
X97055Y13369D01*
X96870Y13277D01*
X96685Y13166D01*
X96500Y13018D01*
X96481Y12999D01*
X96426Y12944D01*
X96352Y12832D01*
X96278Y12703D01*
X96204Y12536D01*
X96130Y12351D01*
X96074Y12129D01*
X96055Y11888D01*
Y6629D01*
Y6592D01*
Y6518D01*
X96074Y6389D01*
X96111Y6241D01*
X96166Y6055D01*
X96241Y5870D01*
X96352Y5685D01*
X96500Y5500D01*
X96518Y5481D01*
X96592Y5426D01*
X96685Y5352D01*
X96815Y5278D01*
X96981Y5204D01*
X97166Y5130D01*
X97389Y5074D01*
X97629Y5055D01*
X99814D01*
X99888Y5037D01*
X100000Y4981D01*
X100092Y4926D01*
X100185Y4833D01*
X100240Y4704D01*
X100259Y4518D01*
Y4500D01*
Y4444D01*
X100240Y4352D01*
X100185Y4259D01*
X100129Y4167D01*
X100036Y4074D01*
X99907Y4018D01*
X99722Y4000D01*
X97518D01*
X97444Y4018D01*
X97240Y4037D01*
X96981Y4093D01*
X96685Y4185D01*
X96389Y4315D01*
X96055Y4500D01*
X95759Y4759D01*
X95722Y4796D01*
X95648Y4907D01*
X95519Y5055D01*
X95389Y5278D01*
X95241Y5555D01*
X95111Y5870D01*
X95037Y6241D01*
X95000Y6629D01*
Y11888D01*
Y11907D01*
Y11944D01*
Y11999D01*
X95019Y12073D01*
X95037Y12277D01*
X95093Y12536D01*
X95185Y12832D01*
X95315Y13147D01*
X95500Y13462D01*
X95759Y13758D01*
X95796Y13795D01*
X95907Y13888D01*
X96055Y13999D01*
X96278Y14147D01*
X96555Y14295D01*
X96870Y14406D01*
X97240Y14499D01*
X97629Y14536D01*
X99814D01*
X99888Y14517D01*
D02*
G37*
G36*
X523370Y101240D02*
X523481Y101185D01*
X523574Y101129D01*
X523666Y101037D01*
X523722Y100907D01*
X523740Y100722D01*
Y91260D01*
Y91241D01*
Y91186D01*
X523722Y91093D01*
X523666Y91000D01*
X523611Y90908D01*
X523518Y90815D01*
X523388Y90760D01*
X523203Y90741D01*
X523129D01*
X523037Y90778D01*
X522944Y90815D01*
X522851Y90871D01*
X522759Y90963D01*
X522703Y91093D01*
X522685Y91260D01*
Y99463D01*
X521463Y98240D01*
X521444Y98222D01*
X521370Y98167D01*
X521241Y98111D01*
X521092Y98092D01*
X521018D01*
X520926Y98129D01*
X520833Y98167D01*
X520741Y98222D01*
X520648Y98315D01*
X520592Y98444D01*
X520574Y98611D01*
Y98629D01*
Y98648D01*
X520592Y98741D01*
X520630Y98870D01*
X520722Y98981D01*
X522777Y101037D01*
X522796Y101055D01*
X522814Y101074D01*
X522907Y101148D01*
X523037Y101222D01*
X523129Y101259D01*
X523296D01*
X523370Y101240D01*
D02*
G37*
G36*
X518111D02*
X518222Y101185D01*
X518315Y101129D01*
X518408Y101037D01*
X518463Y100907D01*
X518481Y100722D01*
Y93371D01*
Y93352D01*
Y93315D01*
Y93260D01*
X518463Y93186D01*
X518445Y92982D01*
X518389Y92723D01*
X518296Y92426D01*
X518148Y92112D01*
X517963Y91797D01*
X517704Y91501D01*
X517667Y91463D01*
X517574Y91389D01*
X517408Y91260D01*
X517185Y91130D01*
X516908Y90982D01*
X516593Y90852D01*
X516222Y90778D01*
X515834Y90741D01*
X514704D01*
X514612Y90778D01*
X514519Y90815D01*
X514426Y90871D01*
X514334Y90963D01*
X514278Y91093D01*
X514260Y91260D01*
Y91278D01*
Y91352D01*
X514297Y91426D01*
X514334Y91538D01*
X514389Y91630D01*
X514482Y91723D01*
X514612Y91778D01*
X514778Y91797D01*
X515945D01*
X516074Y91815D01*
X516222Y91852D01*
X516408Y91908D01*
X516593Y91982D01*
X516778Y92093D01*
X516963Y92241D01*
X516982Y92260D01*
X517037Y92334D01*
X517111Y92426D01*
X517204Y92556D01*
X517278Y92723D01*
X517352Y92908D01*
X517408Y93130D01*
X517426Y93371D01*
Y100722D01*
Y100740D01*
Y100814D01*
X517463Y100888D01*
X517500Y100999D01*
X517556Y101092D01*
X517648Y101185D01*
X517778Y101240D01*
X517945Y101259D01*
X518037D01*
X518111Y101240D01*
D02*
G37*
G36*
X64093Y143250D02*
X64260Y143231D01*
X64464Y143212D01*
X64686Y143194D01*
X65130Y143120D01*
X65612Y143027D01*
X66056Y142879D01*
X66278Y142787D01*
X66463Y142676D01*
X66482D01*
X66519Y142638D01*
X66630Y142546D01*
X66723Y142398D01*
X66760Y142305D01*
X66778Y142212D01*
Y142194D01*
Y142176D01*
X66760Y142083D01*
X66704Y141953D01*
X66612Y141824D01*
X66593Y141805D01*
X66519Y141750D01*
X66408Y141694D01*
X66260Y141676D01*
X66204D01*
X66112Y141694D01*
X66019Y141731D01*
X66000D01*
X65964Y141750D01*
X65908Y141768D01*
X65815Y141805D01*
X65704Y141842D01*
X65575Y141879D01*
X65278Y141972D01*
X64908Y142064D01*
X64501Y142139D01*
X64075Y142194D01*
X63630Y142212D01*
X63519D01*
X63390Y142194D01*
X63242Y142157D01*
X63056Y142101D01*
X62871Y142009D01*
X62686Y141898D01*
X62501Y141750D01*
X62482Y141731D01*
X62427Y141676D01*
X62353Y141565D01*
X62279Y141435D01*
X62205Y141268D01*
X62131Y141083D01*
X62075Y140861D01*
X62056Y140620D01*
Y140602D01*
Y140583D01*
X62075Y140472D01*
X62094Y140287D01*
X62168Y140083D01*
X62260Y139861D01*
X62408Y139620D01*
X62631Y139398D01*
X62760Y139305D01*
X62908Y139213D01*
X65871Y137695D01*
X65889D01*
X65926Y137657D01*
X66000Y137620D01*
X66093Y137546D01*
X66334Y137380D01*
X66463Y137269D01*
X66593Y137121D01*
X66723Y136972D01*
X66852Y136806D01*
X66982Y136602D01*
X67093Y136398D01*
X67186Y136176D01*
X67260Y135917D01*
X67297Y135658D01*
X67315Y135361D01*
Y135343D01*
Y135306D01*
Y135250D01*
X67297Y135176D01*
X67278Y134973D01*
X67223Y134713D01*
X67130Y134417D01*
X66982Y134121D01*
X66797Y133787D01*
X66537Y133491D01*
X66501Y133454D01*
X66408Y133380D01*
X66241Y133251D01*
X66019Y133121D01*
X65741Y132973D01*
X65427Y132843D01*
X65056Y132769D01*
X64667Y132732D01*
X64482D01*
X64334Y132751D01*
X64167Y132769D01*
X63982Y132788D01*
X63760Y132825D01*
X63501Y132880D01*
X62964Y133010D01*
X62686Y133102D01*
X62390Y133214D01*
X62094Y133343D01*
X61797Y133510D01*
X61501Y133676D01*
X61223Y133880D01*
X61186Y133917D01*
X61112Y133991D01*
X61038Y134139D01*
X61020Y134213D01*
X61001Y134306D01*
Y134325D01*
Y134343D01*
X61020Y134436D01*
X61057Y134565D01*
X61149Y134676D01*
X61168Y134695D01*
X61260Y134750D01*
X61371Y134806D01*
X61519Y134824D01*
X61538D01*
X61612Y134806D01*
X61705Y134787D01*
X61816Y134732D01*
X61834Y134713D01*
X61908Y134676D01*
X62020Y134621D01*
X62168Y134547D01*
X62371Y134436D01*
X62631Y134306D01*
X62927Y134176D01*
X63279Y134010D01*
X63316D01*
X63390Y133973D01*
X63519Y133936D01*
X63686Y133899D01*
X63890Y133862D01*
X64130Y133825D01*
X64390Y133806D01*
X64667Y133787D01*
X64778D01*
X64908Y133806D01*
X65056Y133843D01*
X65241Y133899D01*
X65427Y133991D01*
X65612Y134102D01*
X65797Y134250D01*
X65815Y134269D01*
X65871Y134325D01*
X65945Y134436D01*
X66038Y134565D01*
X66112Y134732D01*
X66186Y134917D01*
X66241Y135121D01*
X66260Y135361D01*
Y135380D01*
Y135398D01*
X66241Y135528D01*
X66223Y135695D01*
X66149Y135898D01*
X66038Y136121D01*
X65889Y136361D01*
X65667Y136583D01*
X65519Y136676D01*
X65371Y136769D01*
X62427Y138287D01*
X62408Y138306D01*
X62371Y138324D01*
X62297Y138361D01*
X62205Y138435D01*
X61982Y138602D01*
X61853Y138731D01*
X61723Y138861D01*
X61575Y139009D01*
X61445Y139176D01*
X61334Y139380D01*
X61223Y139583D01*
X61131Y139805D01*
X61057Y140065D01*
X61020Y140324D01*
X61001Y140620D01*
Y140639D01*
Y140676D01*
Y140731D01*
X61020Y140805D01*
X61038Y141009D01*
X61094Y141268D01*
X61186Y141565D01*
X61316Y141879D01*
X61501Y142194D01*
X61760Y142490D01*
X61797Y142527D01*
X61908Y142620D01*
X62056Y142731D01*
X62279Y142879D01*
X62556Y143027D01*
X62871Y143138D01*
X63242Y143231D01*
X63630Y143268D01*
X63927D01*
X64093Y143250D01*
D02*
G37*
G36*
X80629Y143231D02*
X80740Y143175D01*
X80832Y143120D01*
X80925Y143027D01*
X80981Y142898D01*
X80999Y142712D01*
Y133251D01*
Y133232D01*
Y133176D01*
X80981Y133084D01*
X80925Y132991D01*
X80869Y132899D01*
X80777Y132806D01*
X80647Y132751D01*
X80462Y132732D01*
X80388D01*
X80295Y132769D01*
X80203Y132806D01*
X80110Y132862D01*
X80018Y132954D01*
X79962Y133084D01*
X79943Y133251D01*
Y141453D01*
X78721Y140231D01*
X78703Y140213D01*
X78629Y140157D01*
X78499Y140102D01*
X78351Y140083D01*
X78277D01*
X78184Y140120D01*
X78092Y140157D01*
X77999Y140213D01*
X77907Y140305D01*
X77851Y140435D01*
X77833Y140602D01*
Y140620D01*
Y140639D01*
X77851Y140731D01*
X77888Y140861D01*
X77981Y140972D01*
X80036Y143027D01*
X80055Y143046D01*
X80073Y143064D01*
X80166Y143138D01*
X80295Y143212D01*
X80388Y143250D01*
X80555D01*
X80629Y143231D01*
D02*
G37*
G36*
X72759Y143250D02*
X72963Y143231D01*
X73222Y143175D01*
X73518Y143083D01*
X73833Y142935D01*
X74148Y142750D01*
X74444Y142490D01*
X74481Y142453D01*
X74574Y142361D01*
X74685Y142194D01*
X74833Y141972D01*
X74981Y141694D01*
X75092Y141379D01*
X75185Y141027D01*
X75222Y140620D01*
Y140602D01*
Y140565D01*
Y140491D01*
X75203Y140416D01*
X75185Y140305D01*
X75166Y140176D01*
X75092Y139898D01*
X74981Y139565D01*
X74814Y139231D01*
X74703Y139046D01*
X74574Y138880D01*
X74407Y138713D01*
X74240Y138565D01*
X74259Y138546D01*
X74314Y138528D01*
X74388Y138472D01*
X74481Y138398D01*
X74592Y138306D01*
X74722Y138194D01*
X74851Y138046D01*
X75000Y137898D01*
X75148Y137713D01*
X75277Y137528D01*
X75407Y137306D01*
X75518Y137065D01*
X75611Y136787D01*
X75703Y136509D01*
X75740Y136213D01*
X75759Y135880D01*
Y135861D01*
Y135824D01*
Y135750D01*
X75740Y135658D01*
X75722Y135547D01*
X75703Y135417D01*
X75648Y135102D01*
X75537Y134750D01*
X75370Y134380D01*
X75259Y134195D01*
X75129Y134010D01*
X74981Y133825D01*
X74814Y133639D01*
X74796Y133621D01*
X74777Y133602D01*
X74722Y133565D01*
X74648Y133491D01*
X74463Y133362D01*
X74185Y133195D01*
X73870Y133028D01*
X73481Y132880D01*
X73055Y132769D01*
X72833Y132751D01*
X72592Y132732D01*
X69871D01*
X69778Y132769D01*
X69685Y132806D01*
X69593Y132862D01*
X69500Y132954D01*
X69445Y133084D01*
X69426Y133251D01*
Y142731D01*
Y142750D01*
Y142824D01*
X69463Y142898D01*
X69500Y143009D01*
X69556Y143101D01*
X69648Y143194D01*
X69778Y143250D01*
X69945Y143268D01*
X72685D01*
X72759Y143250D01*
D02*
G37*
G36*
X299925Y12222D02*
X300129Y12203D01*
X300370Y12148D01*
X300666Y12055D01*
X300981Y11907D01*
X301295Y11722D01*
X301592Y11463D01*
X301629Y11426D01*
X301721Y11333D01*
X301832Y11166D01*
X301980Y10944D01*
X302129Y10666D01*
X302240Y10352D01*
X302332Y10000D01*
X302369Y9611D01*
Y9592D01*
Y9555D01*
Y9481D01*
X302351Y9389D01*
X302332Y9278D01*
X302314Y9148D01*
X302240Y8852D01*
X302110Y8518D01*
X302036Y8352D01*
X301925Y8167D01*
X301795Y8000D01*
X301666Y7815D01*
X301499Y7648D01*
X301314Y7500D01*
X301351Y7481D01*
X301444Y7389D01*
X301573Y7278D01*
X301721Y7111D01*
X301888Y6908D01*
X302036Y6667D01*
X302184Y6389D01*
X302277Y6093D01*
Y6074D01*
X302295Y6000D01*
X302314Y5889D01*
X302332Y5723D01*
Y5482D01*
X302351Y5185D01*
X302369Y5000D01*
Y4797D01*
Y4593D01*
Y4352D01*
Y4334D01*
Y4297D01*
Y4241D01*
X302351Y4167D01*
X302332Y3963D01*
X302277Y3704D01*
X302184Y3408D01*
X302036Y3112D01*
X301851Y2778D01*
X301592Y2482D01*
X301555Y2445D01*
X301462Y2371D01*
X301295Y2241D01*
X301073Y2112D01*
X300795Y1964D01*
X300481Y1834D01*
X300129Y1760D01*
X299740Y1723D01*
X299629D01*
X299555Y1741D01*
X299351Y1760D01*
X299092Y1815D01*
X298796Y1908D01*
X298499Y2038D01*
X298166Y2223D01*
X297870Y2482D01*
X297833Y2519D01*
X297759Y2630D01*
X297629Y2778D01*
X297500Y3000D01*
X297351Y3278D01*
X297222Y3593D01*
X297148Y3963D01*
X297111Y4352D01*
Y5389D01*
Y5408D01*
Y5445D01*
Y5519D01*
X297129Y5611D01*
X297148Y5723D01*
X297166Y5852D01*
X297240Y6148D01*
X297370Y6482D01*
X297462Y6667D01*
X297555Y6834D01*
X297685Y7019D01*
X297814Y7185D01*
X297981Y7352D01*
X298166Y7500D01*
X298148Y7519D01*
X298129Y7537D01*
X298074Y7574D01*
X297999Y7648D01*
X297833Y7815D01*
X297648Y8056D01*
X297444Y8370D01*
X297277Y8722D01*
X297203Y8926D01*
X297148Y9148D01*
X297129Y9370D01*
X297111Y9611D01*
Y9629D01*
Y9667D01*
Y9722D01*
X297129Y9796D01*
X297148Y10000D01*
X297203Y10240D01*
X297296Y10537D01*
X297425Y10852D01*
X297611Y11166D01*
X297870Y11463D01*
X297907Y11500D01*
X298018Y11592D01*
X298166Y11703D01*
X298388Y11852D01*
X298666Y12000D01*
X298981Y12111D01*
X299351Y12203D01*
X299740Y12240D01*
X299851D01*
X299925Y12222D01*
D02*
G37*
G36*
X294629Y12240D02*
X294741Y12185D01*
X294833Y12129D01*
X294926Y12037D01*
X294981Y11907D01*
X295000Y11722D01*
Y11703D01*
Y11648D01*
X294981Y11555D01*
X294926Y11463D01*
X294870Y11370D01*
X294778Y11277D01*
X294648Y11222D01*
X294463Y11203D01*
X292259D01*
X292130Y11185D01*
X291982Y11148D01*
X291796Y11092D01*
X291611Y11000D01*
X291426Y10889D01*
X291241Y10740D01*
X291222Y10722D01*
X291167Y10666D01*
X291093Y10555D01*
X291019Y10426D01*
X290945Y10259D01*
X290870Y10074D01*
X290815Y9852D01*
X290797Y9611D01*
Y4352D01*
Y4315D01*
Y4241D01*
X290815Y4112D01*
X290852Y3963D01*
X290908Y3778D01*
X290982Y3593D01*
X291093Y3408D01*
X291241Y3223D01*
X291259Y3204D01*
X291334Y3149D01*
X291426Y3075D01*
X291556Y3000D01*
X291722Y2927D01*
X291908Y2852D01*
X292130Y2797D01*
X292370Y2778D01*
X294555D01*
X294629Y2760D01*
X294741Y2704D01*
X294833Y2649D01*
X294926Y2556D01*
X294981Y2427D01*
X295000Y2241D01*
Y2223D01*
Y2167D01*
X294981Y2075D01*
X294926Y1982D01*
X294870Y1890D01*
X294778Y1797D01*
X294648Y1741D01*
X294463Y1723D01*
X292259D01*
X292185Y1741D01*
X291982Y1760D01*
X291722Y1815D01*
X291426Y1908D01*
X291130Y2038D01*
X290797Y2223D01*
X290500Y2482D01*
X290463Y2519D01*
X290389Y2630D01*
X290259Y2778D01*
X290130Y3000D01*
X289982Y3278D01*
X289852Y3593D01*
X289778Y3963D01*
X289741Y4352D01*
Y9611D01*
Y9629D01*
Y9667D01*
Y9722D01*
X289760Y9796D01*
X289778Y10000D01*
X289834Y10259D01*
X289926Y10555D01*
X290056Y10870D01*
X290241Y11185D01*
X290500Y11481D01*
X290537Y11518D01*
X290648Y11611D01*
X290797Y11722D01*
X291019Y11870D01*
X291296Y12018D01*
X291611Y12129D01*
X291982Y12222D01*
X292370Y12259D01*
X294555D01*
X294629Y12240D01*
D02*
G37*
G36*
X398325Y15184D02*
X398529Y15165D01*
X398788Y15110D01*
X399085Y15017D01*
X399399Y14869D01*
X399714Y14684D01*
X400010Y14425D01*
X400047Y14388D01*
X400140Y14295D01*
X400251Y14129D01*
X400399Y13906D01*
X400547Y13629D01*
X400658Y13314D01*
X400751Y12944D01*
X400788Y12555D01*
Y12518D01*
Y12425D01*
X400770Y12277D01*
X400732Y12092D01*
X400677Y11851D01*
X400584Y11610D01*
X400473Y11332D01*
X400307Y11036D01*
X396992Y5722D01*
X400344D01*
X400418Y5703D01*
X400529Y5648D01*
X400621Y5592D01*
X400714Y5500D01*
X400770Y5370D01*
X400788Y5185D01*
Y5167D01*
Y5111D01*
X400770Y5018D01*
X400714Y4926D01*
X400658Y4833D01*
X400566Y4741D01*
X400436Y4685D01*
X400251Y4667D01*
X395974D01*
X395881Y4704D01*
X395789Y4741D01*
X395677Y4796D01*
X395603Y4889D01*
X395529Y5018D01*
X395511Y5185D01*
Y5222D01*
X395529Y5278D01*
X395548Y5389D01*
X395603Y5481D01*
X399473Y11684D01*
X399492Y11703D01*
X399510Y11758D01*
X399548Y11851D01*
X399603Y11962D01*
X399659Y12092D01*
X399696Y12240D01*
X399714Y12388D01*
X399733Y12555D01*
Y12592D01*
Y12666D01*
X399714Y12795D01*
X399677Y12944D01*
X399622Y13129D01*
X399529Y13314D01*
X399418Y13499D01*
X399270Y13684D01*
X399251Y13703D01*
X399196Y13758D01*
X399085Y13832D01*
X398955Y13925D01*
X398788Y13999D01*
X398603Y14073D01*
X398381Y14129D01*
X398140Y14147D01*
X398103D01*
X397992Y14129D01*
X397825Y14073D01*
X397603Y13980D01*
X397474Y13906D01*
X397344Y13814D01*
X397214Y13721D01*
X397066Y13592D01*
X396918Y13425D01*
X396788Y13258D01*
X396640Y13055D01*
X396492Y12814D01*
Y12795D01*
X396474Y12777D01*
X396381Y12684D01*
X396251Y12592D01*
X396159Y12573D01*
X396048Y12555D01*
X395974D01*
X395881Y12592D01*
X395789Y12629D01*
X395677Y12684D01*
X395603Y12777D01*
X395529Y12906D01*
X395511Y13092D01*
Y13110D01*
Y13166D01*
X395529Y13221D01*
X395566Y13295D01*
X395585Y13314D01*
X395603Y13369D01*
X395659Y13480D01*
X395752Y13592D01*
X395844Y13740D01*
X395955Y13906D01*
X396103Y14073D01*
X396251Y14258D01*
X396437Y14425D01*
X396622Y14591D01*
X396844Y14758D01*
X397066Y14906D01*
X397307Y15036D01*
X397566Y15128D01*
X397844Y15184D01*
X398140Y15202D01*
X398251D01*
X398325Y15184D01*
D02*
G37*
G36*
X390956D02*
X391159Y15165D01*
X391419Y15110D01*
X391715Y15017D01*
X392030Y14869D01*
X392345Y14684D01*
X392641Y14425D01*
X392678Y14388D01*
X392770Y14295D01*
X392882Y14129D01*
X393030Y13906D01*
X393178Y13629D01*
X393289Y13314D01*
X393381Y12962D01*
X393419Y12555D01*
Y7296D01*
Y7277D01*
Y7240D01*
Y7185D01*
X393400Y7111D01*
X393381Y6907D01*
X393326Y6648D01*
X393233Y6352D01*
X393085Y6055D01*
X392900Y5722D01*
X392641Y5426D01*
X392604Y5389D01*
X392511Y5315D01*
X392345Y5185D01*
X392122Y5055D01*
X391845Y4907D01*
X391530Y4778D01*
X391159Y4704D01*
X390771Y4667D01*
X387549D01*
X387456Y4704D01*
X387364Y4741D01*
X387271Y4796D01*
X387178Y4889D01*
X387123Y5018D01*
X387104Y5185D01*
Y14665D01*
Y14684D01*
Y14758D01*
X387141Y14832D01*
X387178Y14943D01*
X387234Y15036D01*
X387327Y15128D01*
X387456Y15184D01*
X387623Y15202D01*
X390882D01*
X390956Y15184D01*
D02*
G37*
G36*
X369416Y166231D02*
X369527Y166175D01*
X369620Y166120D01*
X369712Y166027D01*
X369768Y165898D01*
X369786Y165713D01*
Y156250D01*
Y156232D01*
Y156176D01*
X369768Y156084D01*
X369712Y155991D01*
X369657Y155899D01*
X369564Y155806D01*
X369435Y155751D01*
X369249Y155732D01*
X369175D01*
X369083Y155769D01*
X368990Y155806D01*
X368898Y155862D01*
X368805Y155954D01*
X368750Y156084D01*
X368731Y156250D01*
Y164453D01*
X367509Y163231D01*
X367490Y163213D01*
X367416Y163157D01*
X367287Y163102D01*
X367139Y163083D01*
X367065D01*
X366972Y163120D01*
X366879Y163157D01*
X366787Y163213D01*
X366694Y163305D01*
X366639Y163435D01*
X366620Y163602D01*
Y163620D01*
Y163639D01*
X366639Y163731D01*
X366676Y163861D01*
X366768Y163972D01*
X368824Y166027D01*
X368842Y166046D01*
X368861Y166064D01*
X368953Y166138D01*
X369083Y166212D01*
X369175Y166250D01*
X369342D01*
X369416Y166231D01*
D02*
G37*
G36*
X362065Y166250D02*
X362269Y166231D01*
X362528Y166175D01*
X362824Y166083D01*
X363139Y165935D01*
X363454Y165749D01*
X363750Y165490D01*
X363787Y165453D01*
X363880Y165361D01*
X363991Y165194D01*
X364139Y164972D01*
X364287Y164694D01*
X364398Y164379D01*
X364491Y164028D01*
X364528Y163620D01*
Y158361D01*
Y158343D01*
Y158306D01*
Y158250D01*
X364509Y158176D01*
X364491Y157973D01*
X364435Y157713D01*
X364343Y157417D01*
X364194Y157121D01*
X364009Y156788D01*
X363750Y156491D01*
X363713Y156454D01*
X363620Y156380D01*
X363454Y156250D01*
X363232Y156121D01*
X362954Y155973D01*
X362639Y155843D01*
X362269Y155769D01*
X361880Y155732D01*
X358658D01*
X358565Y155769D01*
X358473Y155806D01*
X358380Y155862D01*
X358288Y155954D01*
X358232Y156084D01*
X358214Y156250D01*
Y165731D01*
Y165749D01*
Y165824D01*
X358251Y165898D01*
X358288Y166009D01*
X358343Y166101D01*
X358436Y166194D01*
X358565Y166250D01*
X358732Y166268D01*
X361991D01*
X362065Y166250D01*
D02*
G37*
G36*
X216102Y179231D02*
X216213Y179175D01*
X216306Y179120D01*
X216398Y179027D01*
X216454Y178898D01*
X216472Y178713D01*
Y171880D01*
Y171861D01*
Y171824D01*
Y171750D01*
X216454Y171658D01*
Y171547D01*
X216417Y171417D01*
X216361Y171102D01*
X216250Y170750D01*
X216083Y170380D01*
X215972Y170195D01*
X215861Y170010D01*
X215713Y169825D01*
X215546Y169639D01*
X215528Y169621D01*
X215509Y169602D01*
X215454Y169565D01*
X215380Y169491D01*
X215287Y169436D01*
X215176Y169362D01*
X214917Y169195D01*
X214602Y169028D01*
X214213Y168880D01*
X213787Y168769D01*
X213547Y168751D01*
X213306Y168732D01*
X213176D01*
X213084Y168751D01*
X212973Y168769D01*
X212843Y168788D01*
X212528Y168843D01*
X212176Y168954D01*
X211806Y169121D01*
X211621Y169214D01*
X211436Y169343D01*
X211251Y169473D01*
X211065Y169639D01*
X211047Y169658D01*
X211028Y169676D01*
X210991Y169732D01*
X210917Y169806D01*
X210862Y169899D01*
X210788Y170010D01*
X210621Y170269D01*
X210454Y170602D01*
X210306Y170973D01*
X210195Y171398D01*
X210177Y171639D01*
X210158Y171880D01*
Y178713D01*
Y178731D01*
Y178805D01*
X210195Y178879D01*
X210232Y178990D01*
X210288Y179083D01*
X210380Y179175D01*
X210510Y179231D01*
X210677Y179249D01*
X210769D01*
X210843Y179231D01*
X210954Y179175D01*
X211047Y179120D01*
X211140Y179027D01*
X211195Y178898D01*
X211214Y178713D01*
Y171880D01*
Y171861D01*
Y171843D01*
X211232Y171732D01*
X211251Y171565D01*
X211288Y171361D01*
X211362Y171121D01*
X211473Y170880D01*
X211602Y170621D01*
X211806Y170380D01*
X211843Y170361D01*
X211917Y170287D01*
X212047Y170195D01*
X212232Y170084D01*
X212436Y169973D01*
X212695Y169880D01*
X212991Y169806D01*
X213306Y169788D01*
X213343D01*
X213454Y169806D01*
X213621Y169825D01*
X213824Y169862D01*
X214065Y169936D01*
X214306Y170047D01*
X214565Y170176D01*
X214806Y170380D01*
X214824Y170417D01*
X214898Y170491D01*
X214991Y170621D01*
X215121Y170806D01*
X215232Y171010D01*
X215324Y171269D01*
X215398Y171565D01*
X215417Y171880D01*
Y178713D01*
Y178731D01*
Y178805D01*
X215454Y178879D01*
X215491Y178990D01*
X215546Y179083D01*
X215639Y179175D01*
X215769Y179231D01*
X215935Y179249D01*
X216028D01*
X216102Y179231D01*
D02*
G37*
G36*
X221379Y179249D02*
X221583Y179231D01*
X221842Y179175D01*
X222138Y179083D01*
X222453Y178935D01*
X222768Y178750D01*
X223064Y178490D01*
X223101Y178453D01*
X223194Y178361D01*
X223305Y178194D01*
X223453Y177972D01*
X223601Y177694D01*
X223712Y177379D01*
X223805Y177009D01*
X223842Y176620D01*
Y176583D01*
Y176490D01*
X223823Y176342D01*
X223786Y176157D01*
X223731Y175917D01*
X223638Y175676D01*
X223527Y175398D01*
X223361Y175102D01*
X220046Y169788D01*
X223398D01*
X223472Y169769D01*
X223583Y169713D01*
X223675Y169658D01*
X223768Y169565D01*
X223823Y169436D01*
X223842Y169251D01*
Y169232D01*
Y169176D01*
X223823Y169084D01*
X223768Y168991D01*
X223712Y168899D01*
X223620Y168806D01*
X223490Y168751D01*
X223305Y168732D01*
X219028D01*
X218935Y168769D01*
X218842Y168806D01*
X218731Y168862D01*
X218657Y168954D01*
X218583Y169084D01*
X218565Y169251D01*
Y169287D01*
X218583Y169343D01*
X218602Y169454D01*
X218657Y169547D01*
X222527Y175750D01*
X222546Y175768D01*
X222564Y175824D01*
X222601Y175917D01*
X222657Y176028D01*
X222712Y176157D01*
X222749Y176305D01*
X222768Y176453D01*
X222786Y176620D01*
Y176657D01*
Y176731D01*
X222768Y176861D01*
X222731Y177009D01*
X222675Y177194D01*
X222583Y177379D01*
X222472Y177565D01*
X222323Y177750D01*
X222305Y177768D01*
X222250Y177824D01*
X222138Y177898D01*
X222009Y177990D01*
X221842Y178064D01*
X221657Y178139D01*
X221435Y178194D01*
X221194Y178213D01*
X221157D01*
X221046Y178194D01*
X220879Y178139D01*
X220657Y178046D01*
X220527Y177972D01*
X220398Y177879D01*
X220268Y177787D01*
X220120Y177657D01*
X219972Y177490D01*
X219842Y177324D01*
X219694Y177120D01*
X219546Y176879D01*
Y176861D01*
X219527Y176842D01*
X219435Y176750D01*
X219305Y176657D01*
X219213Y176639D01*
X219102Y176620D01*
X219028D01*
X218935Y176657D01*
X218842Y176694D01*
X218731Y176750D01*
X218657Y176842D01*
X218583Y176972D01*
X218565Y177157D01*
Y177176D01*
Y177231D01*
X218583Y177287D01*
X218620Y177361D01*
X218639Y177379D01*
X218657Y177435D01*
X218713Y177546D01*
X218805Y177657D01*
X218898Y177805D01*
X219009Y177972D01*
X219157Y178139D01*
X219305Y178324D01*
X219491Y178490D01*
X219676Y178657D01*
X219898Y178824D01*
X220120Y178972D01*
X220361Y179101D01*
X220620Y179194D01*
X220898Y179249D01*
X221194Y179268D01*
X221305D01*
X221379Y179249D01*
D02*
G37*
G36*
X484379Y15250D02*
X484583Y15231D01*
X484842Y15175D01*
X485138Y15083D01*
X485453Y14935D01*
X485768Y14749D01*
X486064Y14490D01*
X486101Y14453D01*
X486194Y14361D01*
X486305Y14194D01*
X486453Y13972D01*
X486601Y13694D01*
X486712Y13379D01*
X486805Y13009D01*
X486842Y12620D01*
Y12583D01*
Y12491D01*
X486823Y12342D01*
X486786Y12157D01*
X486731Y11917D01*
X486638Y11676D01*
X486527Y11398D01*
X486361Y11102D01*
X483046Y5788D01*
X486398D01*
X486472Y5769D01*
X486583Y5713D01*
X486675Y5658D01*
X486768Y5565D01*
X486823Y5436D01*
X486842Y5250D01*
Y5232D01*
Y5176D01*
X486823Y5084D01*
X486768Y4991D01*
X486712Y4899D01*
X486620Y4806D01*
X486490Y4751D01*
X486305Y4732D01*
X482028D01*
X481935Y4769D01*
X481842Y4806D01*
X481731Y4862D01*
X481657Y4954D01*
X481583Y5084D01*
X481565Y5250D01*
Y5288D01*
X481583Y5343D01*
X481602Y5454D01*
X481657Y5547D01*
X485527Y11750D01*
X485546Y11768D01*
X485564Y11824D01*
X485601Y11917D01*
X485657Y12028D01*
X485712Y12157D01*
X485749Y12305D01*
X485768Y12454D01*
X485787Y12620D01*
Y12657D01*
Y12731D01*
X485768Y12861D01*
X485731Y13009D01*
X485675Y13194D01*
X485583Y13379D01*
X485472Y13564D01*
X485323Y13750D01*
X485305Y13768D01*
X485249Y13824D01*
X485138Y13898D01*
X485009Y13990D01*
X484842Y14064D01*
X484657Y14138D01*
X484435Y14194D01*
X484194Y14212D01*
X484157D01*
X484046Y14194D01*
X483879Y14138D01*
X483657Y14046D01*
X483527Y13972D01*
X483398Y13879D01*
X483268Y13787D01*
X483120Y13657D01*
X482972Y13490D01*
X482842Y13324D01*
X482694Y13120D01*
X482546Y12879D01*
Y12861D01*
X482528Y12842D01*
X482435Y12750D01*
X482305Y12657D01*
X482213Y12639D01*
X482102Y12620D01*
X482028D01*
X481935Y12657D01*
X481842Y12694D01*
X481731Y12750D01*
X481657Y12842D01*
X481583Y12972D01*
X481565Y13157D01*
Y13176D01*
Y13231D01*
X481583Y13287D01*
X481620Y13361D01*
X481639Y13379D01*
X481657Y13435D01*
X481713Y13546D01*
X481805Y13657D01*
X481898Y13805D01*
X482009Y13972D01*
X482157Y14138D01*
X482305Y14324D01*
X482491Y14490D01*
X482676Y14657D01*
X482898Y14824D01*
X483120Y14972D01*
X483361Y15101D01*
X483620Y15194D01*
X483898Y15250D01*
X484194Y15268D01*
X484305D01*
X484379Y15250D01*
D02*
G37*
G36*
X476528D02*
X476639D01*
X476769Y15212D01*
X477084Y15157D01*
X477435Y15046D01*
X477806Y14879D01*
X477991Y14768D01*
X478176Y14657D01*
X478361Y14509D01*
X478546Y14342D01*
X478565Y14324D01*
X478583Y14305D01*
X478639Y14250D01*
X478695Y14175D01*
X478769Y14083D01*
X478843Y13972D01*
X479009Y13713D01*
X479176Y13398D01*
X479324Y13009D01*
X479435Y12583D01*
X479454Y12342D01*
X479472Y12102D01*
Y12083D01*
Y12009D01*
X479454Y11898D01*
X479435Y11750D01*
X479417Y11565D01*
X479380Y11379D01*
X479306Y11157D01*
X479232Y10917D01*
X479139Y10676D01*
X479009Y10417D01*
X478861Y10176D01*
X478676Y9935D01*
X478454Y9713D01*
X478195Y9509D01*
X477898Y9324D01*
X477565Y9158D01*
X479417Y5491D01*
X479435Y5473D01*
X479454Y5417D01*
X479472Y5343D01*
Y5250D01*
Y5214D01*
X479454Y5121D01*
X479398Y5010D01*
X479306Y4880D01*
X479269Y4862D01*
X479194Y4806D01*
X479083Y4751D01*
X478935Y4732D01*
X478880D01*
X478824Y4751D01*
X478750Y4769D01*
X478676Y4806D01*
X478602Y4843D01*
X478528Y4917D01*
X478472Y5010D01*
X476510Y8935D01*
X474214D01*
Y5250D01*
Y5232D01*
Y5176D01*
X474195Y5084D01*
X474140Y4991D01*
X474084Y4899D01*
X473991Y4806D01*
X473862Y4751D01*
X473677Y4732D01*
X473602D01*
X473510Y4769D01*
X473417Y4806D01*
X473325Y4862D01*
X473232Y4954D01*
X473177Y5084D01*
X473158Y5250D01*
Y14731D01*
Y14749D01*
Y14824D01*
X473195Y14898D01*
X473232Y15009D01*
X473288Y15101D01*
X473380Y15194D01*
X473510Y15250D01*
X473677Y15268D01*
X476436D01*
X476528Y15250D01*
D02*
G37*
G36*
X406416Y157231D02*
X406527Y157175D01*
X406620Y157120D01*
X406712Y157027D01*
X406768Y156898D01*
X406786Y156713D01*
Y156694D01*
Y156657D01*
X406768Y156583D01*
X406749Y156509D01*
X406712Y156435D01*
X406675Y156361D01*
X406601Y156305D01*
X406509Y156268D01*
X406490D01*
X406453Y156250D01*
X406398Y156231D01*
X406305Y156213D01*
X406212Y156157D01*
X406101Y156120D01*
X405824Y155990D01*
X405490Y155787D01*
X405157Y155546D01*
X404805Y155250D01*
X404638Y155064D01*
X404472Y154861D01*
Y154842D01*
X404435Y154824D01*
X404361Y154713D01*
X404250Y154528D01*
X404120Y154305D01*
X403972Y154028D01*
X403842Y153731D01*
X403750Y153398D01*
X403676Y153046D01*
X405324D01*
X405398Y153028D01*
X405601Y153009D01*
X405861Y152954D01*
X406157Y152861D01*
X406472Y152713D01*
X406786Y152528D01*
X407083Y152268D01*
X407120Y152232D01*
X407194Y152139D01*
X407323Y151972D01*
X407472Y151750D01*
X407601Y151472D01*
X407731Y151158D01*
X407805Y150806D01*
X407842Y150398D01*
Y149361D01*
Y149343D01*
Y149306D01*
Y149250D01*
X407823Y149176D01*
X407805Y148973D01*
X407749Y148713D01*
X407657Y148417D01*
X407509Y148102D01*
X407323Y147788D01*
X407064Y147491D01*
X407027Y147454D01*
X406935Y147380D01*
X406768Y147250D01*
X406546Y147121D01*
X406268Y146973D01*
X405953Y146843D01*
X405601Y146769D01*
X405213Y146732D01*
X405102D01*
X405027Y146751D01*
X404824Y146769D01*
X404565Y146825D01*
X404268Y146917D01*
X403953Y147047D01*
X403639Y147232D01*
X403342Y147491D01*
X403305Y147528D01*
X403231Y147621D01*
X403102Y147788D01*
X402972Y148010D01*
X402824Y148269D01*
X402694Y148602D01*
X402620Y148954D01*
X402583Y149343D01*
Y152509D01*
Y152528D01*
Y152583D01*
Y152676D01*
X402602Y152806D01*
X402620Y152972D01*
X402639Y153139D01*
X402676Y153343D01*
X402731Y153565D01*
X402879Y154046D01*
X402972Y154305D01*
X403083Y154583D01*
X403213Y154842D01*
X403379Y155120D01*
X403565Y155379D01*
X403768Y155639D01*
X403787Y155657D01*
X403805Y155676D01*
X403861Y155731D01*
X403935Y155805D01*
X404120Y155990D01*
X404361Y156213D01*
X404657Y156453D01*
X404990Y156694D01*
X405361Y156935D01*
X405768Y157120D01*
X405787D01*
X405824Y157138D01*
X405879Y157157D01*
X405953Y157194D01*
X406101Y157231D01*
X406250Y157249D01*
X406342D01*
X406416Y157231D01*
D02*
G37*
G36*
X397528Y157249D02*
X397639D01*
X397769Y157212D01*
X398084Y157157D01*
X398436Y157046D01*
X398806Y156879D01*
X398991Y156768D01*
X399176Y156657D01*
X399361Y156509D01*
X399547Y156342D01*
X399565Y156324D01*
X399584Y156305D01*
X399639Y156250D01*
X399695Y156175D01*
X399769Y156083D01*
X399843Y155972D01*
X400009Y155713D01*
X400176Y155398D01*
X400324Y155009D01*
X400435Y154583D01*
X400454Y154342D01*
X400472Y154102D01*
Y154083D01*
Y154009D01*
X400454Y153898D01*
X400435Y153750D01*
X400417Y153565D01*
X400380Y153379D01*
X400306Y153157D01*
X400232Y152917D01*
X400139Y152676D01*
X400009Y152417D01*
X399861Y152176D01*
X399676Y151935D01*
X399454Y151713D01*
X399195Y151509D01*
X398898Y151324D01*
X398565Y151158D01*
X400417Y147491D01*
X400435Y147473D01*
X400454Y147417D01*
X400472Y147343D01*
Y147250D01*
Y147213D01*
X400454Y147121D01*
X400398Y147010D01*
X400306Y146880D01*
X400269Y146862D01*
X400195Y146806D01*
X400084Y146751D01*
X399935Y146732D01*
X399880D01*
X399824Y146751D01*
X399750Y146769D01*
X399676Y146806D01*
X399602Y146843D01*
X399528Y146917D01*
X399472Y147010D01*
X397510Y150935D01*
X395214D01*
Y147250D01*
Y147232D01*
Y147176D01*
X395195Y147084D01*
X395140Y146991D01*
X395084Y146899D01*
X394991Y146806D01*
X394862Y146751D01*
X394677Y146732D01*
X394603D01*
X394510Y146769D01*
X394417Y146806D01*
X394325Y146862D01*
X394232Y146954D01*
X394177Y147084D01*
X394158Y147250D01*
Y156731D01*
Y156749D01*
Y156824D01*
X394195Y156898D01*
X394232Y157009D01*
X394288Y157101D01*
X394380Y157194D01*
X394510Y157249D01*
X394677Y157268D01*
X397436D01*
X397528Y157249D01*
D02*
G37*
G36*
X480398Y158231D02*
X480601Y158212D01*
X480842Y158157D01*
X481138Y158064D01*
X481453Y157916D01*
X481768Y157731D01*
X482064Y157472D01*
X482101Y157435D01*
X482194Y157342D01*
X482305Y157176D01*
X482453Y156953D01*
X482601Y156676D01*
X482712Y156361D01*
X482805Y156009D01*
X482842Y155620D01*
Y155602D01*
Y155565D01*
Y155491D01*
X482823Y155398D01*
X482805Y155287D01*
X482786Y155157D01*
X482712Y154861D01*
X482583Y154528D01*
X482509Y154361D01*
X482397Y154176D01*
X482268Y154009D01*
X482138Y153824D01*
X481972Y153657D01*
X481786Y153509D01*
X481824Y153491D01*
X481916Y153398D01*
X482046Y153287D01*
X482194Y153120D01*
X482360Y152917D01*
X482509Y152676D01*
X482657Y152398D01*
X482749Y152102D01*
Y152083D01*
X482768Y152009D01*
X482786Y151898D01*
X482805Y151732D01*
Y151491D01*
X482823Y151195D01*
X482842Y151010D01*
Y150806D01*
Y150602D01*
Y150361D01*
Y150343D01*
Y150306D01*
Y150250D01*
X482823Y150176D01*
X482805Y149972D01*
X482749Y149713D01*
X482657Y149417D01*
X482509Y149121D01*
X482323Y148787D01*
X482064Y148491D01*
X482027Y148454D01*
X481935Y148380D01*
X481768Y148251D01*
X481546Y148121D01*
X481268Y147973D01*
X480953Y147843D01*
X480601Y147769D01*
X480213Y147732D01*
X480101D01*
X480027Y147751D01*
X479824Y147769D01*
X479564Y147825D01*
X479268Y147917D01*
X478972Y148047D01*
X478639Y148232D01*
X478342Y148491D01*
X478305Y148528D01*
X478231Y148639D01*
X478102Y148787D01*
X477972Y149010D01*
X477824Y149287D01*
X477694Y149602D01*
X477620Y149972D01*
X477583Y150361D01*
Y151398D01*
Y151417D01*
Y151454D01*
Y151528D01*
X477602Y151621D01*
X477620Y151732D01*
X477639Y151861D01*
X477713Y152157D01*
X477842Y152491D01*
X477935Y152676D01*
X478028Y152843D01*
X478157Y153028D01*
X478287Y153194D01*
X478453Y153361D01*
X478639Y153509D01*
X478620Y153528D01*
X478602Y153546D01*
X478546Y153583D01*
X478472Y153657D01*
X478305Y153824D01*
X478120Y154065D01*
X477916Y154380D01*
X477750Y154731D01*
X477676Y154935D01*
X477620Y155157D01*
X477602Y155379D01*
X477583Y155620D01*
Y155639D01*
Y155676D01*
Y155731D01*
X477602Y155805D01*
X477620Y156009D01*
X477676Y156250D01*
X477768Y156546D01*
X477898Y156861D01*
X478083Y157176D01*
X478342Y157472D01*
X478379Y157509D01*
X478490Y157601D01*
X478639Y157712D01*
X478861Y157861D01*
X479139Y158009D01*
X479453Y158120D01*
X479824Y158212D01*
X480213Y158250D01*
X480324D01*
X480398Y158231D01*
D02*
G37*
G36*
X472528Y158250D02*
X472639D01*
X472769Y158212D01*
X473084Y158157D01*
X473436Y158046D01*
X473806Y157879D01*
X473991Y157768D01*
X474176Y157657D01*
X474361Y157509D01*
X474546Y157342D01*
X474565Y157324D01*
X474584Y157305D01*
X474639Y157250D01*
X474695Y157176D01*
X474769Y157083D01*
X474843Y156972D01*
X475009Y156713D01*
X475176Y156398D01*
X475324Y156009D01*
X475435Y155583D01*
X475454Y155342D01*
X475472Y155102D01*
Y155083D01*
Y155009D01*
X475454Y154898D01*
X475435Y154750D01*
X475417Y154565D01*
X475380Y154380D01*
X475306Y154157D01*
X475232Y153917D01*
X475139Y153676D01*
X475009Y153417D01*
X474861Y153176D01*
X474676Y152935D01*
X474454Y152713D01*
X474195Y152509D01*
X473898Y152324D01*
X473565Y152157D01*
X475417Y148491D01*
X475435Y148473D01*
X475454Y148417D01*
X475472Y148343D01*
Y148251D01*
Y148214D01*
X475454Y148121D01*
X475398Y148010D01*
X475306Y147880D01*
X475269Y147862D01*
X475195Y147806D01*
X475083Y147751D01*
X474935Y147732D01*
X474880D01*
X474824Y147751D01*
X474750Y147769D01*
X474676Y147806D01*
X474602Y147843D01*
X474528Y147917D01*
X474472Y148010D01*
X472510Y151935D01*
X470214D01*
Y148251D01*
Y148232D01*
Y148176D01*
X470195Y148084D01*
X470140Y147991D01*
X470084Y147899D01*
X469991Y147806D01*
X469862Y147751D01*
X469677Y147732D01*
X469603D01*
X469510Y147769D01*
X469417Y147806D01*
X469325Y147862D01*
X469232Y147954D01*
X469177Y148084D01*
X469158Y148251D01*
Y157731D01*
Y157750D01*
Y157824D01*
X469195Y157898D01*
X469232Y158009D01*
X469288Y158101D01*
X469380Y158194D01*
X469510Y158250D01*
X469677Y158268D01*
X472436D01*
X472528Y158250D01*
D02*
G37*
G36*
X426953Y157249D02*
X427046Y157194D01*
X427138Y157138D01*
X427231Y157046D01*
X427286Y156916D01*
X427305Y156731D01*
Y156713D01*
Y156657D01*
X427286Y156564D01*
X427249Y156472D01*
X427175Y156379D01*
X427083Y156287D01*
X426953Y156231D01*
X426786Y156213D01*
X423639D01*
Y153046D01*
X425324D01*
X425398Y153028D01*
X425601Y153009D01*
X425861Y152954D01*
X426138Y152861D01*
X426453Y152713D01*
X426768Y152528D01*
X427064Y152268D01*
X427101Y152232D01*
X427194Y152139D01*
X427305Y151972D01*
X427453Y151750D01*
X427601Y151472D01*
X427712Y151158D01*
X427805Y150787D01*
X427842Y150398D01*
Y149361D01*
Y149343D01*
Y149306D01*
Y149250D01*
X427823Y149176D01*
X427805Y148973D01*
X427749Y148713D01*
X427657Y148417D01*
X427509Y148121D01*
X427323Y147788D01*
X427064Y147491D01*
X427027Y147454D01*
X426935Y147380D01*
X426768Y147250D01*
X426546Y147121D01*
X426268Y146973D01*
X425953Y146843D01*
X425601Y146769D01*
X425213Y146732D01*
X423028D01*
X422935Y146769D01*
X422842Y146806D01*
X422750Y146862D01*
X422657Y146954D01*
X422602Y147084D01*
X422583Y147250D01*
Y147269D01*
Y147343D01*
X422620Y147417D01*
X422657Y147528D01*
X422713Y147621D01*
X422805Y147713D01*
X422935Y147769D01*
X423102Y147788D01*
X425305D01*
X425435Y147806D01*
X425583Y147843D01*
X425768Y147899D01*
X425953Y147973D01*
X426138Y148084D01*
X426324Y148232D01*
X426342Y148250D01*
X426398Y148324D01*
X426472Y148417D01*
X426564Y148547D01*
X426638Y148713D01*
X426712Y148898D01*
X426768Y149121D01*
X426786Y149361D01*
Y150398D01*
Y150435D01*
Y150509D01*
X426768Y150639D01*
X426731Y150787D01*
X426675Y150972D01*
X426583Y151158D01*
X426472Y151343D01*
X426324Y151528D01*
X426305Y151546D01*
X426250Y151602D01*
X426138Y151676D01*
X426009Y151769D01*
X425842Y151843D01*
X425657Y151917D01*
X425435Y151972D01*
X425194Y151991D01*
X423028D01*
X422935Y152028D01*
X422842Y152065D01*
X422750Y152120D01*
X422657Y152213D01*
X422602Y152343D01*
X422583Y152509D01*
Y156731D01*
Y156749D01*
Y156824D01*
X422620Y156898D01*
X422657Y157009D01*
X422713Y157101D01*
X422805Y157194D01*
X422935Y157249D01*
X423102Y157268D01*
X426861D01*
X426953Y157249D01*
D02*
G37*
G36*
X417528D02*
X417639D01*
X417769Y157212D01*
X418084Y157157D01*
X418436Y157046D01*
X418806Y156879D01*
X418991Y156768D01*
X419176Y156657D01*
X419361Y156509D01*
X419547Y156342D01*
X419565Y156324D01*
X419584Y156305D01*
X419639Y156250D01*
X419695Y156175D01*
X419769Y156083D01*
X419843Y155972D01*
X420009Y155713D01*
X420176Y155398D01*
X420324Y155009D01*
X420435Y154583D01*
X420454Y154342D01*
X420472Y154102D01*
Y154083D01*
Y154009D01*
X420454Y153898D01*
X420435Y153750D01*
X420417Y153565D01*
X420380Y153379D01*
X420306Y153157D01*
X420232Y152917D01*
X420139Y152676D01*
X420009Y152417D01*
X419861Y152176D01*
X419676Y151935D01*
X419454Y151713D01*
X419195Y151509D01*
X418898Y151324D01*
X418565Y151158D01*
X420417Y147491D01*
X420435Y147473D01*
X420454Y147417D01*
X420472Y147343D01*
Y147250D01*
Y147213D01*
X420454Y147121D01*
X420398Y147010D01*
X420306Y146880D01*
X420269Y146862D01*
X420195Y146806D01*
X420083Y146751D01*
X419935Y146732D01*
X419880D01*
X419824Y146751D01*
X419750Y146769D01*
X419676Y146806D01*
X419602Y146843D01*
X419528Y146917D01*
X419472Y147010D01*
X417510Y150935D01*
X415214D01*
Y147250D01*
Y147232D01*
Y147176D01*
X415195Y147084D01*
X415140Y146991D01*
X415084Y146899D01*
X414991Y146806D01*
X414862Y146751D01*
X414677Y146732D01*
X414603D01*
X414510Y146769D01*
X414417Y146806D01*
X414325Y146862D01*
X414232Y146954D01*
X414177Y147084D01*
X414158Y147250D01*
Y156731D01*
Y156749D01*
Y156824D01*
X414195Y156898D01*
X414232Y157009D01*
X414288Y157101D01*
X414380Y157194D01*
X414510Y157249D01*
X414677Y157268D01*
X417436D01*
X417528Y157249D01*
D02*
G37*
G36*
X456472D02*
X456564Y157212D01*
X456657Y157138D01*
X456749Y157046D01*
X456805Y156916D01*
X456842Y156749D01*
Y156713D01*
X456823Y156620D01*
X455916Y152528D01*
X456398D01*
X456472Y152509D01*
X456583Y152454D01*
X456675Y152398D01*
X456768Y152305D01*
X456823Y152176D01*
X456842Y151991D01*
Y151972D01*
Y151917D01*
X456823Y151824D01*
X456768Y151732D01*
X456712Y151639D01*
X456620Y151546D01*
X456490Y151491D01*
X456305Y151472D01*
X455657D01*
X454712Y147139D01*
Y147121D01*
X454694Y147084D01*
X454657Y147010D01*
X454601Y146936D01*
X454546Y146862D01*
X454453Y146788D01*
X454342Y146751D01*
X454194Y146732D01*
X454120D01*
X454027Y146769D01*
X453935Y146806D01*
X453842Y146862D01*
X453750Y146954D01*
X453694Y147084D01*
X453675Y147250D01*
Y147269D01*
Y147288D01*
Y147362D01*
X454583Y151472D01*
X454120D01*
X454027Y151509D01*
X453935Y151546D01*
X453842Y151602D01*
X453750Y151694D01*
X453694Y151824D01*
X453675Y151991D01*
Y152009D01*
Y152083D01*
X453713Y152157D01*
X453750Y152268D01*
X453805Y152361D01*
X453898Y152454D01*
X454027Y152509D01*
X454194Y152528D01*
X454824D01*
X455638Y156213D01*
X452009D01*
X451917Y156250D01*
X451824Y156287D01*
X451731Y156342D01*
X451639Y156435D01*
X451583Y156564D01*
X451565Y156731D01*
Y156749D01*
Y156824D01*
X451602Y156898D01*
X451639Y157009D01*
X451694Y157101D01*
X451787Y157194D01*
X451917Y157249D01*
X452083Y157268D01*
X456379D01*
X456472Y157249D01*
D02*
G37*
G36*
X446528D02*
X446639D01*
X446769Y157212D01*
X447084Y157157D01*
X447435Y157046D01*
X447806Y156879D01*
X447991Y156768D01*
X448176Y156657D01*
X448361Y156509D01*
X448546Y156342D01*
X448565Y156324D01*
X448583Y156305D01*
X448639Y156250D01*
X448695Y156175D01*
X448769Y156083D01*
X448843Y155972D01*
X449009Y155713D01*
X449176Y155398D01*
X449324Y155009D01*
X449435Y154583D01*
X449454Y154342D01*
X449472Y154102D01*
Y154083D01*
Y154009D01*
X449454Y153898D01*
X449435Y153750D01*
X449417Y153565D01*
X449380Y153379D01*
X449306Y153157D01*
X449232Y152917D01*
X449139Y152676D01*
X449009Y152417D01*
X448861Y152176D01*
X448676Y151935D01*
X448454Y151713D01*
X448195Y151509D01*
X447898Y151324D01*
X447565Y151158D01*
X449417Y147491D01*
X449435Y147473D01*
X449454Y147417D01*
X449472Y147343D01*
Y147250D01*
Y147213D01*
X449454Y147121D01*
X449398Y147010D01*
X449306Y146880D01*
X449269Y146862D01*
X449194Y146806D01*
X449083Y146751D01*
X448935Y146732D01*
X448880D01*
X448824Y146751D01*
X448750Y146769D01*
X448676Y146806D01*
X448602Y146843D01*
X448528Y146917D01*
X448472Y147010D01*
X446510Y150935D01*
X444214D01*
Y147250D01*
Y147232D01*
Y147176D01*
X444195Y147084D01*
X444140Y146991D01*
X444084Y146899D01*
X443991Y146806D01*
X443862Y146751D01*
X443677Y146732D01*
X443602D01*
X443510Y146769D01*
X443417Y146806D01*
X443325Y146862D01*
X443232Y146954D01*
X443177Y147084D01*
X443158Y147250D01*
Y156731D01*
Y156749D01*
Y156824D01*
X443195Y156898D01*
X443232Y157009D01*
X443288Y157101D01*
X443380Y157194D01*
X443510Y157249D01*
X443677Y157268D01*
X446436D01*
X446528Y157249D01*
D02*
G37*
G36*
X548462Y183249D02*
X548555Y183231D01*
X548685Y183212D01*
X548814Y183157D01*
X548981Y183101D01*
X549147Y183009D01*
X549314Y182916D01*
X549499Y182768D01*
X549666Y182620D01*
X549851Y182416D01*
X550018Y182194D01*
X550184Y181916D01*
X550351Y181602D01*
X550481Y181250D01*
Y181231D01*
X550499Y181194D01*
X550518Y181120D01*
X550555Y181009D01*
X550592Y180879D01*
X550629Y180713D01*
X550666Y180527D01*
X550721Y180324D01*
X550758Y180102D01*
X550795Y179861D01*
X550832Y179583D01*
X550869Y179305D01*
X550925Y178676D01*
X550943Y177991D01*
Y177972D01*
Y177917D01*
Y177806D01*
Y177676D01*
X550925Y177509D01*
Y177324D01*
X550906Y177102D01*
X550888Y176880D01*
X550832Y176361D01*
X550740Y175824D01*
X550629Y175269D01*
X550481Y174732D01*
Y174713D01*
X550444Y174639D01*
X550406Y174547D01*
X550351Y174417D01*
X550277Y174269D01*
X550184Y174102D01*
X549962Y173732D01*
X549647Y173362D01*
X549481Y173195D01*
X549277Y173047D01*
X549073Y172917D01*
X548833Y172825D01*
X548592Y172751D01*
X548314Y172732D01*
X548240D01*
X548166Y172751D01*
X548074Y172769D01*
X547944Y172788D01*
X547796Y172843D01*
X547648Y172899D01*
X547481Y172991D01*
X547296Y173084D01*
X547129Y173214D01*
X546944Y173380D01*
X546759Y173584D01*
X546592Y173806D01*
X546426Y174065D01*
X546259Y174380D01*
X546129Y174732D01*
Y174750D01*
X546111Y174787D01*
X546092Y174880D01*
X546055Y174972D01*
X546018Y175102D01*
X545981Y175269D01*
X545944Y175454D01*
X545907Y175658D01*
X545870Y175880D01*
X545833Y176139D01*
X545796Y176398D01*
X545759Y176695D01*
X545703Y177306D01*
X545685Y177991D01*
Y178009D01*
Y178083D01*
Y178176D01*
Y178305D01*
X545703Y178472D01*
Y178657D01*
X545722Y178880D01*
X545740Y179102D01*
X545796Y179620D01*
X545870Y180157D01*
X545981Y180713D01*
X546129Y181250D01*
Y181268D01*
X546166Y181342D01*
X546203Y181435D01*
X546259Y181565D01*
X546333Y181713D01*
X546426Y181898D01*
X546666Y182268D01*
X546963Y182638D01*
X547148Y182805D01*
X547333Y182953D01*
X547555Y183083D01*
X547796Y183175D01*
X548036Y183249D01*
X548314Y183268D01*
X548388D01*
X548462Y183249D01*
D02*
G37*
G36*
X543204Y183231D02*
X543315Y183175D01*
X543407Y183120D01*
X543500Y183027D01*
X543555Y182898D01*
X543574Y182712D01*
Y173251D01*
Y173232D01*
Y173176D01*
X543555Y173084D01*
X543500Y172991D01*
X543444Y172899D01*
X543352Y172806D01*
X543222Y172751D01*
X543037Y172732D01*
X542963D01*
X542870Y172769D01*
X542778Y172806D01*
X542685Y172862D01*
X542593Y172954D01*
X542537Y173084D01*
X542519Y173251D01*
Y181453D01*
X541296Y180231D01*
X541278Y180213D01*
X541204Y180157D01*
X541074Y180102D01*
X540926Y180083D01*
X540852D01*
X540759Y180120D01*
X540667Y180157D01*
X540574Y180213D01*
X540482Y180305D01*
X540426Y180435D01*
X540408Y180602D01*
Y180620D01*
Y180639D01*
X540426Y180731D01*
X540463Y180861D01*
X540556Y180972D01*
X542611Y183027D01*
X542630Y183046D01*
X542648Y183064D01*
X542741Y183138D01*
X542870Y183212D01*
X542963Y183249D01*
X543130D01*
X543204Y183231D01*
D02*
G37*
G36*
X537945Y183249D02*
X538056Y183194D01*
X538149Y183138D01*
X538241Y183046D01*
X538297Y182916D01*
X538315Y182731D01*
Y182712D01*
Y182657D01*
X538297Y182564D01*
X538241Y182472D01*
X538186Y182379D01*
X538093Y182287D01*
X537963Y182231D01*
X537778Y182213D01*
X535575D01*
X535445Y182194D01*
X535297Y182157D01*
X535112Y182101D01*
X534927Y182009D01*
X534742Y181898D01*
X534556Y181750D01*
X534538Y181731D01*
X534482Y181676D01*
X534408Y181565D01*
X534334Y181435D01*
X534260Y181268D01*
X534186Y181083D01*
X534131Y180861D01*
X534112Y180620D01*
Y175361D01*
Y175324D01*
Y175250D01*
X534131Y175121D01*
X534168Y174972D01*
X534223Y174787D01*
X534297Y174602D01*
X534408Y174417D01*
X534556Y174232D01*
X534575Y174213D01*
X534649Y174158D01*
X534742Y174084D01*
X534871Y174010D01*
X535038Y173936D01*
X535223Y173862D01*
X535445Y173806D01*
X535686Y173787D01*
X537871D01*
X537945Y173769D01*
X538056Y173713D01*
X538149Y173658D01*
X538241Y173565D01*
X538297Y173436D01*
X538315Y173251D01*
Y173232D01*
Y173176D01*
X538297Y173084D01*
X538241Y172991D01*
X538186Y172899D01*
X538093Y172806D01*
X537963Y172751D01*
X537778Y172732D01*
X535575D01*
X535501Y172751D01*
X535297Y172769D01*
X535038Y172825D01*
X534742Y172917D01*
X534445Y173047D01*
X534112Y173232D01*
X533816Y173491D01*
X533779Y173528D01*
X533705Y173639D01*
X533575Y173787D01*
X533445Y174010D01*
X533297Y174287D01*
X533168Y174602D01*
X533093Y174972D01*
X533056Y175361D01*
Y180620D01*
Y180639D01*
Y180676D01*
Y180731D01*
X533075Y180805D01*
X533093Y181009D01*
X533149Y181268D01*
X533242Y181565D01*
X533371Y181879D01*
X533556Y182194D01*
X533816Y182490D01*
X533853Y182527D01*
X533964Y182620D01*
X534112Y182731D01*
X534334Y182879D01*
X534612Y183027D01*
X534927Y183138D01*
X535297Y183231D01*
X535686Y183268D01*
X537871D01*
X537945Y183249D01*
D02*
G37*
G36*
X366425Y142231D02*
X366536Y142175D01*
X366629Y142120D01*
X366722Y142027D01*
X366777Y141898D01*
X366796Y141713D01*
Y132250D01*
Y132232D01*
Y132176D01*
X366777Y132084D01*
X366722Y131991D01*
X366666Y131899D01*
X366573Y131806D01*
X366444Y131751D01*
X366259Y131732D01*
X366185D01*
X366092Y131769D01*
X365999Y131806D01*
X365907Y131862D01*
X365814Y131954D01*
X365759Y132084D01*
X365740Y132250D01*
Y140453D01*
X364518Y139231D01*
X364500Y139213D01*
X364426Y139157D01*
X364296Y139102D01*
X364148Y139083D01*
X364074D01*
X363981Y139120D01*
X363889Y139157D01*
X363796Y139213D01*
X363703Y139305D01*
X363648Y139435D01*
X363629Y139602D01*
Y139620D01*
Y139639D01*
X363648Y139731D01*
X363685Y139861D01*
X363778Y139972D01*
X365833Y142027D01*
X365851Y142046D01*
X365870Y142064D01*
X365962Y142138D01*
X366092Y142212D01*
X366185Y142249D01*
X366351D01*
X366425Y142231D01*
D02*
G37*
G36*
X361167Y142249D02*
X361278Y142194D01*
X361370Y142138D01*
X361463Y142046D01*
X361519Y141916D01*
X361537Y141731D01*
Y141713D01*
Y141657D01*
X361519Y141564D01*
X361463Y141472D01*
X361407Y141379D01*
X361315Y141287D01*
X361185Y141231D01*
X361000Y141213D01*
X358908D01*
Y132250D01*
Y132232D01*
Y132176D01*
X358889Y132084D01*
X358834Y131991D01*
X358778Y131899D01*
X358685Y131806D01*
X358556Y131751D01*
X358371Y131732D01*
X358297D01*
X358204Y131769D01*
X358111Y131806D01*
X358019Y131862D01*
X357926Y131954D01*
X357871Y132084D01*
X357852Y132250D01*
Y141213D01*
X355667D01*
X355575Y141250D01*
X355482Y141287D01*
X355371Y141342D01*
X355297Y141435D01*
X355223Y141564D01*
X355204Y141731D01*
Y141749D01*
Y141824D01*
X355241Y141898D01*
X355278Y142009D01*
X355334Y142101D01*
X355426Y142194D01*
X355556Y142249D01*
X355741Y142268D01*
X361093D01*
X361167Y142249D01*
D02*
G37*
G36*
X330262Y15426D02*
X330466Y15407D01*
X330725Y15352D01*
X331003Y15259D01*
X331318Y15111D01*
X331633Y14926D01*
X331929Y14667D01*
X331966Y14629D01*
X332058Y14537D01*
X332170Y14370D01*
X332318Y14148D01*
X332466Y13889D01*
X332577Y13574D01*
X332670Y13204D01*
X332707Y12815D01*
Y9649D01*
Y9611D01*
Y9537D01*
X332688Y9389D01*
X332670Y9204D01*
X332633Y8982D01*
X332577Y8723D01*
X332503Y8426D01*
X332392Y8130D01*
X332262Y7797D01*
X332096Y7445D01*
X331892Y7093D01*
X331651Y6741D01*
X331373Y6389D01*
X331040Y6056D01*
X330651Y5723D01*
X330207Y5427D01*
X330170Y5408D01*
X330077Y5353D01*
X329929Y5260D01*
X329762Y5186D01*
X329577Y5093D01*
X329374Y5001D01*
X329188Y4945D01*
X329022Y4927D01*
X328985D01*
X328892Y4945D01*
X328781Y4982D01*
X328652Y5075D01*
X328633Y5112D01*
X328577Y5186D01*
X328522Y5297D01*
X328503Y5445D01*
Y5464D01*
Y5501D01*
X328522Y5575D01*
X328540Y5649D01*
X328615Y5797D01*
X328670Y5853D01*
X328763Y5890D01*
X328781Y5908D01*
X328855Y5927D01*
X328966Y5964D01*
X329096Y6019D01*
X329411Y6167D01*
X329559Y6241D01*
X329707Y6334D01*
X329725Y6352D01*
X329781Y6389D01*
X329874Y6445D01*
X329985Y6538D01*
X330114Y6649D01*
X330262Y6778D01*
X330411Y6927D01*
X330577Y7093D01*
X330762Y7278D01*
X330929Y7501D01*
X331077Y7723D01*
X331225Y7982D01*
X331355Y8241D01*
X331466Y8519D01*
X331559Y8815D01*
X331614Y9130D01*
X329948D01*
X329874Y9148D01*
X329670Y9167D01*
X329429Y9223D01*
X329133Y9315D01*
X328818Y9445D01*
X328503Y9630D01*
X328207Y9889D01*
X328170Y9926D01*
X328096Y10037D01*
X327966Y10186D01*
X327837Y10408D01*
X327689Y10685D01*
X327559Y11000D01*
X327485Y11371D01*
X327448Y11759D01*
Y12796D01*
Y12815D01*
Y12852D01*
Y12907D01*
X327466Y12981D01*
X327485Y13185D01*
X327541Y13444D01*
X327633Y13741D01*
X327763Y14055D01*
X327948Y14370D01*
X328207Y14667D01*
X328244Y14704D01*
X328355Y14796D01*
X328503Y14907D01*
X328726Y15055D01*
X329003Y15203D01*
X329318Y15315D01*
X329688Y15407D01*
X330077Y15444D01*
X330188D01*
X330262Y15426D01*
D02*
G37*
G36*
X322393Y15444D02*
X322504D01*
X322634Y15407D01*
X322948Y15352D01*
X323300Y15240D01*
X323671Y15074D01*
X323856Y14963D01*
X324041Y14852D01*
X324226Y14704D01*
X324411Y14537D01*
X324430Y14518D01*
X324448Y14500D01*
X324504Y14444D01*
X324559Y14370D01*
X324633Y14278D01*
X324707Y14167D01*
X324874Y13907D01*
X325041Y13592D01*
X325189Y13204D01*
X325300Y12778D01*
X325318Y12537D01*
X325337Y12296D01*
Y12278D01*
Y12204D01*
X325318Y12093D01*
X325300Y11945D01*
X325281Y11759D01*
X325244Y11574D01*
X325170Y11352D01*
X325096Y11111D01*
X325004Y10871D01*
X324874Y10611D01*
X324726Y10371D01*
X324541Y10130D01*
X324319Y9908D01*
X324059Y9704D01*
X323763Y9519D01*
X323430Y9352D01*
X325281Y5686D01*
X325300Y5667D01*
X325318Y5612D01*
X325337Y5538D01*
Y5445D01*
Y5408D01*
X325318Y5316D01*
X325263Y5204D01*
X325170Y5075D01*
X325133Y5056D01*
X325059Y5001D01*
X324948Y4945D01*
X324800Y4927D01*
X324744D01*
X324689Y4945D01*
X324615Y4964D01*
X324541Y5001D01*
X324467Y5038D01*
X324393Y5112D01*
X324337Y5204D01*
X322374Y9130D01*
X320078D01*
Y5445D01*
Y5427D01*
Y5371D01*
X320060Y5279D01*
X320004Y5186D01*
X319949Y5093D01*
X319856Y5001D01*
X319727Y4945D01*
X319541Y4927D01*
X319467D01*
X319375Y4964D01*
X319282Y5001D01*
X319189Y5056D01*
X319097Y5149D01*
X319041Y5279D01*
X319023Y5445D01*
Y14926D01*
Y14944D01*
Y15018D01*
X319060Y15092D01*
X319097Y15203D01*
X319153Y15296D01*
X319245Y15389D01*
X319375Y15444D01*
X319541Y15463D01*
X322300D01*
X322393Y15444D01*
D02*
G37*
G36*
X349851Y166231D02*
X349944Y166175D01*
X350037Y166120D01*
X350129Y166027D01*
X350185Y165898D01*
X350203Y165713D01*
Y165694D01*
Y165676D01*
X350185Y165564D01*
X348259Y158898D01*
X350740D01*
Y160472D01*
Y160491D01*
Y160546D01*
X350777Y160639D01*
X350814Y160732D01*
X350870Y160824D01*
X350962Y160917D01*
X351092Y160972D01*
X351259Y160991D01*
X351351D01*
X351425Y160972D01*
X351536Y160935D01*
X351629Y160861D01*
X351722Y160769D01*
X351777Y160639D01*
X351796Y160472D01*
Y158898D01*
X352925D01*
X352999Y158880D01*
X353110Y158824D01*
X353203Y158769D01*
X353296Y158676D01*
X353351Y158547D01*
X353370Y158361D01*
Y158343D01*
Y158287D01*
X353351Y158195D01*
X353296Y158102D01*
X353240Y158010D01*
X353147Y157917D01*
X353018Y157861D01*
X352833Y157843D01*
X351796D01*
Y156250D01*
Y156232D01*
Y156176D01*
X351777Y156084D01*
X351722Y155991D01*
X351666Y155899D01*
X351573Y155806D01*
X351444Y155751D01*
X351259Y155732D01*
X351185D01*
X351092Y155769D01*
X350999Y155806D01*
X350907Y155862D01*
X350814Y155954D01*
X350759Y156084D01*
X350740Y156250D01*
Y157843D01*
X347500D01*
X347407Y157880D01*
X347315Y157917D01*
X347222Y157973D01*
X347130Y158065D01*
X347074Y158195D01*
X347055Y158361D01*
Y158380D01*
Y158417D01*
Y158510D01*
X349166Y165861D01*
Y165879D01*
X349185Y165916D01*
X349222Y165990D01*
X349277Y166064D01*
X349352Y166120D01*
X349426Y166194D01*
X349555Y166231D01*
X349685Y166250D01*
X349759D01*
X349851Y166231D01*
D02*
G37*
G36*
X342000Y166250D02*
X342112D01*
X342241Y166212D01*
X342556Y166157D01*
X342908Y166046D01*
X343278Y165879D01*
X343463Y165768D01*
X343648Y165657D01*
X343834Y165509D01*
X344019Y165342D01*
X344037Y165324D01*
X344056Y165305D01*
X344111Y165250D01*
X344167Y165175D01*
X344241Y165083D01*
X344315Y164972D01*
X344482Y164713D01*
X344648Y164398D01*
X344796Y164009D01*
X344907Y163583D01*
X344926Y163342D01*
X344944Y163102D01*
Y163083D01*
Y163009D01*
X344926Y162898D01*
X344907Y162750D01*
X344889Y162565D01*
X344852Y162379D01*
X344778Y162157D01*
X344704Y161917D01*
X344611Y161676D01*
X344482Y161417D01*
X344333Y161176D01*
X344148Y160935D01*
X343926Y160713D01*
X343667Y160509D01*
X343371Y160324D01*
X343037Y160158D01*
X344889Y156491D01*
X344907Y156473D01*
X344926Y156417D01*
X344944Y156343D01*
Y156250D01*
Y156214D01*
X344926Y156121D01*
X344870Y156010D01*
X344778Y155880D01*
X344741Y155862D01*
X344667Y155806D01*
X344556Y155751D01*
X344408Y155732D01*
X344352D01*
X344296Y155751D01*
X344222Y155769D01*
X344148Y155806D01*
X344074Y155843D01*
X344000Y155917D01*
X343945Y156010D01*
X341982Y159935D01*
X339686D01*
Y156250D01*
Y156232D01*
Y156176D01*
X339667Y156084D01*
X339612Y155991D01*
X339556Y155899D01*
X339464Y155806D01*
X339334Y155751D01*
X339149Y155732D01*
X339075D01*
X338982Y155769D01*
X338890Y155806D01*
X338797Y155862D01*
X338704Y155954D01*
X338649Y156084D01*
X338630Y156250D01*
Y165731D01*
Y165749D01*
Y165824D01*
X338667Y165898D01*
X338704Y166009D01*
X338760Y166101D01*
X338853Y166194D01*
X338982Y166250D01*
X339149Y166268D01*
X341908D01*
X342000Y166250D01*
D02*
G37*
G36*
X357887Y32420D02*
X357998Y32364D01*
X358090Y32309D01*
X358183Y32216D01*
X358238Y32087D01*
X358257Y31901D01*
Y22439D01*
Y22421D01*
Y22365D01*
X358238Y22273D01*
X358183Y22180D01*
X358127Y22088D01*
X358035Y21995D01*
X357905Y21939D01*
X357720Y21921D01*
X357646D01*
X357553Y21958D01*
X357461Y21995D01*
X357368Y22051D01*
X357276Y22143D01*
X357220Y22273D01*
X357201Y22439D01*
Y30642D01*
X355979Y29420D01*
X355961Y29402D01*
X355887Y29346D01*
X355757Y29291D01*
X355609Y29272D01*
X355535D01*
X355442Y29309D01*
X355350Y29346D01*
X355257Y29402D01*
X355165Y29494D01*
X355109Y29624D01*
X355091Y29790D01*
Y29809D01*
Y29828D01*
X355109Y29920D01*
X355146Y30050D01*
X355239Y30161D01*
X357294Y32216D01*
X357313Y32235D01*
X357331Y32253D01*
X357424Y32327D01*
X357553Y32401D01*
X357646Y32438D01*
X357813D01*
X357887Y32420D01*
D02*
G37*
G36*
X350054Y32438D02*
X350165D01*
X350295Y32401D01*
X350610Y32346D01*
X350961Y32235D01*
X351332Y32068D01*
X351517Y31957D01*
X351702Y31846D01*
X351887Y31698D01*
X352072Y31531D01*
X352091Y31513D01*
X352109Y31494D01*
X352165Y31439D01*
X352221Y31364D01*
X352295Y31272D01*
X352369Y31161D01*
X352535Y30902D01*
X352702Y30587D01*
X352850Y30198D01*
X352961Y29772D01*
X352980Y29531D01*
X352998Y29291D01*
Y29272D01*
Y29198D01*
X352980Y29087D01*
X352961Y28939D01*
X352943Y28754D01*
X352906Y28568D01*
X352832Y28346D01*
X352757Y28105D01*
X352665Y27865D01*
X352535Y27606D01*
X352387Y27365D01*
X352202Y27124D01*
X351980Y26902D01*
X351721Y26698D01*
X351424Y26513D01*
X351091Y26346D01*
X352943Y22680D01*
X352961Y22662D01*
X352980Y22606D01*
X352998Y22532D01*
Y22439D01*
Y22402D01*
X352980Y22310D01*
X352924Y22199D01*
X352832Y22069D01*
X352795Y22051D01*
X352720Y21995D01*
X352609Y21939D01*
X352461Y21921D01*
X352406D01*
X352350Y21939D01*
X352276Y21958D01*
X352202Y21995D01*
X352128Y22032D01*
X352054Y22106D01*
X351998Y22199D01*
X350036Y26124D01*
X347739D01*
Y22439D01*
Y22421D01*
Y22365D01*
X347721Y22273D01*
X347665Y22180D01*
X347610Y22088D01*
X347517Y21995D01*
X347388Y21939D01*
X347203Y21921D01*
X347128D01*
X347036Y21958D01*
X346943Y21995D01*
X346851Y22051D01*
X346758Y22143D01*
X346703Y22273D01*
X346684Y22439D01*
Y31920D01*
Y31938D01*
Y32013D01*
X346721Y32087D01*
X346758Y32198D01*
X346814Y32290D01*
X346906Y32383D01*
X347036Y32438D01*
X347203Y32457D01*
X349962D01*
X350054Y32438D01*
D02*
G37*
G36*
X407944Y29249D02*
X408036Y29212D01*
X408129Y29138D01*
X408222Y29046D01*
X408277Y28916D01*
X408314Y28749D01*
Y28712D01*
X408296Y28620D01*
X407388Y24528D01*
X407870D01*
X407944Y24509D01*
X408055Y24454D01*
X408148Y24398D01*
X408240Y24306D01*
X408296Y24176D01*
X408314Y23991D01*
Y23972D01*
Y23917D01*
X408296Y23824D01*
X408240Y23732D01*
X408185Y23639D01*
X408092Y23546D01*
X407962Y23491D01*
X407777Y23472D01*
X407129D01*
X406185Y19139D01*
Y19121D01*
X406166Y19084D01*
X406129Y19010D01*
X406074Y18936D01*
X406018Y18862D01*
X405925Y18788D01*
X405814Y18751D01*
X405666Y18732D01*
X405592D01*
X405500Y18769D01*
X405407Y18806D01*
X405314Y18862D01*
X405222Y18954D01*
X405166Y19084D01*
X405148Y19251D01*
Y19269D01*
Y19288D01*
Y19362D01*
X406055Y23472D01*
X405592D01*
X405500Y23509D01*
X405407Y23546D01*
X405314Y23602D01*
X405222Y23695D01*
X405166Y23824D01*
X405148Y23991D01*
Y24009D01*
Y24083D01*
X405185Y24157D01*
X405222Y24269D01*
X405277Y24361D01*
X405370Y24454D01*
X405500Y24509D01*
X405666Y24528D01*
X406296D01*
X407111Y28212D01*
X403481D01*
X403389Y28250D01*
X403296Y28287D01*
X403204Y28342D01*
X403111Y28435D01*
X403055Y28564D01*
X403037Y28731D01*
Y28749D01*
Y28824D01*
X403074Y28898D01*
X403111Y29009D01*
X403167Y29101D01*
X403259Y29194D01*
X403389Y29249D01*
X403555Y29268D01*
X407851D01*
X407944Y29249D01*
D02*
G37*
G36*
X400574D02*
X400685Y29194D01*
X400778Y29138D01*
X400871Y29046D01*
X400926Y28916D01*
X400945Y28731D01*
Y28712D01*
Y28657D01*
X400926Y28564D01*
X400871Y28472D01*
X400815Y28379D01*
X400722Y28287D01*
X400593Y28231D01*
X400408Y28212D01*
X398204D01*
X398074Y28194D01*
X397926Y28157D01*
X397741Y28101D01*
X397556Y28009D01*
X397371Y27898D01*
X397186Y27750D01*
X397167Y27731D01*
X397112Y27676D01*
X397038Y27564D01*
X396964Y27435D01*
X396889Y27268D01*
X396815Y27083D01*
X396760Y26861D01*
X396741Y26620D01*
Y21361D01*
Y21324D01*
Y21250D01*
X396760Y21121D01*
X396797Y20973D01*
X396852Y20787D01*
X396926Y20602D01*
X397038Y20417D01*
X397186Y20232D01*
X397204Y20213D01*
X397278Y20158D01*
X397371Y20084D01*
X397500Y20010D01*
X397667Y19936D01*
X397852Y19862D01*
X398074Y19806D01*
X398315Y19787D01*
X400500D01*
X400574Y19769D01*
X400685Y19713D01*
X400778Y19658D01*
X400871Y19565D01*
X400926Y19436D01*
X400945Y19251D01*
Y19232D01*
Y19176D01*
X400926Y19084D01*
X400871Y18991D01*
X400815Y18899D01*
X400722Y18806D01*
X400593Y18751D01*
X400408Y18732D01*
X398204D01*
X398130Y18751D01*
X397926Y18769D01*
X397667Y18825D01*
X397371Y18917D01*
X397075Y19047D01*
X396741Y19232D01*
X396445Y19491D01*
X396408Y19528D01*
X396334Y19639D01*
X396204Y19787D01*
X396075Y20010D01*
X395927Y20287D01*
X395797Y20602D01*
X395723Y20973D01*
X395686Y21361D01*
Y26620D01*
Y26639D01*
Y26676D01*
Y26731D01*
X395704Y26805D01*
X395723Y27009D01*
X395778Y27268D01*
X395871Y27564D01*
X396001Y27879D01*
X396186Y28194D01*
X396445Y28490D01*
X396482Y28527D01*
X396593Y28620D01*
X396741Y28731D01*
X396964Y28879D01*
X397241Y29027D01*
X397556Y29138D01*
X397926Y29231D01*
X398315Y29268D01*
X400500D01*
X400574Y29249D01*
D02*
G37*
G36*
X268888Y101240D02*
X269000Y101185D01*
X269092Y101129D01*
X269185Y101037D01*
X269240Y100907D01*
X269259Y100722D01*
Y91260D01*
Y91241D01*
Y91186D01*
X269240Y91093D01*
X269185Y91000D01*
X269129Y90908D01*
X269037Y90815D01*
X268907Y90760D01*
X268722Y90741D01*
X268648D01*
X268555Y90778D01*
X268463Y90815D01*
X268370Y90871D01*
X268277Y90963D01*
X268222Y91093D01*
X268203Y91260D01*
Y99463D01*
X266981Y98240D01*
X266963Y98222D01*
X266889Y98167D01*
X266759Y98111D01*
X266611Y98092D01*
X266537D01*
X266444Y98129D01*
X266352Y98167D01*
X266259Y98222D01*
X266166Y98315D01*
X266111Y98444D01*
X266092Y98611D01*
Y98629D01*
Y98648D01*
X266111Y98741D01*
X266148Y98870D01*
X266241Y98981D01*
X268296Y101037D01*
X268314Y101055D01*
X268333Y101074D01*
X268426Y101148D01*
X268555Y101222D01*
X268648Y101259D01*
X268814D01*
X268888Y101240D01*
D02*
G37*
G36*
X259426D02*
X259538Y101185D01*
X259630Y101129D01*
X259723Y101037D01*
X259778Y100907D01*
X259797Y100722D01*
Y91797D01*
X263556D01*
X263630Y91778D01*
X263741Y91723D01*
X263833Y91667D01*
X263926Y91574D01*
X263981Y91445D01*
X264000Y91260D01*
Y91241D01*
Y91186D01*
X263981Y91093D01*
X263926Y91000D01*
X263870Y90908D01*
X263778Y90815D01*
X263648Y90760D01*
X263463Y90741D01*
X259186D01*
X259093Y90778D01*
X259000Y90815D01*
X258908Y90871D01*
X258815Y90963D01*
X258760Y91093D01*
X258741Y91260D01*
Y100722D01*
Y100740D01*
Y100814D01*
X258778Y100888D01*
X258815Y100999D01*
X258871Y101092D01*
X258964Y101185D01*
X259093Y101240D01*
X259260Y101259D01*
X259352D01*
X259426Y101240D01*
D02*
G37*
G36*
X316425Y166231D02*
X316537Y166175D01*
X316629Y166120D01*
X316722Y166027D01*
X316777Y165898D01*
X316796Y165713D01*
Y156250D01*
Y156232D01*
Y156176D01*
X316777Y156084D01*
X316722Y155991D01*
X316666Y155899D01*
X316574Y155806D01*
X316444Y155751D01*
X316259Y155732D01*
X316185D01*
X316092Y155769D01*
X316000Y155806D01*
X315907Y155862D01*
X315814Y155954D01*
X315759Y156084D01*
X315740Y156250D01*
Y164453D01*
X314518Y163231D01*
X314500Y163213D01*
X314426Y163157D01*
X314296Y163102D01*
X314148Y163083D01*
X314074D01*
X313981Y163120D01*
X313889Y163157D01*
X313796Y163213D01*
X313703Y163305D01*
X313648Y163435D01*
X313629Y163602D01*
Y163620D01*
Y163639D01*
X313648Y163731D01*
X313685Y163861D01*
X313778Y163972D01*
X315833Y166027D01*
X315851Y166046D01*
X315870Y166064D01*
X315962Y166138D01*
X316092Y166212D01*
X316185Y166250D01*
X316351D01*
X316425Y166231D01*
D02*
G37*
G36*
X311167Y166250D02*
X311259Y166194D01*
X311352Y166138D01*
X311444Y166046D01*
X311500Y165916D01*
X311518Y165731D01*
Y165713D01*
X311500Y165638D01*
X311481Y165546D01*
X311426Y165416D01*
X306630Y156788D01*
X311074D01*
X311167Y156769D01*
X311259Y156713D01*
X311352Y156658D01*
X311444Y156565D01*
X311500Y156436D01*
X311518Y156250D01*
Y156232D01*
Y156176D01*
X311500Y156084D01*
X311463Y155991D01*
X311389Y155899D01*
X311296Y155806D01*
X311167Y155751D01*
X311000Y155732D01*
X305667D01*
X305575Y155769D01*
X305482Y155806D01*
X305371Y155862D01*
X305297Y155954D01*
X305223Y156084D01*
X305204Y156250D01*
Y156269D01*
X305223Y156343D01*
X305260Y156436D01*
X305315Y156565D01*
X310111Y165212D01*
X305667D01*
X305575Y165250D01*
X305482Y165287D01*
X305371Y165342D01*
X305297Y165435D01*
X305223Y165564D01*
X305204Y165731D01*
Y165749D01*
Y165824D01*
X305241Y165898D01*
X305278Y166009D01*
X305334Y166101D01*
X305427Y166194D01*
X305556Y166250D01*
X305741Y166268D01*
X311074D01*
X311167Y166250D01*
D02*
G37*
G36*
X193046Y180231D02*
X193157Y180175D01*
X193249Y180120D01*
X193342Y180027D01*
X193397Y179898D01*
X193416Y179713D01*
Y170250D01*
Y170232D01*
Y170176D01*
X193397Y170084D01*
X193342Y169991D01*
X193286Y169899D01*
X193194Y169806D01*
X193064Y169751D01*
X192879Y169732D01*
X192805D01*
X192712Y169769D01*
X192620Y169806D01*
X192527Y169862D01*
X192434Y169954D01*
X192379Y170084D01*
X192360Y170250D01*
Y178453D01*
X191138Y177231D01*
X191120Y177213D01*
X191046Y177157D01*
X190916Y177102D01*
X190768Y177083D01*
X190694D01*
X190601Y177120D01*
X190509Y177157D01*
X190416Y177213D01*
X190324Y177305D01*
X190268Y177435D01*
X190250Y177602D01*
Y177620D01*
Y177639D01*
X190268Y177731D01*
X190305Y177861D01*
X190398Y177972D01*
X192453Y180027D01*
X192472Y180046D01*
X192490Y180064D01*
X192583Y180138D01*
X192712Y180212D01*
X192805Y180250D01*
X192971D01*
X193046Y180231D01*
D02*
G37*
G36*
X187787D02*
X187898Y180175D01*
X187990Y180120D01*
X188083Y180027D01*
X188139Y179898D01*
X188157Y179713D01*
Y170250D01*
Y170232D01*
Y170176D01*
X188139Y170084D01*
X188083Y169991D01*
X188027Y169899D01*
X187935Y169806D01*
X187805Y169751D01*
X187620Y169732D01*
X187546D01*
X187453Y169769D01*
X187361Y169806D01*
X187268Y169862D01*
X187176Y169954D01*
X187120Y170084D01*
X187102Y170250D01*
Y178453D01*
X185880Y177231D01*
X185861Y177213D01*
X185787Y177157D01*
X185657Y177102D01*
X185509Y177083D01*
X185435D01*
X185343Y177120D01*
X185250Y177157D01*
X185157Y177213D01*
X185065Y177305D01*
X185009Y177435D01*
X184991Y177602D01*
Y177620D01*
Y177639D01*
X185009Y177731D01*
X185046Y177861D01*
X185139Y177972D01*
X187194Y180027D01*
X187213Y180046D01*
X187231Y180064D01*
X187324Y180138D01*
X187453Y180212D01*
X187546Y180250D01*
X187713D01*
X187787Y180231D01*
D02*
G37*
G36*
X179954Y180250D02*
X180065D01*
X180195Y180212D01*
X180510Y180157D01*
X180862Y180046D01*
X181232Y179879D01*
X181417Y179768D01*
X181602Y179657D01*
X181787Y179509D01*
X181973Y179342D01*
X181991Y179324D01*
X182010Y179305D01*
X182065Y179250D01*
X182121Y179175D01*
X182195Y179083D01*
X182269Y178972D01*
X182435Y178713D01*
X182602Y178398D01*
X182750Y178009D01*
X182861Y177583D01*
X182880Y177342D01*
X182898Y177102D01*
Y177083D01*
Y177009D01*
X182880Y176898D01*
X182861Y176750D01*
X182843Y176565D01*
X182806Y176380D01*
X182732Y176157D01*
X182658Y175917D01*
X182565Y175676D01*
X182435Y175417D01*
X182287Y175176D01*
X182102Y174935D01*
X181880Y174713D01*
X181621Y174509D01*
X181325Y174324D01*
X180991Y174158D01*
X182843Y170491D01*
X182861Y170473D01*
X182880Y170417D01*
X182898Y170343D01*
Y170250D01*
Y170214D01*
X182880Y170121D01*
X182824Y170010D01*
X182732Y169880D01*
X182695Y169862D01*
X182621Y169806D01*
X182509Y169751D01*
X182361Y169732D01*
X182306D01*
X182250Y169751D01*
X182176Y169769D01*
X182102Y169806D01*
X182028Y169843D01*
X181954Y169917D01*
X181898Y170010D01*
X179936Y173935D01*
X177640D01*
Y170250D01*
Y170232D01*
Y170176D01*
X177621Y170084D01*
X177566Y169991D01*
X177510Y169899D01*
X177418Y169806D01*
X177288Y169751D01*
X177103Y169732D01*
X177029D01*
X176936Y169769D01*
X176843Y169806D01*
X176751Y169862D01*
X176658Y169954D01*
X176603Y170084D01*
X176584Y170250D01*
Y179731D01*
Y179750D01*
Y179824D01*
X176621Y179898D01*
X176658Y180009D01*
X176714Y180101D01*
X176806Y180194D01*
X176936Y180250D01*
X177103Y180268D01*
X179862D01*
X179954Y180250D01*
D02*
G37*
G36*
X197990Y15250D02*
X198083Y15231D01*
X198212Y15212D01*
X198342Y15157D01*
X198508Y15101D01*
X198675Y15009D01*
X198842Y14916D01*
X199027Y14768D01*
X199194Y14620D01*
X199379Y14416D01*
X199545Y14194D01*
X199712Y13916D01*
X199879Y13601D01*
X200008Y13250D01*
Y13231D01*
X200027Y13194D01*
X200045Y13120D01*
X200082Y13009D01*
X200119Y12879D01*
X200156Y12713D01*
X200194Y12528D01*
X200249Y12324D01*
X200286Y12102D01*
X200323Y11861D01*
X200360Y11583D01*
X200397Y11305D01*
X200453Y10676D01*
X200471Y9991D01*
Y9972D01*
Y9917D01*
Y9806D01*
Y9676D01*
X200453Y9509D01*
Y9324D01*
X200434Y9102D01*
X200416Y8880D01*
X200360Y8361D01*
X200268Y7824D01*
X200156Y7269D01*
X200008Y6732D01*
Y6713D01*
X199971Y6639D01*
X199934Y6547D01*
X199879Y6417D01*
X199805Y6269D01*
X199712Y6102D01*
X199490Y5732D01*
X199175Y5362D01*
X199008Y5195D01*
X198805Y5047D01*
X198601Y4917D01*
X198360Y4825D01*
X198120Y4751D01*
X197842Y4732D01*
X197768D01*
X197694Y4751D01*
X197601Y4769D01*
X197472Y4788D01*
X197323Y4843D01*
X197175Y4899D01*
X197009Y4991D01*
X196824Y5084D01*
X196657Y5214D01*
X196472Y5380D01*
X196287Y5584D01*
X196120Y5806D01*
X195953Y6065D01*
X195787Y6380D01*
X195657Y6732D01*
Y6750D01*
X195638Y6787D01*
X195620Y6880D01*
X195583Y6973D01*
X195546Y7102D01*
X195509Y7269D01*
X195472Y7454D01*
X195435Y7658D01*
X195398Y7880D01*
X195361Y8139D01*
X195324Y8398D01*
X195287Y8695D01*
X195231Y9306D01*
X195212Y9991D01*
Y10009D01*
Y10083D01*
Y10176D01*
Y10306D01*
X195231Y10472D01*
Y10657D01*
X195250Y10880D01*
X195268Y11102D01*
X195324Y11620D01*
X195398Y12157D01*
X195509Y12713D01*
X195657Y13250D01*
Y13268D01*
X195694Y13342D01*
X195731Y13435D01*
X195787Y13564D01*
X195861Y13713D01*
X195953Y13898D01*
X196194Y14268D01*
X196490Y14638D01*
X196675Y14805D01*
X196861Y14953D01*
X197083Y15083D01*
X197323Y15175D01*
X197564Y15250D01*
X197842Y15268D01*
X197916D01*
X197990Y15250D01*
D02*
G37*
G36*
X192731Y15231D02*
X192842Y15175D01*
X192935Y15120D01*
X193028Y15027D01*
X193083Y14898D01*
X193102Y14713D01*
Y5250D01*
Y5232D01*
Y5176D01*
X193083Y5084D01*
X193028Y4991D01*
X192972Y4899D01*
X192879Y4806D01*
X192750Y4751D01*
X192565Y4732D01*
X192491D01*
X192398Y4769D01*
X192305Y4806D01*
X192213Y4862D01*
X192120Y4954D01*
X192065Y5084D01*
X192046Y5250D01*
Y13453D01*
X190824Y12231D01*
X190806Y12213D01*
X190732Y12157D01*
X190602Y12102D01*
X190454Y12083D01*
X190380D01*
X190287Y12120D01*
X190194Y12157D01*
X190102Y12213D01*
X190009Y12305D01*
X189954Y12435D01*
X189935Y12602D01*
Y12620D01*
Y12639D01*
X189954Y12731D01*
X189991Y12861D01*
X190083Y12972D01*
X192139Y15027D01*
X192157Y15046D01*
X192176Y15064D01*
X192268Y15138D01*
X192398Y15212D01*
X192491Y15250D01*
X192657D01*
X192731Y15231D01*
D02*
G37*
G36*
X184899Y15250D02*
X185010D01*
X185140Y15212D01*
X185454Y15157D01*
X185806Y15046D01*
X186176Y14879D01*
X186362Y14768D01*
X186547Y14657D01*
X186732Y14509D01*
X186917Y14342D01*
X186936Y14324D01*
X186954Y14305D01*
X187010Y14250D01*
X187065Y14175D01*
X187139Y14083D01*
X187213Y13972D01*
X187380Y13713D01*
X187547Y13398D01*
X187695Y13009D01*
X187806Y12583D01*
X187824Y12342D01*
X187843Y12102D01*
Y12083D01*
Y12009D01*
X187824Y11898D01*
X187806Y11750D01*
X187787Y11565D01*
X187750Y11379D01*
X187676Y11157D01*
X187602Y10917D01*
X187510Y10676D01*
X187380Y10417D01*
X187232Y10176D01*
X187047Y9935D01*
X186824Y9713D01*
X186565Y9509D01*
X186269Y9324D01*
X185936Y9158D01*
X187787Y5491D01*
X187806Y5473D01*
X187824Y5417D01*
X187843Y5343D01*
Y5250D01*
Y5214D01*
X187824Y5121D01*
X187769Y5010D01*
X187676Y4880D01*
X187639Y4862D01*
X187565Y4806D01*
X187454Y4751D01*
X187306Y4732D01*
X187250D01*
X187195Y4751D01*
X187121Y4769D01*
X187047Y4806D01*
X186973Y4843D01*
X186899Y4917D01*
X186843Y5010D01*
X184880Y8935D01*
X182584D01*
Y5250D01*
Y5232D01*
Y5176D01*
X182566Y5084D01*
X182510Y4991D01*
X182455Y4899D01*
X182362Y4806D01*
X182232Y4751D01*
X182047Y4732D01*
X181973D01*
X181881Y4769D01*
X181788Y4806D01*
X181695Y4862D01*
X181603Y4954D01*
X181547Y5084D01*
X181529Y5250D01*
Y14731D01*
Y14749D01*
Y14824D01*
X181566Y14898D01*
X181603Y15009D01*
X181658Y15101D01*
X181751Y15194D01*
X181881Y15250D01*
X182047Y15268D01*
X184806D01*
X184899Y15250D01*
D02*
G37*
G36*
X77758Y110250D02*
X77962Y110231D01*
X78222Y110175D01*
X78518Y110083D01*
X78833Y109935D01*
X79147Y109749D01*
X79444Y109490D01*
X79481Y109453D01*
X79573Y109361D01*
X79684Y109194D01*
X79832Y108972D01*
X79981Y108694D01*
X80092Y108379D01*
X80184Y108009D01*
X80221Y107620D01*
Y107602D01*
Y107565D01*
Y107491D01*
X80203Y107398D01*
X80184Y107287D01*
X80166Y107157D01*
X80092Y106861D01*
X79962Y106528D01*
X79888Y106361D01*
X79777Y106176D01*
X79647Y106009D01*
X79518Y105824D01*
X79351Y105657D01*
X79166Y105509D01*
X79184D01*
X79203Y105472D01*
X79258Y105435D01*
X79332Y105361D01*
X79499Y105194D01*
X79703Y104954D01*
X79888Y104639D01*
X80055Y104287D01*
X80129Y104083D01*
X80184Y103861D01*
X80203Y103639D01*
X80221Y103398D01*
Y102361D01*
Y102343D01*
Y102306D01*
Y102250D01*
X80203Y102176D01*
X80184Y101973D01*
X80129Y101713D01*
X80036Y101417D01*
X79888Y101121D01*
X79703Y100787D01*
X79444Y100491D01*
X79406Y100454D01*
X79314Y100380D01*
X79147Y100251D01*
X78925Y100121D01*
X78647Y99973D01*
X78333Y99843D01*
X77962Y99769D01*
X77573Y99732D01*
X75407D01*
X75314Y99769D01*
X75222Y99806D01*
X75111Y99862D01*
X75037Y99954D01*
X74963Y100084D01*
X74944Y100251D01*
Y100269D01*
Y100343D01*
X74981Y100417D01*
X75018Y100528D01*
X75074Y100621D01*
X75166Y100713D01*
X75296Y100769D01*
X75481Y100787D01*
X77684D01*
X77814Y100806D01*
X77962Y100843D01*
X78147Y100899D01*
X78333Y100973D01*
X78518Y101084D01*
X78703Y101232D01*
X78721Y101250D01*
X78777Y101325D01*
X78851Y101417D01*
X78944Y101547D01*
X79018Y101713D01*
X79092Y101898D01*
X79147Y102121D01*
X79166Y102361D01*
Y103398D01*
Y103435D01*
Y103509D01*
X79147Y103639D01*
X79110Y103787D01*
X79055Y103972D01*
X78962Y104157D01*
X78851Y104343D01*
X78703Y104528D01*
X78684Y104546D01*
X78629Y104602D01*
X78518Y104676D01*
X78388Y104768D01*
X78222Y104843D01*
X78036Y104917D01*
X77814Y104972D01*
X77573Y104991D01*
X76444D01*
X76351Y105028D01*
X76259Y105065D01*
X76166Y105120D01*
X76073Y105213D01*
X76018Y105343D01*
X75999Y105509D01*
Y105528D01*
Y105602D01*
X76037Y105676D01*
X76073Y105787D01*
X76129Y105879D01*
X76222Y105972D01*
X76351Y106028D01*
X76518Y106046D01*
X77684D01*
X77814Y106065D01*
X77962Y106102D01*
X78147Y106157D01*
X78333Y106231D01*
X78518Y106342D01*
X78703Y106491D01*
X78721Y106509D01*
X78777Y106583D01*
X78851Y106676D01*
X78944Y106805D01*
X79018Y106972D01*
X79092Y107157D01*
X79147Y107379D01*
X79166Y107620D01*
Y107657D01*
Y107731D01*
X79147Y107842D01*
X79110Y108009D01*
X79055Y108176D01*
X78962Y108361D01*
X78851Y108546D01*
X78703Y108731D01*
X78684Y108750D01*
X78629Y108805D01*
X78518Y108879D01*
X78388Y108972D01*
X78222Y109064D01*
X78036Y109138D01*
X77814Y109194D01*
X77573Y109213D01*
X75407D01*
X75314Y109250D01*
X75222Y109287D01*
X75111Y109342D01*
X75037Y109435D01*
X74963Y109564D01*
X74944Y109731D01*
Y109749D01*
Y109824D01*
X74981Y109898D01*
X75018Y110009D01*
X75074Y110101D01*
X75166Y110194D01*
X75296Y110250D01*
X75481Y110268D01*
X77684D01*
X77758Y110250D01*
D02*
G37*
G36*
X72481Y110231D02*
X72592Y110175D01*
X72685Y110120D01*
X72778Y110027D01*
X72833Y109898D01*
X72852Y109712D01*
Y100251D01*
Y100232D01*
Y100176D01*
X72833Y100084D01*
X72778Y99991D01*
X72722Y99899D01*
X72629Y99806D01*
X72500Y99750D01*
X72315Y99732D01*
X72241D01*
X72148Y99769D01*
X72055Y99806D01*
X71963Y99862D01*
X71870Y99954D01*
X71815Y100084D01*
X71796Y100251D01*
Y108453D01*
X70574Y107231D01*
X70556Y107213D01*
X70482Y107157D01*
X70352Y107102D01*
X70204Y107083D01*
X70130D01*
X70037Y107120D01*
X69945Y107157D01*
X69852Y107213D01*
X69759Y107305D01*
X69704Y107435D01*
X69685Y107602D01*
Y107620D01*
Y107639D01*
X69704Y107731D01*
X69741Y107861D01*
X69833Y107972D01*
X71889Y110027D01*
X71907Y110046D01*
X71926Y110064D01*
X72018Y110138D01*
X72148Y110212D01*
X72241Y110250D01*
X72407D01*
X72481Y110231D01*
D02*
G37*
G36*
X64649Y110250D02*
X64760D01*
X64889Y110212D01*
X65204Y110157D01*
X65556Y110046D01*
X65926Y109879D01*
X66112Y109768D01*
X66297Y109657D01*
X66482Y109509D01*
X66667Y109342D01*
X66686Y109324D01*
X66704Y109305D01*
X66760Y109250D01*
X66815Y109176D01*
X66889Y109083D01*
X66963Y108972D01*
X67130Y108713D01*
X67297Y108398D01*
X67445Y108009D01*
X67556Y107583D01*
X67574Y107342D01*
X67593Y107102D01*
Y107083D01*
Y107009D01*
X67574Y106898D01*
X67556Y106750D01*
X67537Y106565D01*
X67500Y106379D01*
X67426Y106157D01*
X67352Y105917D01*
X67260Y105676D01*
X67130Y105417D01*
X66982Y105176D01*
X66797Y104935D01*
X66575Y104713D01*
X66315Y104509D01*
X66019Y104324D01*
X65686Y104157D01*
X67537Y100491D01*
X67556Y100473D01*
X67574Y100417D01*
X67593Y100343D01*
Y100251D01*
Y100213D01*
X67574Y100121D01*
X67519Y100010D01*
X67426Y99880D01*
X67389Y99862D01*
X67315Y99806D01*
X67204Y99750D01*
X67056Y99732D01*
X67000D01*
X66945Y99750D01*
X66871Y99769D01*
X66797Y99806D01*
X66723Y99843D01*
X66649Y99917D01*
X66593Y100010D01*
X64630Y103935D01*
X62334D01*
Y100251D01*
Y100232D01*
Y100176D01*
X62316Y100084D01*
X62260Y99991D01*
X62205Y99899D01*
X62112Y99806D01*
X61982Y99750D01*
X61797Y99732D01*
X61723D01*
X61631Y99769D01*
X61538Y99806D01*
X61445Y99862D01*
X61353Y99954D01*
X61297Y100084D01*
X61279Y100251D01*
Y109731D01*
Y109749D01*
Y109824D01*
X61316Y109898D01*
X61353Y110009D01*
X61408Y110101D01*
X61501Y110194D01*
X61631Y110250D01*
X61797Y110268D01*
X64556D01*
X64649Y110250D01*
D02*
G37*
G36*
X117953Y182250D02*
X118046Y182194D01*
X118138Y182138D01*
X118231Y182046D01*
X118286Y181916D01*
X118305Y181731D01*
Y181712D01*
Y181657D01*
X118286Y181564D01*
X118249Y181472D01*
X118175Y181379D01*
X118083Y181287D01*
X117953Y181231D01*
X117787Y181213D01*
X114639D01*
Y178046D01*
X116324D01*
X116398Y178028D01*
X116601Y178009D01*
X116861Y177954D01*
X117138Y177861D01*
X117453Y177713D01*
X117768Y177528D01*
X118064Y177269D01*
X118101Y177232D01*
X118194Y177139D01*
X118305Y176972D01*
X118453Y176750D01*
X118601Y176472D01*
X118712Y176157D01*
X118805Y175787D01*
X118842Y175398D01*
Y174361D01*
Y174343D01*
Y174306D01*
Y174250D01*
X118823Y174176D01*
X118805Y173973D01*
X118749Y173713D01*
X118657Y173417D01*
X118509Y173121D01*
X118323Y172787D01*
X118064Y172491D01*
X118027Y172454D01*
X117935Y172380D01*
X117768Y172250D01*
X117546Y172121D01*
X117268Y171973D01*
X116953Y171843D01*
X116601Y171769D01*
X116213Y171732D01*
X114028D01*
X113935Y171769D01*
X113842Y171806D01*
X113750Y171862D01*
X113657Y171954D01*
X113602Y172084D01*
X113583Y172250D01*
Y172269D01*
Y172343D01*
X113620Y172417D01*
X113657Y172528D01*
X113713Y172621D01*
X113805Y172713D01*
X113935Y172769D01*
X114102Y172787D01*
X116305D01*
X116435Y172806D01*
X116583Y172843D01*
X116768Y172899D01*
X116953Y172973D01*
X117138Y173084D01*
X117324Y173232D01*
X117342Y173250D01*
X117398Y173325D01*
X117472Y173417D01*
X117564Y173547D01*
X117638Y173713D01*
X117712Y173899D01*
X117768Y174121D01*
X117787Y174361D01*
Y175398D01*
Y175435D01*
Y175509D01*
X117768Y175639D01*
X117731Y175787D01*
X117675Y175972D01*
X117583Y176157D01*
X117472Y176343D01*
X117324Y176528D01*
X117305Y176546D01*
X117249Y176602D01*
X117138Y176676D01*
X117009Y176769D01*
X116842Y176843D01*
X116657Y176917D01*
X116435Y176972D01*
X116194Y176991D01*
X114028D01*
X113935Y177028D01*
X113842Y177065D01*
X113750Y177120D01*
X113657Y177213D01*
X113602Y177343D01*
X113583Y177509D01*
Y181731D01*
Y181749D01*
Y181824D01*
X113620Y181898D01*
X113657Y182009D01*
X113713Y182101D01*
X113805Y182194D01*
X113935Y182250D01*
X114102Y182268D01*
X117860D01*
X117953Y182250D01*
D02*
G37*
G36*
X109010D02*
X109213Y182231D01*
X109473Y182175D01*
X109769Y182083D01*
X110084Y181935D01*
X110398Y181749D01*
X110695Y181490D01*
X110732Y181453D01*
X110824Y181361D01*
X110935Y181194D01*
X111083Y180972D01*
X111232Y180694D01*
X111343Y180379D01*
X111435Y180028D01*
X111472Y179620D01*
Y174361D01*
Y174343D01*
Y174306D01*
Y174250D01*
X111454Y174176D01*
X111435Y173973D01*
X111380Y173713D01*
X111287Y173417D01*
X111139Y173121D01*
X110954Y172787D01*
X110695Y172491D01*
X110658Y172454D01*
X110565Y172380D01*
X110398Y172250D01*
X110176Y172121D01*
X109898Y171973D01*
X109584Y171843D01*
X109213Y171769D01*
X108824Y171732D01*
X105603D01*
X105510Y171769D01*
X105417Y171806D01*
X105325Y171862D01*
X105232Y171954D01*
X105177Y172084D01*
X105158Y172250D01*
Y181731D01*
Y181749D01*
Y181824D01*
X105195Y181898D01*
X105232Y182009D01*
X105288Y182101D01*
X105380Y182194D01*
X105510Y182250D01*
X105677Y182268D01*
X108935D01*
X109010Y182250D01*
D02*
G37*
G36*
X123379Y22250D02*
X123583Y22231D01*
X123842Y22175D01*
X124138Y22083D01*
X124453Y21935D01*
X124768Y21749D01*
X125064Y21490D01*
X125101Y21453D01*
X125194Y21361D01*
X125305Y21194D01*
X125453Y20972D01*
X125601Y20694D01*
X125712Y20379D01*
X125805Y20009D01*
X125842Y19620D01*
Y19602D01*
Y19565D01*
Y19490D01*
X125823Y19398D01*
X125805Y19287D01*
X125786Y19157D01*
X125712Y18861D01*
X125583Y18528D01*
X125509Y18361D01*
X125398Y18176D01*
X125268Y18009D01*
X125138Y17824D01*
X124972Y17657D01*
X124786Y17509D01*
X124805D01*
X124824Y17472D01*
X124879Y17435D01*
X124953Y17361D01*
X125120Y17194D01*
X125323Y16954D01*
X125509Y16639D01*
X125675Y16287D01*
X125749Y16083D01*
X125805Y15861D01*
X125823Y15639D01*
X125842Y15398D01*
Y14361D01*
Y14343D01*
Y14306D01*
Y14250D01*
X125823Y14176D01*
X125805Y13973D01*
X125749Y13713D01*
X125657Y13417D01*
X125509Y13121D01*
X125323Y12787D01*
X125064Y12491D01*
X125027Y12454D01*
X124935Y12380D01*
X124768Y12250D01*
X124546Y12121D01*
X124268Y11973D01*
X123953Y11843D01*
X123583Y11769D01*
X123194Y11732D01*
X121028D01*
X120935Y11769D01*
X120842Y11806D01*
X120731Y11862D01*
X120657Y11954D01*
X120583Y12084D01*
X120565Y12250D01*
Y12269D01*
Y12343D01*
X120602Y12417D01*
X120639Y12528D01*
X120694Y12621D01*
X120787Y12713D01*
X120917Y12769D01*
X121102Y12787D01*
X123305D01*
X123435Y12806D01*
X123583Y12843D01*
X123768Y12899D01*
X123953Y12973D01*
X124138Y13084D01*
X124324Y13232D01*
X124342Y13250D01*
X124398Y13325D01*
X124472Y13417D01*
X124564Y13547D01*
X124638Y13713D01*
X124712Y13899D01*
X124768Y14121D01*
X124786Y14361D01*
Y15398D01*
Y15435D01*
Y15509D01*
X124768Y15639D01*
X124731Y15787D01*
X124675Y15972D01*
X124583Y16157D01*
X124472Y16343D01*
X124324Y16528D01*
X124305Y16546D01*
X124249Y16602D01*
X124138Y16676D01*
X124009Y16768D01*
X123842Y16843D01*
X123657Y16917D01*
X123435Y16972D01*
X123194Y16991D01*
X122065D01*
X121972Y17028D01*
X121879Y17065D01*
X121787Y17120D01*
X121694Y17213D01*
X121639Y17343D01*
X121620Y17509D01*
Y17528D01*
Y17602D01*
X121657Y17676D01*
X121694Y17787D01*
X121750Y17880D01*
X121842Y17972D01*
X121972Y18028D01*
X122139Y18046D01*
X123305D01*
X123435Y18065D01*
X123583Y18102D01*
X123768Y18157D01*
X123953Y18231D01*
X124138Y18342D01*
X124324Y18491D01*
X124342Y18509D01*
X124398Y18583D01*
X124472Y18676D01*
X124564Y18805D01*
X124638Y18972D01*
X124712Y19157D01*
X124768Y19379D01*
X124786Y19620D01*
Y19657D01*
Y19731D01*
X124768Y19842D01*
X124731Y20009D01*
X124675Y20176D01*
X124583Y20361D01*
X124472Y20546D01*
X124324Y20731D01*
X124305Y20750D01*
X124249Y20805D01*
X124138Y20879D01*
X124009Y20972D01*
X123842Y21064D01*
X123657Y21139D01*
X123435Y21194D01*
X123194Y21212D01*
X121028D01*
X120935Y21250D01*
X120842Y21287D01*
X120731Y21342D01*
X120657Y21435D01*
X120583Y21564D01*
X120565Y21731D01*
Y21749D01*
Y21824D01*
X120602Y21898D01*
X120639Y22009D01*
X120694Y22101D01*
X120787Y22194D01*
X120917Y22250D01*
X121102Y22268D01*
X123305D01*
X123379Y22250D01*
D02*
G37*
G36*
X116010D02*
X116213Y22231D01*
X116473Y22175D01*
X116769Y22083D01*
X117084Y21935D01*
X117398Y21749D01*
X117695Y21490D01*
X117732Y21453D01*
X117824Y21361D01*
X117935Y21194D01*
X118083Y20972D01*
X118232Y20694D01*
X118343Y20379D01*
X118435Y20027D01*
X118472Y19620D01*
Y14361D01*
Y14343D01*
Y14306D01*
Y14250D01*
X118454Y14176D01*
X118435Y13973D01*
X118380Y13713D01*
X118287Y13417D01*
X118139Y13121D01*
X117954Y12787D01*
X117695Y12491D01*
X117657Y12454D01*
X117565Y12380D01*
X117398Y12250D01*
X117176Y12121D01*
X116898Y11973D01*
X116584Y11843D01*
X116213Y11769D01*
X115824Y11732D01*
X112603D01*
X112510Y11769D01*
X112417Y11806D01*
X112325Y11862D01*
X112232Y11954D01*
X112177Y12084D01*
X112158Y12250D01*
Y21731D01*
Y21749D01*
Y21824D01*
X112195Y21898D01*
X112232Y22009D01*
X112288Y22101D01*
X112380Y22194D01*
X112510Y22250D01*
X112677Y22268D01*
X115935D01*
X116010Y22250D01*
D02*
G37*
G36*
X335677Y28956D02*
X335880Y28937D01*
X336139Y28882D01*
X336436Y28789D01*
X336750Y28641D01*
X337065Y28456D01*
X337362Y28197D01*
X337399Y28160D01*
X337491Y28067D01*
X337602Y27901D01*
X337750Y27678D01*
X337899Y27401D01*
X338010Y27086D01*
X338102Y26715D01*
X338139Y26327D01*
Y26308D01*
Y26271D01*
Y26197D01*
X338121Y26104D01*
X338102Y25993D01*
X338084Y25864D01*
X338010Y25567D01*
X337880Y25234D01*
X337806Y25068D01*
X337695Y24882D01*
X337565Y24716D01*
X337436Y24530D01*
X337269Y24364D01*
X337084Y24216D01*
X337102D01*
X337121Y24179D01*
X337176Y24142D01*
X337251Y24068D01*
X337417Y23901D01*
X337621Y23660D01*
X337806Y23345D01*
X337973Y22994D01*
X338047Y22790D01*
X338102Y22568D01*
X338121Y22345D01*
X338139Y22105D01*
Y21068D01*
Y21049D01*
Y21012D01*
Y20957D01*
X338121Y20883D01*
X338102Y20679D01*
X338047Y20420D01*
X337954Y20124D01*
X337806Y19827D01*
X337621Y19494D01*
X337362Y19198D01*
X337324Y19161D01*
X337232Y19087D01*
X337065Y18957D01*
X336843Y18827D01*
X336565Y18679D01*
X336251Y18550D01*
X335880Y18476D01*
X335491Y18439D01*
X333325D01*
X333232Y18476D01*
X333140Y18513D01*
X333029Y18568D01*
X332955Y18661D01*
X332881Y18790D01*
X332862Y18957D01*
Y18975D01*
Y19050D01*
X332899Y19124D01*
X332936Y19235D01*
X332992Y19327D01*
X333084Y19420D01*
X333214Y19476D01*
X333399Y19494D01*
X335602D01*
X335732Y19512D01*
X335880Y19549D01*
X336065Y19605D01*
X336251Y19679D01*
X336436Y19790D01*
X336621Y19938D01*
X336639Y19957D01*
X336695Y20031D01*
X336769Y20124D01*
X336862Y20253D01*
X336936Y20420D01*
X337010Y20605D01*
X337065Y20827D01*
X337084Y21068D01*
Y22105D01*
Y22142D01*
Y22216D01*
X337065Y22345D01*
X337028Y22494D01*
X336973Y22679D01*
X336880Y22864D01*
X336769Y23049D01*
X336621Y23234D01*
X336602Y23253D01*
X336547Y23308D01*
X336436Y23382D01*
X336306Y23475D01*
X336139Y23549D01*
X335954Y23623D01*
X335732Y23679D01*
X335491Y23697D01*
X334362D01*
X334269Y23734D01*
X334177Y23771D01*
X334084Y23827D01*
X333992Y23919D01*
X333936Y24049D01*
X333918Y24216D01*
Y24234D01*
Y24308D01*
X333955Y24382D01*
X333992Y24493D01*
X334047Y24586D01*
X334140Y24679D01*
X334269Y24734D01*
X334436Y24753D01*
X335602D01*
X335732Y24771D01*
X335880Y24808D01*
X336065Y24864D01*
X336251Y24938D01*
X336436Y25049D01*
X336621Y25197D01*
X336639Y25216D01*
X336695Y25290D01*
X336769Y25382D01*
X336862Y25512D01*
X336936Y25679D01*
X337010Y25864D01*
X337065Y26086D01*
X337084Y26327D01*
Y26364D01*
Y26438D01*
X337065Y26549D01*
X337028Y26715D01*
X336973Y26882D01*
X336880Y27067D01*
X336769Y27252D01*
X336621Y27438D01*
X336602Y27456D01*
X336547Y27512D01*
X336436Y27586D01*
X336306Y27678D01*
X336139Y27771D01*
X335954Y27845D01*
X335732Y27901D01*
X335491Y27919D01*
X333325D01*
X333232Y27956D01*
X333140Y27993D01*
X333029Y28049D01*
X332955Y28141D01*
X332881Y28271D01*
X332862Y28438D01*
Y28456D01*
Y28530D01*
X332899Y28604D01*
X332936Y28715D01*
X332992Y28808D01*
X333084Y28900D01*
X333214Y28956D01*
X333399Y28974D01*
X335602D01*
X335677Y28956D01*
D02*
G37*
G36*
X327826D02*
X327937D01*
X328066Y28919D01*
X328381Y28863D01*
X328733Y28752D01*
X329103Y28586D01*
X329288Y28475D01*
X329473Y28363D01*
X329659Y28215D01*
X329844Y28049D01*
X329862Y28030D01*
X329881Y28012D01*
X329936Y27956D01*
X329992Y27882D01*
X330066Y27789D01*
X330140Y27678D01*
X330307Y27419D01*
X330473Y27104D01*
X330621Y26715D01*
X330733Y26290D01*
X330751Y26049D01*
X330770Y25808D01*
Y25790D01*
Y25715D01*
X330751Y25604D01*
X330733Y25456D01*
X330714Y25271D01*
X330677Y25086D01*
X330603Y24864D01*
X330529Y24623D01*
X330436Y24382D01*
X330307Y24123D01*
X330159Y23882D01*
X329973Y23642D01*
X329751Y23419D01*
X329492Y23216D01*
X329196Y23031D01*
X328862Y22864D01*
X330714Y19198D01*
X330733Y19179D01*
X330751Y19124D01*
X330770Y19050D01*
Y18957D01*
Y18920D01*
X330751Y18827D01*
X330696Y18716D01*
X330603Y18587D01*
X330566Y18568D01*
X330492Y18513D01*
X330381Y18457D01*
X330233Y18439D01*
X330177D01*
X330122Y18457D01*
X330047Y18476D01*
X329973Y18513D01*
X329899Y18550D01*
X329825Y18624D01*
X329770Y18716D01*
X327807Y22642D01*
X325511D01*
Y18957D01*
Y18938D01*
Y18883D01*
X325492Y18790D01*
X325437Y18698D01*
X325381Y18605D01*
X325289Y18513D01*
X325159Y18457D01*
X324974Y18439D01*
X324900D01*
X324807Y18476D01*
X324715Y18513D01*
X324622Y18568D01*
X324530Y18661D01*
X324474Y18790D01*
X324455Y18957D01*
Y28438D01*
Y28456D01*
Y28530D01*
X324492Y28604D01*
X324530Y28715D01*
X324585Y28808D01*
X324678Y28900D01*
X324807Y28956D01*
X324974Y28974D01*
X327733D01*
X327826Y28956D01*
D02*
G37*
G36*
X269401Y12658D02*
X269604Y12640D01*
X269863Y12584D01*
X270160Y12492D01*
X270475Y12343D01*
X270789Y12158D01*
X271086Y11899D01*
X271123Y11862D01*
X271215Y11769D01*
X271326Y11603D01*
X271474Y11380D01*
X271623Y11103D01*
X271734Y10788D01*
X271826Y10418D01*
X271863Y10029D01*
Y9992D01*
Y9899D01*
X271845Y9751D01*
X271808Y9566D01*
X271752Y9325D01*
X271660Y9085D01*
X271549Y8807D01*
X271382Y8511D01*
X268067Y3196D01*
X271419D01*
X271493Y3178D01*
X271604Y3122D01*
X271697Y3067D01*
X271789Y2974D01*
X271845Y2844D01*
X271863Y2659D01*
Y2641D01*
Y2585D01*
X271845Y2493D01*
X271789Y2400D01*
X271734Y2307D01*
X271641Y2215D01*
X271511Y2159D01*
X271326Y2141D01*
X267049D01*
X266956Y2178D01*
X266864Y2215D01*
X266753Y2270D01*
X266679Y2363D01*
X266605Y2493D01*
X266586Y2659D01*
Y2696D01*
X266605Y2752D01*
X266623Y2863D01*
X266679Y2955D01*
X270549Y9159D01*
X270567Y9177D01*
X270586Y9233D01*
X270623Y9325D01*
X270678Y9436D01*
X270734Y9566D01*
X270771Y9714D01*
X270789Y9862D01*
X270808Y10029D01*
Y10066D01*
Y10140D01*
X270789Y10270D01*
X270752Y10418D01*
X270697Y10603D01*
X270604Y10788D01*
X270493Y10973D01*
X270345Y11158D01*
X270326Y11177D01*
X270271Y11232D01*
X270160Y11307D01*
X270030Y11399D01*
X269863Y11473D01*
X269678Y11547D01*
X269456Y11603D01*
X269216Y11621D01*
X269178D01*
X269067Y11603D01*
X268901Y11547D01*
X268678Y11455D01*
X268549Y11380D01*
X268419Y11288D01*
X268290Y11195D01*
X268141Y11066D01*
X267993Y10899D01*
X267864Y10733D01*
X267716Y10529D01*
X267568Y10288D01*
Y10270D01*
X267549Y10251D01*
X267456Y10158D01*
X267327Y10066D01*
X267234Y10047D01*
X267123Y10029D01*
X267049D01*
X266956Y10066D01*
X266864Y10103D01*
X266753Y10158D01*
X266679Y10251D01*
X266605Y10381D01*
X266586Y10566D01*
Y10584D01*
Y10640D01*
X266605Y10695D01*
X266642Y10769D01*
X266660Y10788D01*
X266679Y10844D01*
X266734Y10955D01*
X266827Y11066D01*
X266919Y11214D01*
X267031Y11380D01*
X267179Y11547D01*
X267327Y11732D01*
X267512Y11899D01*
X267697Y12066D01*
X267919Y12232D01*
X268141Y12380D01*
X268382Y12510D01*
X268641Y12603D01*
X268919Y12658D01*
X269216Y12677D01*
X269327D01*
X269401Y12658D01*
D02*
G37*
G36*
X259920Y12640D02*
X260031Y12584D01*
X260124Y12529D01*
X260216Y12436D01*
X260272Y12306D01*
X260291Y12121D01*
Y3196D01*
X264049D01*
X264123Y3178D01*
X264235Y3122D01*
X264327Y3067D01*
X264420Y2974D01*
X264475Y2844D01*
X264494Y2659D01*
Y2641D01*
Y2585D01*
X264475Y2493D01*
X264420Y2400D01*
X264364Y2307D01*
X264272Y2215D01*
X264142Y2159D01*
X263957Y2141D01*
X259679D01*
X259587Y2178D01*
X259494Y2215D01*
X259402Y2270D01*
X259309Y2363D01*
X259254Y2493D01*
X259235Y2659D01*
Y12121D01*
Y12140D01*
Y12214D01*
X259272Y12288D01*
X259309Y12399D01*
X259365Y12492D01*
X259457Y12584D01*
X259587Y12640D01*
X259753Y12658D01*
X259846D01*
X259920Y12640D01*
D02*
G37*
G36*
X331101Y165999D02*
X331305Y165981D01*
X331564Y165925D01*
X331861Y165833D01*
X332175Y165685D01*
X332490Y165499D01*
X332786Y165240D01*
X332823Y165203D01*
X332916Y165111D01*
X333027Y164944D01*
X333175Y164722D01*
X333323Y164444D01*
X333434Y164129D01*
X333527Y163759D01*
X333564Y163370D01*
Y163352D01*
Y163314D01*
Y163241D01*
X333546Y163148D01*
X333527Y163037D01*
X333509Y162907D01*
X333434Y162611D01*
X333305Y162278D01*
X333231Y162111D01*
X333120Y161926D01*
X332990Y161759D01*
X332860Y161574D01*
X332694Y161407D01*
X332509Y161259D01*
X332527D01*
X332546Y161222D01*
X332601Y161185D01*
X332675Y161111D01*
X332842Y160944D01*
X333046Y160704D01*
X333231Y160389D01*
X333397Y160037D01*
X333471Y159833D01*
X333527Y159611D01*
X333546Y159389D01*
X333564Y159148D01*
Y158111D01*
Y158093D01*
Y158056D01*
Y158000D01*
X333546Y157926D01*
X333527Y157723D01*
X333471Y157463D01*
X333379Y157167D01*
X333231Y156871D01*
X333046Y156538D01*
X332786Y156241D01*
X332749Y156204D01*
X332657Y156130D01*
X332490Y156000D01*
X332268Y155871D01*
X331990Y155723D01*
X331675Y155593D01*
X331305Y155519D01*
X330916Y155482D01*
X328750D01*
X328657Y155519D01*
X328565Y155556D01*
X328453Y155612D01*
X328380Y155704D01*
X328305Y155834D01*
X328287Y156000D01*
Y156019D01*
Y156093D01*
X328324Y156167D01*
X328361Y156278D01*
X328416Y156371D01*
X328509Y156463D01*
X328639Y156519D01*
X328824Y156538D01*
X331027D01*
X331157Y156556D01*
X331305Y156593D01*
X331490Y156649D01*
X331675Y156723D01*
X331861Y156834D01*
X332046Y156982D01*
X332064Y157000D01*
X332120Y157074D01*
X332194Y157167D01*
X332286Y157297D01*
X332360Y157463D01*
X332435Y157648D01*
X332490Y157871D01*
X332509Y158111D01*
Y159148D01*
Y159185D01*
Y159259D01*
X332490Y159389D01*
X332453Y159537D01*
X332398Y159722D01*
X332305Y159908D01*
X332194Y160093D01*
X332046Y160278D01*
X332027Y160296D01*
X331972Y160352D01*
X331861Y160426D01*
X331731Y160518D01*
X331564Y160593D01*
X331379Y160667D01*
X331157Y160722D01*
X330916Y160741D01*
X329787D01*
X329694Y160778D01*
X329602Y160815D01*
X329509Y160870D01*
X329416Y160963D01*
X329361Y161092D01*
X329342Y161259D01*
Y161278D01*
Y161352D01*
X329379Y161426D01*
X329416Y161537D01*
X329472Y161630D01*
X329565Y161722D01*
X329694Y161778D01*
X329861Y161796D01*
X331027D01*
X331157Y161815D01*
X331305Y161852D01*
X331490Y161907D01*
X331675Y161981D01*
X331861Y162092D01*
X332046Y162241D01*
X332064Y162259D01*
X332120Y162333D01*
X332194Y162426D01*
X332286Y162555D01*
X332360Y162722D01*
X332435Y162907D01*
X332490Y163129D01*
X332509Y163370D01*
Y163407D01*
Y163481D01*
X332490Y163592D01*
X332453Y163759D01*
X332398Y163926D01*
X332305Y164111D01*
X332194Y164296D01*
X332046Y164481D01*
X332027Y164500D01*
X331972Y164555D01*
X331861Y164629D01*
X331731Y164722D01*
X331564Y164814D01*
X331379Y164888D01*
X331157Y164944D01*
X330916Y164963D01*
X328750D01*
X328657Y165000D01*
X328565Y165037D01*
X328453Y165092D01*
X328380Y165185D01*
X328305Y165314D01*
X328287Y165481D01*
Y165499D01*
Y165574D01*
X328324Y165648D01*
X328361Y165759D01*
X328416Y165851D01*
X328509Y165944D01*
X328639Y165999D01*
X328824Y166018D01*
X331027D01*
X331101Y165999D01*
D02*
G37*
G36*
X325824D02*
X325935Y165944D01*
X326028Y165888D01*
X326120Y165796D01*
X326176Y165666D01*
X326194Y165481D01*
Y165462D01*
Y165407D01*
X326176Y165314D01*
X326120Y165222D01*
X326065Y165129D01*
X325972Y165037D01*
X325843Y164981D01*
X325658Y164963D01*
X323454D01*
X323324Y164944D01*
X323176Y164907D01*
X322991Y164851D01*
X322806Y164759D01*
X322621Y164648D01*
X322436Y164500D01*
X322417Y164481D01*
X322362Y164426D01*
X322287Y164314D01*
X322213Y164185D01*
X322139Y164018D01*
X322065Y163833D01*
X322010Y163611D01*
X321991Y163370D01*
Y158111D01*
Y158074D01*
Y158000D01*
X322010Y157871D01*
X322047Y157723D01*
X322102Y157537D01*
X322176Y157352D01*
X322287Y157167D01*
X322436Y156982D01*
X322454Y156963D01*
X322528Y156908D01*
X322621Y156834D01*
X322750Y156760D01*
X322917Y156686D01*
X323102Y156611D01*
X323324Y156556D01*
X323565Y156538D01*
X325750D01*
X325824Y156519D01*
X325935Y156463D01*
X326028Y156408D01*
X326120Y156315D01*
X326176Y156186D01*
X326194Y156000D01*
Y155982D01*
Y155926D01*
X326176Y155834D01*
X326120Y155741D01*
X326065Y155649D01*
X325972Y155556D01*
X325843Y155500D01*
X325658Y155482D01*
X323454D01*
X323380Y155500D01*
X323176Y155519D01*
X322917Y155575D01*
X322621Y155667D01*
X322324Y155797D01*
X321991Y155982D01*
X321695Y156241D01*
X321658Y156278D01*
X321584Y156389D01*
X321454Y156538D01*
X321325Y156760D01*
X321176Y157037D01*
X321047Y157352D01*
X320973Y157723D01*
X320936Y158111D01*
Y163370D01*
Y163389D01*
Y163426D01*
Y163481D01*
X320954Y163555D01*
X320973Y163759D01*
X321028Y164018D01*
X321121Y164314D01*
X321251Y164629D01*
X321436Y164944D01*
X321695Y165240D01*
X321732Y165277D01*
X321843Y165370D01*
X321991Y165481D01*
X322213Y165629D01*
X322491Y165777D01*
X322806Y165888D01*
X323176Y165981D01*
X323565Y166018D01*
X325750D01*
X325824Y165999D01*
D02*
G37*
G36*
X324067Y40638D02*
X324178Y40583D01*
X324271Y40527D01*
X324363Y40435D01*
X324419Y40305D01*
X324437Y40120D01*
Y40101D01*
Y40064D01*
X324419Y39990D01*
X324400Y39916D01*
X324363Y39842D01*
X324326Y39768D01*
X324252Y39713D01*
X324160Y39676D01*
X324141D01*
X324104Y39657D01*
X324048Y39639D01*
X323956Y39620D01*
X323863Y39564D01*
X323752Y39527D01*
X323474Y39398D01*
X323141Y39194D01*
X322808Y38953D01*
X322456Y38657D01*
X322289Y38472D01*
X322123Y38268D01*
Y38250D01*
X322086Y38231D01*
X322012Y38120D01*
X321900Y37935D01*
X321771Y37713D01*
X321623Y37435D01*
X321493Y37139D01*
X321400Y36806D01*
X321326Y36454D01*
X322974D01*
X323049Y36435D01*
X323252Y36417D01*
X323511Y36361D01*
X323808Y36268D01*
X324123Y36120D01*
X324437Y35935D01*
X324734Y35676D01*
X324771Y35639D01*
X324845Y35546D01*
X324974Y35380D01*
X325122Y35157D01*
X325252Y34880D01*
X325382Y34565D01*
X325456Y34213D01*
X325493Y33806D01*
Y32769D01*
Y32750D01*
Y32713D01*
Y32658D01*
X325474Y32584D01*
X325456Y32380D01*
X325400Y32121D01*
X325308Y31825D01*
X325159Y31510D01*
X324974Y31195D01*
X324715Y30899D01*
X324678Y30862D01*
X324585Y30788D01*
X324419Y30658D01*
X324197Y30528D01*
X323919Y30380D01*
X323604Y30251D01*
X323252Y30176D01*
X322863Y30140D01*
X322752D01*
X322678Y30158D01*
X322475Y30176D01*
X322215Y30232D01*
X321919Y30325D01*
X321604Y30454D01*
X321289Y30639D01*
X320993Y30899D01*
X320956Y30936D01*
X320882Y31028D01*
X320752Y31195D01*
X320623Y31417D01*
X320475Y31676D01*
X320345Y32010D01*
X320271Y32362D01*
X320234Y32750D01*
Y35917D01*
Y35935D01*
Y35991D01*
Y36083D01*
X320252Y36213D01*
X320271Y36380D01*
X320289Y36546D01*
X320327Y36750D01*
X320382Y36972D01*
X320530Y37453D01*
X320623Y37713D01*
X320734Y37991D01*
X320863Y38250D01*
X321030Y38528D01*
X321215Y38787D01*
X321419Y39046D01*
X321438Y39065D01*
X321456Y39083D01*
X321512Y39139D01*
X321586Y39213D01*
X321771Y39398D01*
X322012Y39620D01*
X322308Y39861D01*
X322641Y40101D01*
X323012Y40342D01*
X323419Y40527D01*
X323437D01*
X323474Y40546D01*
X323530Y40564D01*
X323604Y40601D01*
X323752Y40638D01*
X323900Y40657D01*
X323993D01*
X324067Y40638D01*
D02*
G37*
G36*
X317753Y40657D02*
X317864Y40601D01*
X317956Y40546D01*
X318049Y40453D01*
X318105Y40324D01*
X318123Y40139D01*
Y40120D01*
Y40064D01*
X318105Y39972D01*
X318049Y39879D01*
X317994Y39787D01*
X317901Y39694D01*
X317771Y39639D01*
X317586Y39620D01*
X315383D01*
X315253Y39602D01*
X315105Y39564D01*
X314920Y39509D01*
X314734Y39416D01*
X314549Y39305D01*
X314364Y39157D01*
X314346Y39139D01*
X314290Y39083D01*
X314216Y38972D01*
X314142Y38842D01*
X314068Y38676D01*
X313994Y38491D01*
X313938Y38268D01*
X313920Y38028D01*
Y32769D01*
Y32732D01*
Y32658D01*
X313938Y32528D01*
X313975Y32380D01*
X314031Y32195D01*
X314105Y32010D01*
X314216Y31825D01*
X314364Y31639D01*
X314383Y31621D01*
X314457Y31565D01*
X314549Y31491D01*
X314679Y31417D01*
X314846Y31343D01*
X315031Y31269D01*
X315253Y31214D01*
X315494Y31195D01*
X317679D01*
X317753Y31176D01*
X317864Y31121D01*
X317956Y31065D01*
X318049Y30973D01*
X318105Y30843D01*
X318123Y30658D01*
Y30639D01*
Y30584D01*
X318105Y30491D01*
X318049Y30399D01*
X317994Y30306D01*
X317901Y30214D01*
X317771Y30158D01*
X317586Y30140D01*
X315383D01*
X315309Y30158D01*
X315105Y30176D01*
X314846Y30232D01*
X314549Y30325D01*
X314253Y30454D01*
X313920Y30639D01*
X313624Y30899D01*
X313587Y30936D01*
X313512Y31047D01*
X313383Y31195D01*
X313253Y31417D01*
X313105Y31695D01*
X312976Y32010D01*
X312901Y32380D01*
X312864Y32769D01*
Y38028D01*
Y38046D01*
Y38083D01*
Y38139D01*
X312883Y38213D01*
X312901Y38416D01*
X312957Y38676D01*
X313050Y38972D01*
X313179Y39287D01*
X313364Y39602D01*
X313624Y39898D01*
X313661Y39935D01*
X313772Y40027D01*
X313920Y40139D01*
X314142Y40287D01*
X314420Y40435D01*
X314734Y40546D01*
X315105Y40638D01*
X315494Y40675D01*
X317679D01*
X317753Y40657D01*
D02*
G37*
G36*
X299324Y166231D02*
X299416Y166175D01*
X299509Y166120D01*
X299601Y166027D01*
X299657Y165898D01*
X299676Y165713D01*
Y165694D01*
Y165676D01*
X299657Y165564D01*
X297731Y158898D01*
X300212D01*
Y160472D01*
Y160491D01*
Y160546D01*
X300250Y160639D01*
X300287Y160732D01*
X300342Y160824D01*
X300435Y160917D01*
X300564Y160972D01*
X300731Y160991D01*
X300824D01*
X300898Y160972D01*
X301009Y160935D01*
X301101Y160861D01*
X301194Y160769D01*
X301250Y160639D01*
X301268Y160472D01*
Y158898D01*
X302397D01*
X302472Y158880D01*
X302583Y158824D01*
X302675Y158769D01*
X302768Y158676D01*
X302823Y158547D01*
X302842Y158361D01*
Y158343D01*
Y158287D01*
X302823Y158195D01*
X302768Y158102D01*
X302712Y158010D01*
X302620Y157917D01*
X302490Y157861D01*
X302305Y157843D01*
X301268D01*
Y156250D01*
Y156232D01*
Y156176D01*
X301250Y156084D01*
X301194Y155991D01*
X301138Y155899D01*
X301046Y155806D01*
X300916Y155751D01*
X300731Y155732D01*
X300657D01*
X300564Y155769D01*
X300472Y155806D01*
X300379Y155862D01*
X300287Y155954D01*
X300231Y156084D01*
X300212Y156250D01*
Y157843D01*
X296972D01*
X296880Y157880D01*
X296787Y157917D01*
X296694Y157973D01*
X296602Y158065D01*
X296546Y158195D01*
X296528Y158361D01*
Y158380D01*
Y158417D01*
Y158510D01*
X298639Y165861D01*
Y165879D01*
X298657Y165916D01*
X298694Y165990D01*
X298750Y166064D01*
X298824Y166120D01*
X298898Y166194D01*
X299028Y166231D01*
X299157Y166250D01*
X299231D01*
X299324Y166231D01*
D02*
G37*
G36*
X294046Y166250D02*
X294158Y166194D01*
X294250Y166138D01*
X294343Y166046D01*
X294398Y165916D01*
X294417Y165731D01*
Y165713D01*
Y165657D01*
X294398Y165564D01*
X294343Y165472D01*
X294287Y165379D01*
X294195Y165287D01*
X294065Y165231D01*
X293880Y165212D01*
X291676D01*
X291547Y165194D01*
X291399Y165157D01*
X291213Y165101D01*
X291028Y165009D01*
X290843Y164898D01*
X290658Y164750D01*
X290639Y164731D01*
X290584Y164676D01*
X290510Y164564D01*
X290436Y164435D01*
X290362Y164268D01*
X290288Y164083D01*
X290232Y163861D01*
X290214Y163620D01*
Y158361D01*
Y158324D01*
Y158250D01*
X290232Y158121D01*
X290269Y157973D01*
X290325Y157787D01*
X290399Y157602D01*
X290510Y157417D01*
X290658Y157232D01*
X290676Y157213D01*
X290751Y157158D01*
X290843Y157084D01*
X290973Y157010D01*
X291139Y156936D01*
X291325Y156862D01*
X291547Y156806D01*
X291787Y156788D01*
X293972D01*
X294046Y156769D01*
X294158Y156713D01*
X294250Y156658D01*
X294343Y156565D01*
X294398Y156436D01*
X294417Y156250D01*
Y156232D01*
Y156176D01*
X294398Y156084D01*
X294343Y155991D01*
X294287Y155899D01*
X294195Y155806D01*
X294065Y155751D01*
X293880Y155732D01*
X291676D01*
X291602Y155751D01*
X291399Y155769D01*
X291139Y155825D01*
X290843Y155917D01*
X290547Y156047D01*
X290214Y156232D01*
X289917Y156491D01*
X289880Y156528D01*
X289806Y156639D01*
X289677Y156788D01*
X289547Y157010D01*
X289399Y157287D01*
X289269Y157602D01*
X289195Y157973D01*
X289158Y158361D01*
Y163620D01*
Y163639D01*
Y163676D01*
Y163731D01*
X289177Y163805D01*
X289195Y164009D01*
X289251Y164268D01*
X289343Y164564D01*
X289473Y164879D01*
X289658Y165194D01*
X289917Y165490D01*
X289954Y165527D01*
X290065Y165620D01*
X290214Y165731D01*
X290436Y165879D01*
X290714Y166027D01*
X291028Y166138D01*
X291399Y166231D01*
X291787Y166268D01*
X293972D01*
X294046Y166250D01*
D02*
G37*
G36*
X301425Y29249D02*
X301518Y29194D01*
X301611Y29138D01*
X301703Y29046D01*
X301759Y28916D01*
X301777Y28731D01*
Y28712D01*
Y28657D01*
X301759Y28564D01*
X301722Y28472D01*
X301648Y28379D01*
X301555Y28287D01*
X301425Y28231D01*
X301259Y28212D01*
X298111D01*
Y25046D01*
X299796D01*
X299870Y25028D01*
X300074Y25009D01*
X300333Y24954D01*
X300611Y24861D01*
X300925Y24713D01*
X301240Y24528D01*
X301537Y24269D01*
X301574Y24232D01*
X301666Y24139D01*
X301777Y23972D01*
X301925Y23750D01*
X302073Y23472D01*
X302185Y23157D01*
X302277Y22787D01*
X302314Y22398D01*
Y21361D01*
Y21343D01*
Y21306D01*
Y21250D01*
X302296Y21176D01*
X302277Y20973D01*
X302222Y20713D01*
X302129Y20417D01*
X301981Y20121D01*
X301796Y19787D01*
X301537Y19491D01*
X301499Y19454D01*
X301407Y19380D01*
X301240Y19251D01*
X301018Y19121D01*
X300740Y18973D01*
X300425Y18843D01*
X300074Y18769D01*
X299685Y18732D01*
X297500D01*
X297407Y18769D01*
X297315Y18806D01*
X297222Y18862D01*
X297129Y18954D01*
X297074Y19084D01*
X297055Y19251D01*
Y19269D01*
Y19343D01*
X297092Y19417D01*
X297129Y19528D01*
X297185Y19621D01*
X297278Y19713D01*
X297407Y19769D01*
X297574Y19787D01*
X299777D01*
X299907Y19806D01*
X300055Y19843D01*
X300240Y19899D01*
X300425Y19973D01*
X300611Y20084D01*
X300796Y20232D01*
X300814Y20250D01*
X300870Y20324D01*
X300944Y20417D01*
X301036Y20547D01*
X301111Y20713D01*
X301185Y20898D01*
X301240Y21121D01*
X301259Y21361D01*
Y22398D01*
Y22435D01*
Y22509D01*
X301240Y22639D01*
X301203Y22787D01*
X301148Y22972D01*
X301055Y23157D01*
X300944Y23343D01*
X300796Y23528D01*
X300777Y23546D01*
X300722Y23602D01*
X300611Y23676D01*
X300481Y23769D01*
X300314Y23843D01*
X300129Y23917D01*
X299907Y23972D01*
X299666Y23991D01*
X297500D01*
X297407Y24028D01*
X297315Y24065D01*
X297222Y24120D01*
X297129Y24213D01*
X297074Y24343D01*
X297055Y24509D01*
Y28731D01*
Y28749D01*
Y28824D01*
X297092Y28898D01*
X297129Y29009D01*
X297185Y29101D01*
X297278Y29194D01*
X297407Y29249D01*
X297574Y29268D01*
X301333D01*
X301425Y29249D01*
D02*
G37*
G36*
X294574D02*
X294685Y29194D01*
X294778Y29138D01*
X294870Y29046D01*
X294926Y28916D01*
X294944Y28731D01*
Y28712D01*
Y28657D01*
X294926Y28564D01*
X294870Y28472D01*
X294815Y28379D01*
X294722Y28287D01*
X294593Y28231D01*
X294408Y28212D01*
X292204D01*
X292075Y28194D01*
X291926Y28157D01*
X291741Y28101D01*
X291556Y28009D01*
X291371Y27898D01*
X291186Y27750D01*
X291167Y27731D01*
X291112Y27676D01*
X291038Y27564D01*
X290963Y27435D01*
X290889Y27268D01*
X290815Y27083D01*
X290760Y26861D01*
X290741Y26620D01*
Y21361D01*
Y21324D01*
Y21250D01*
X290760Y21121D01*
X290797Y20973D01*
X290852Y20787D01*
X290926Y20602D01*
X291038Y20417D01*
X291186Y20232D01*
X291204Y20213D01*
X291278Y20158D01*
X291371Y20084D01*
X291500Y20010D01*
X291667Y19936D01*
X291852Y19862D01*
X292075Y19806D01*
X292315Y19787D01*
X294500D01*
X294574Y19769D01*
X294685Y19713D01*
X294778Y19658D01*
X294870Y19565D01*
X294926Y19436D01*
X294944Y19251D01*
Y19232D01*
Y19176D01*
X294926Y19084D01*
X294870Y18991D01*
X294815Y18899D01*
X294722Y18806D01*
X294593Y18751D01*
X294408Y18732D01*
X292204D01*
X292130Y18751D01*
X291926Y18769D01*
X291667Y18825D01*
X291371Y18917D01*
X291075Y19047D01*
X290741Y19232D01*
X290445Y19491D01*
X290408Y19528D01*
X290334Y19639D01*
X290204Y19787D01*
X290075Y20010D01*
X289926Y20287D01*
X289797Y20602D01*
X289723Y20973D01*
X289686Y21361D01*
Y26620D01*
Y26639D01*
Y26676D01*
Y26731D01*
X289704Y26805D01*
X289723Y27009D01*
X289778Y27268D01*
X289871Y27564D01*
X290001Y27879D01*
X290186Y28194D01*
X290445Y28490D01*
X290482Y28527D01*
X290593Y28620D01*
X290741Y28731D01*
X290963Y28879D01*
X291241Y29027D01*
X291556Y29138D01*
X291926Y29231D01*
X292315Y29268D01*
X294500D01*
X294574Y29249D01*
D02*
G37*
G36*
X353554Y50389D02*
X353758Y50371D01*
X354017Y50315D01*
X354295Y50223D01*
X354610Y50074D01*
X354925Y49889D01*
X355221Y49630D01*
X355258Y49593D01*
X355351Y49500D01*
X355462Y49334D01*
X355610Y49111D01*
X355758Y48852D01*
X355869Y48538D01*
X355962Y48167D01*
X355999Y47778D01*
Y44612D01*
Y44575D01*
Y44501D01*
X355980Y44353D01*
X355962Y44168D01*
X355925Y43945D01*
X355869Y43686D01*
X355795Y43390D01*
X355684Y43094D01*
X355554Y42760D01*
X355388Y42408D01*
X355184Y42057D01*
X354943Y41705D01*
X354665Y41353D01*
X354332Y41020D01*
X353943Y40686D01*
X353499Y40390D01*
X353462Y40372D01*
X353369Y40316D01*
X353221Y40223D01*
X353055Y40149D01*
X352869Y40057D01*
X352666Y39964D01*
X352481Y39909D01*
X352314Y39890D01*
X352277D01*
X352184Y39909D01*
X352073Y39946D01*
X351944Y40038D01*
X351925Y40075D01*
X351870Y40149D01*
X351814Y40261D01*
X351795Y40409D01*
Y40427D01*
Y40464D01*
X351814Y40538D01*
X351833Y40612D01*
X351907Y40760D01*
X351962Y40816D01*
X352055Y40853D01*
X352073Y40872D01*
X352147Y40890D01*
X352258Y40927D01*
X352388Y40983D01*
X352703Y41131D01*
X352851Y41205D01*
X352999Y41297D01*
X353018Y41316D01*
X353073Y41353D01*
X353166Y41409D01*
X353277Y41501D01*
X353406Y41612D01*
X353554Y41742D01*
X353703Y41890D01*
X353869Y42057D01*
X354054Y42242D01*
X354221Y42464D01*
X354369Y42686D01*
X354517Y42945D01*
X354647Y43205D01*
X354758Y43482D01*
X354851Y43779D01*
X354906Y44093D01*
X353240D01*
X353166Y44112D01*
X352962Y44131D01*
X352721Y44186D01*
X352425Y44279D01*
X352110Y44408D01*
X351795Y44594D01*
X351499Y44853D01*
X351462Y44890D01*
X351388Y45001D01*
X351259Y45149D01*
X351129Y45371D01*
X350981Y45649D01*
X350851Y45964D01*
X350777Y46334D01*
X350740Y46723D01*
Y47760D01*
Y47778D01*
Y47815D01*
Y47871D01*
X350759Y47945D01*
X350777Y48149D01*
X350833Y48408D01*
X350925Y48704D01*
X351055Y49019D01*
X351240Y49334D01*
X351499Y49630D01*
X351536Y49667D01*
X351647Y49760D01*
X351795Y49871D01*
X352018Y50019D01*
X352295Y50167D01*
X352610Y50278D01*
X352980Y50371D01*
X353369Y50408D01*
X353480D01*
X353554Y50389D01*
D02*
G37*
G36*
X348259Y50408D02*
X348370Y50352D01*
X348462Y50297D01*
X348555Y50204D01*
X348611Y50074D01*
X348629Y49889D01*
Y49871D01*
Y49815D01*
X348611Y49723D01*
X348555Y49630D01*
X348499Y49537D01*
X348407Y49445D01*
X348277Y49389D01*
X348092Y49371D01*
X345889D01*
X345759Y49352D01*
X345611Y49315D01*
X345426Y49260D01*
X345241Y49167D01*
X345055Y49056D01*
X344870Y48908D01*
X344852Y48889D01*
X344796Y48834D01*
X344722Y48723D01*
X344648Y48593D01*
X344574Y48426D01*
X344500Y48241D01*
X344444Y48019D01*
X344426Y47778D01*
Y42520D01*
Y42483D01*
Y42408D01*
X344444Y42279D01*
X344481Y42131D01*
X344537Y41946D01*
X344611Y41760D01*
X344722Y41575D01*
X344870Y41390D01*
X344889Y41372D01*
X344963Y41316D01*
X345055Y41242D01*
X345185Y41168D01*
X345352Y41094D01*
X345537Y41020D01*
X345759Y40964D01*
X346000Y40946D01*
X348185D01*
X348259Y40927D01*
X348370Y40872D01*
X348462Y40816D01*
X348555Y40724D01*
X348611Y40594D01*
X348629Y40409D01*
Y40390D01*
Y40335D01*
X348611Y40242D01*
X348555Y40149D01*
X348499Y40057D01*
X348407Y39964D01*
X348277Y39909D01*
X348092Y39890D01*
X345889D01*
X345815Y39909D01*
X345611Y39927D01*
X345352Y39983D01*
X345055Y40075D01*
X344759Y40205D01*
X344426Y40390D01*
X344130Y40649D01*
X344092Y40686D01*
X344019Y40798D01*
X343889Y40946D01*
X343759Y41168D01*
X343611Y41446D01*
X343481Y41760D01*
X343407Y42131D01*
X343370Y42520D01*
Y47778D01*
Y47797D01*
Y47834D01*
Y47889D01*
X343389Y47964D01*
X343407Y48167D01*
X343463Y48426D01*
X343555Y48723D01*
X343685Y49037D01*
X343870Y49352D01*
X344130Y49648D01*
X344167Y49686D01*
X344278Y49778D01*
X344426Y49889D01*
X344648Y50037D01*
X344926Y50185D01*
X345241Y50297D01*
X345611Y50389D01*
X346000Y50426D01*
X348185D01*
X348259Y50408D01*
D02*
G37*
G36*
X266888Y133681D02*
X266999Y133625D01*
X267092Y133570D01*
X267185Y133477D01*
X267240Y133348D01*
X267259Y133162D01*
Y123701D01*
Y123682D01*
Y123626D01*
X267240Y123534D01*
X267185Y123441D01*
X267129Y123349D01*
X267036Y123256D01*
X266907Y123201D01*
X266722Y123182D01*
X266648D01*
X266555Y123219D01*
X266462Y123256D01*
X266370Y123312D01*
X266277Y123404D01*
X266222Y123534D01*
X266203Y123701D01*
Y131903D01*
X264981Y130681D01*
X264963Y130663D01*
X264889Y130607D01*
X264759Y130552D01*
X264611Y130533D01*
X264537D01*
X264444Y130570D01*
X264352Y130607D01*
X264259Y130663D01*
X264167Y130755D01*
X264111Y130885D01*
X264092Y131052D01*
Y131070D01*
Y131089D01*
X264111Y131181D01*
X264148Y131311D01*
X264240Y131422D01*
X266296Y133477D01*
X266314Y133496D01*
X266333Y133514D01*
X266425Y133588D01*
X266555Y133662D01*
X266648Y133700D01*
X266814D01*
X266888Y133681D01*
D02*
G37*
G36*
X261630Y133700D02*
X261741Y133644D01*
X261833Y133588D01*
X261926Y133496D01*
X261982Y133366D01*
X262000Y133181D01*
Y133162D01*
Y133107D01*
X261982Y133014D01*
X261926Y132922D01*
X261870Y132829D01*
X261778Y132737D01*
X261648Y132681D01*
X261463Y132662D01*
X259260D01*
X259130Y132644D01*
X258982Y132607D01*
X258797Y132551D01*
X258612Y132459D01*
X258426Y132348D01*
X258241Y132200D01*
X258223Y132181D01*
X258167Y132126D01*
X258093Y132015D01*
X258019Y131885D01*
X257945Y131718D01*
X257871Y131533D01*
X257815Y131311D01*
X257797Y131070D01*
Y125811D01*
Y125774D01*
Y125700D01*
X257815Y125571D01*
X257852Y125423D01*
X257908Y125237D01*
X257982Y125052D01*
X258093Y124867D01*
X258241Y124682D01*
X258260Y124663D01*
X258334Y124608D01*
X258426Y124534D01*
X258556Y124460D01*
X258723Y124386D01*
X258908Y124312D01*
X259130Y124256D01*
X259371Y124237D01*
X261556D01*
X261630Y124219D01*
X261741Y124163D01*
X261833Y124108D01*
X261926Y124015D01*
X261982Y123886D01*
X262000Y123701D01*
Y123682D01*
Y123626D01*
X261982Y123534D01*
X261926Y123441D01*
X261870Y123349D01*
X261778Y123256D01*
X261648Y123201D01*
X261463Y123182D01*
X259260D01*
X259186Y123201D01*
X258982Y123219D01*
X258723Y123275D01*
X258426Y123367D01*
X258130Y123497D01*
X257797Y123682D01*
X257500Y123941D01*
X257463Y123978D01*
X257389Y124089D01*
X257260Y124237D01*
X257130Y124460D01*
X256982Y124737D01*
X256852Y125052D01*
X256778Y125423D01*
X256741Y125811D01*
Y131070D01*
Y131089D01*
Y131126D01*
Y131181D01*
X256760Y131255D01*
X256778Y131459D01*
X256834Y131718D01*
X256926Y132015D01*
X257056Y132329D01*
X257241Y132644D01*
X257500Y132940D01*
X257537Y132977D01*
X257649Y133070D01*
X257797Y133181D01*
X258019Y133329D01*
X258297Y133477D01*
X258612Y133588D01*
X258982Y133681D01*
X259371Y133718D01*
X261556D01*
X261630Y133700D01*
D02*
G37*
G36*
X283852Y166250D02*
X284055Y166231D01*
X284314Y166175D01*
X284611Y166083D01*
X284925Y165935D01*
X285240Y165749D01*
X285536Y165490D01*
X285574Y165453D01*
X285666Y165361D01*
X285777Y165194D01*
X285925Y164972D01*
X286073Y164694D01*
X286185Y164379D01*
X286277Y164009D01*
X286314Y163620D01*
Y163583D01*
Y163491D01*
X286296Y163342D01*
X286259Y163157D01*
X286203Y162917D01*
X286110Y162676D01*
X285999Y162398D01*
X285833Y162102D01*
X282518Y156788D01*
X285870D01*
X285944Y156769D01*
X286055Y156713D01*
X286147Y156658D01*
X286240Y156565D01*
X286296Y156436D01*
X286314Y156250D01*
Y156232D01*
Y156176D01*
X286296Y156084D01*
X286240Y155991D01*
X286185Y155899D01*
X286092Y155806D01*
X285962Y155751D01*
X285777Y155732D01*
X281500D01*
X281407Y155769D01*
X281315Y155806D01*
X281204Y155862D01*
X281129Y155954D01*
X281055Y156084D01*
X281037Y156250D01*
Y156287D01*
X281055Y156343D01*
X281074Y156454D01*
X281129Y156547D01*
X285000Y162750D01*
X285018Y162768D01*
X285037Y162824D01*
X285074Y162917D01*
X285129Y163028D01*
X285185Y163157D01*
X285222Y163305D01*
X285240Y163454D01*
X285259Y163620D01*
Y163657D01*
Y163731D01*
X285240Y163861D01*
X285203Y164009D01*
X285148Y164194D01*
X285055Y164379D01*
X284944Y164564D01*
X284796Y164750D01*
X284777Y164768D01*
X284722Y164824D01*
X284611Y164898D01*
X284481Y164990D01*
X284314Y165064D01*
X284129Y165138D01*
X283907Y165194D01*
X283666Y165212D01*
X283629D01*
X283518Y165194D01*
X283351Y165138D01*
X283129Y165046D01*
X283000Y164972D01*
X282870Y164879D01*
X282740Y164787D01*
X282592Y164657D01*
X282444Y164490D01*
X282315Y164324D01*
X282166Y164120D01*
X282018Y163879D01*
Y163861D01*
X282000Y163842D01*
X281907Y163750D01*
X281778Y163657D01*
X281685Y163639D01*
X281574Y163620D01*
X281500D01*
X281407Y163657D01*
X281315Y163694D01*
X281204Y163750D01*
X281129Y163842D01*
X281055Y163972D01*
X281037Y164157D01*
Y164176D01*
Y164231D01*
X281055Y164287D01*
X281092Y164361D01*
X281111Y164379D01*
X281129Y164435D01*
X281185Y164546D01*
X281278Y164657D01*
X281370Y164805D01*
X281481Y164972D01*
X281630Y165138D01*
X281778Y165324D01*
X281963Y165490D01*
X282148Y165657D01*
X282370Y165824D01*
X282592Y165972D01*
X282833Y166101D01*
X283092Y166194D01*
X283370Y166250D01*
X283666Y166268D01*
X283777D01*
X283852Y166250D01*
D02*
G37*
G36*
X278574D02*
X278685Y166194D01*
X278778Y166138D01*
X278871Y166046D01*
X278926Y165916D01*
X278945Y165731D01*
Y165713D01*
Y165657D01*
X278926Y165564D01*
X278871Y165472D01*
X278815Y165379D01*
X278722Y165287D01*
X278593Y165231D01*
X278408Y165212D01*
X276204D01*
X276075Y165194D01*
X275926Y165157D01*
X275741Y165101D01*
X275556Y165009D01*
X275371Y164898D01*
X275186Y164750D01*
X275167Y164731D01*
X275112Y164676D01*
X275037Y164564D01*
X274963Y164435D01*
X274889Y164268D01*
X274815Y164083D01*
X274760Y163861D01*
X274741Y163620D01*
Y158361D01*
Y158324D01*
Y158250D01*
X274760Y158121D01*
X274797Y157973D01*
X274852Y157787D01*
X274926Y157602D01*
X275037Y157417D01*
X275186Y157232D01*
X275204Y157213D01*
X275278Y157158D01*
X275371Y157084D01*
X275501Y157010D01*
X275667Y156936D01*
X275852Y156862D01*
X276075Y156806D01*
X276315Y156788D01*
X278500D01*
X278574Y156769D01*
X278685Y156713D01*
X278778Y156658D01*
X278871Y156565D01*
X278926Y156436D01*
X278945Y156250D01*
Y156232D01*
Y156176D01*
X278926Y156084D01*
X278871Y155991D01*
X278815Y155899D01*
X278722Y155806D01*
X278593Y155751D01*
X278408Y155732D01*
X276204D01*
X276130Y155751D01*
X275926Y155769D01*
X275667Y155825D01*
X275371Y155917D01*
X275075Y156047D01*
X274741Y156232D01*
X274445Y156491D01*
X274408Y156528D01*
X274334Y156639D01*
X274204Y156788D01*
X274075Y157010D01*
X273927Y157287D01*
X273797Y157602D01*
X273723Y157973D01*
X273686Y158361D01*
Y163620D01*
Y163639D01*
Y163676D01*
Y163731D01*
X273704Y163805D01*
X273723Y164009D01*
X273778Y164268D01*
X273871Y164564D01*
X274001Y164879D01*
X274186Y165194D01*
X274445Y165490D01*
X274482Y165527D01*
X274593Y165620D01*
X274741Y165731D01*
X274963Y165879D01*
X275241Y166027D01*
X275556Y166138D01*
X275926Y166231D01*
X276315Y166268D01*
X278500D01*
X278574Y166250D01*
D02*
G37*
G36*
X347157Y129240D02*
X347268Y129185D01*
X347361Y129129D01*
X347454Y129037D01*
X347509Y128907D01*
X347528Y128722D01*
Y121889D01*
Y121871D01*
Y121834D01*
Y121760D01*
X347509Y121667D01*
Y121556D01*
X347472Y121426D01*
X347417Y121111D01*
X347305Y120760D01*
X347139Y120389D01*
X347028Y120204D01*
X346917Y120019D01*
X346768Y119834D01*
X346602Y119649D01*
X346583Y119630D01*
X346565Y119612D01*
X346509Y119574D01*
X346435Y119501D01*
X346343Y119445D01*
X346232Y119371D01*
X345972Y119204D01*
X345658Y119038D01*
X345269Y118889D01*
X344843Y118778D01*
X344602Y118760D01*
X344361Y118741D01*
X344232D01*
X344139Y118760D01*
X344028Y118778D01*
X343899Y118797D01*
X343584Y118852D01*
X343232Y118963D01*
X342862Y119130D01*
X342676Y119223D01*
X342491Y119352D01*
X342306Y119482D01*
X342121Y119649D01*
X342102Y119667D01*
X342084Y119686D01*
X342047Y119741D01*
X341973Y119815D01*
X341917Y119908D01*
X341843Y120019D01*
X341676Y120278D01*
X341510Y120611D01*
X341362Y120982D01*
X341251Y121408D01*
X341232Y121648D01*
X341214Y121889D01*
Y128722D01*
Y128740D01*
Y128814D01*
X341251Y128888D01*
X341288Y129000D01*
X341343Y129092D01*
X341436Y129185D01*
X341565Y129240D01*
X341732Y129259D01*
X341825D01*
X341899Y129240D01*
X342010Y129185D01*
X342102Y129129D01*
X342195Y129037D01*
X342251Y128907D01*
X342269Y128722D01*
Y121889D01*
Y121871D01*
Y121852D01*
X342287Y121741D01*
X342306Y121574D01*
X342343Y121371D01*
X342417Y121130D01*
X342528Y120889D01*
X342658Y120630D01*
X342862Y120389D01*
X342899Y120371D01*
X342973Y120297D01*
X343102Y120204D01*
X343287Y120093D01*
X343491Y119982D01*
X343750Y119889D01*
X344047Y119815D01*
X344361Y119797D01*
X344398D01*
X344510Y119815D01*
X344676Y119834D01*
X344880Y119871D01*
X345121Y119945D01*
X345361Y120056D01*
X345620Y120186D01*
X345861Y120389D01*
X345880Y120426D01*
X345954Y120500D01*
X346046Y120630D01*
X346176Y120815D01*
X346287Y121019D01*
X346380Y121278D01*
X346454Y121574D01*
X346472Y121889D01*
Y128722D01*
Y128740D01*
Y128814D01*
X346509Y128888D01*
X346546Y129000D01*
X346602Y129092D01*
X346694Y129185D01*
X346824Y129240D01*
X346991Y129259D01*
X347083D01*
X347157Y129240D01*
D02*
G37*
G36*
X352416D02*
X352527Y129185D01*
X352620Y129129D01*
X352712Y129037D01*
X352768Y128907D01*
X352786Y128722D01*
Y119260D01*
Y119241D01*
Y119186D01*
X352768Y119093D01*
X352712Y119001D01*
X352657Y118908D01*
X352564Y118815D01*
X352435Y118760D01*
X352249Y118741D01*
X352175D01*
X352083Y118778D01*
X351990Y118815D01*
X351898Y118871D01*
X351805Y118963D01*
X351749Y119093D01*
X351731Y119260D01*
Y127463D01*
X350509Y126241D01*
X350490Y126222D01*
X350416Y126166D01*
X350287Y126111D01*
X350139Y126092D01*
X350065D01*
X349972Y126129D01*
X349879Y126166D01*
X349787Y126222D01*
X349694Y126315D01*
X349639Y126444D01*
X349620Y126611D01*
Y126629D01*
Y126648D01*
X349639Y126741D01*
X349676Y126870D01*
X349768Y126981D01*
X351824Y129037D01*
X351842Y129055D01*
X351861Y129074D01*
X351953Y129148D01*
X352083Y129222D01*
X352175Y129259D01*
X352342D01*
X352416Y129240D01*
D02*
G37*
G36*
X81471Y52249D02*
X81564Y52193D01*
X81656Y52138D01*
X81749Y52045D01*
X81804Y51916D01*
X81823Y51730D01*
Y51712D01*
Y51693D01*
X81804Y51582D01*
X79879Y44916D01*
X82360D01*
Y46490D01*
Y46509D01*
Y46564D01*
X82397Y46657D01*
X82434Y46750D01*
X82490Y46842D01*
X82582Y46935D01*
X82712Y46990D01*
X82878Y47009D01*
X82971D01*
X83045Y46990D01*
X83156Y46953D01*
X83249Y46879D01*
X83341Y46786D01*
X83397Y46657D01*
X83415Y46490D01*
Y44916D01*
X84545D01*
X84619Y44898D01*
X84730Y44842D01*
X84823Y44787D01*
X84915Y44694D01*
X84971Y44564D01*
X84989Y44379D01*
Y44361D01*
Y44305D01*
X84971Y44213D01*
X84915Y44120D01*
X84860Y44028D01*
X84767Y43935D01*
X84637Y43879D01*
X84452Y43861D01*
X83415D01*
Y42268D01*
Y42250D01*
Y42194D01*
X83397Y42102D01*
X83341Y42009D01*
X83286Y41917D01*
X83193Y41824D01*
X83063Y41768D01*
X82878Y41750D01*
X82804D01*
X82712Y41787D01*
X82619Y41824D01*
X82527Y41880D01*
X82434Y41972D01*
X82378Y42102D01*
X82360Y42268D01*
Y43861D01*
X79120D01*
X79027Y43898D01*
X78934Y43935D01*
X78842Y43991D01*
X78749Y44083D01*
X78694Y44213D01*
X78675Y44379D01*
Y44398D01*
Y44435D01*
Y44528D01*
X80786Y51879D01*
Y51897D01*
X80805Y51934D01*
X80842Y52008D01*
X80897Y52082D01*
X80971Y52138D01*
X81045Y52212D01*
X81175Y52249D01*
X81304Y52267D01*
X81378D01*
X81471Y52249D01*
D02*
G37*
G36*
X74102Y52267D02*
X74305Y52249D01*
X74564Y52193D01*
X74861Y52101D01*
X75175Y51953D01*
X75490Y51768D01*
X75786Y51508D01*
X75823Y51471D01*
X75916Y51379D01*
X76027Y51212D01*
X76175Y50990D01*
X76323Y50712D01*
X76434Y50397D01*
X76527Y50045D01*
X76564Y49638D01*
Y44379D01*
Y44361D01*
Y44324D01*
Y44268D01*
X76546Y44194D01*
X76527Y43991D01*
X76472Y43731D01*
X76379Y43435D01*
X76231Y43139D01*
X76046Y42805D01*
X75786Y42509D01*
X75749Y42472D01*
X75657Y42398D01*
X75490Y42268D01*
X75268Y42139D01*
X74990Y41991D01*
X74675Y41861D01*
X74305Y41787D01*
X73916Y41750D01*
X70694D01*
X70602Y41787D01*
X70509Y41824D01*
X70417Y41880D01*
X70324Y41972D01*
X70269Y42102D01*
X70250Y42268D01*
Y51749D01*
Y51768D01*
Y51842D01*
X70287Y51916D01*
X70324Y52027D01*
X70380Y52119D01*
X70472Y52212D01*
X70602Y52267D01*
X70768Y52286D01*
X74027D01*
X74102Y52267D01*
D02*
G37*
G36*
X77480Y79517D02*
X77684Y79499D01*
X77943Y79443D01*
X78239Y79351D01*
X78554Y79203D01*
X78868Y79018D01*
X79165Y78758D01*
X79202Y78721D01*
X79294Y78629D01*
X79405Y78462D01*
X79554Y78240D01*
X79702Y77962D01*
X79813Y77647D01*
X79906Y77277D01*
X79942Y76888D01*
Y76851D01*
Y76758D01*
X79924Y76610D01*
X79887Y76425D01*
X79831Y76184D01*
X79739Y75944D01*
X79628Y75666D01*
X79461Y75370D01*
X76147Y70055D01*
X79498D01*
X79572Y70037D01*
X79683Y69981D01*
X79776Y69926D01*
X79868Y69833D01*
X79924Y69704D01*
X79942Y69518D01*
Y69500D01*
Y69444D01*
X79924Y69352D01*
X79868Y69259D01*
X79813Y69167D01*
X79720Y69074D01*
X79591Y69019D01*
X79405Y69000D01*
X75128D01*
X75036Y69037D01*
X74943Y69074D01*
X74832Y69130D01*
X74758Y69222D01*
X74684Y69352D01*
X74665Y69518D01*
Y69556D01*
X74684Y69611D01*
X74702Y69722D01*
X74758Y69815D01*
X78628Y76018D01*
X78646Y76036D01*
X78665Y76092D01*
X78702Y76184D01*
X78757Y76295D01*
X78813Y76425D01*
X78850Y76573D01*
X78868Y76721D01*
X78887Y76888D01*
Y76925D01*
Y76999D01*
X78868Y77129D01*
X78832Y77277D01*
X78776Y77462D01*
X78683Y77647D01*
X78572Y77832D01*
X78424Y78018D01*
X78406Y78036D01*
X78350Y78092D01*
X78239Y78166D01*
X78109Y78258D01*
X77943Y78332D01*
X77758Y78406D01*
X77535Y78462D01*
X77295Y78481D01*
X77258D01*
X77147Y78462D01*
X76980Y78406D01*
X76758Y78314D01*
X76628Y78240D01*
X76498Y78147D01*
X76369Y78055D01*
X76221Y77925D01*
X76073Y77758D01*
X75943Y77592D01*
X75795Y77388D01*
X75647Y77147D01*
Y77129D01*
X75628Y77110D01*
X75535Y77018D01*
X75406Y76925D01*
X75313Y76907D01*
X75202Y76888D01*
X75128D01*
X75036Y76925D01*
X74943Y76962D01*
X74832Y77018D01*
X74758Y77110D01*
X74684Y77240D01*
X74665Y77425D01*
Y77444D01*
Y77499D01*
X74684Y77555D01*
X74721Y77629D01*
X74739Y77647D01*
X74758Y77703D01*
X74813Y77814D01*
X74906Y77925D01*
X74999Y78073D01*
X75110Y78240D01*
X75258Y78406D01*
X75406Y78592D01*
X75591Y78758D01*
X75776Y78925D01*
X75999Y79092D01*
X76221Y79240D01*
X76461Y79369D01*
X76721Y79462D01*
X76998Y79517D01*
X77295Y79536D01*
X77406D01*
X77480Y79517D01*
D02*
G37*
G36*
X72203Y79499D02*
X72314Y79443D01*
X72406Y79388D01*
X72499Y79295D01*
X72554Y79166D01*
X72573Y78980D01*
Y69518D01*
Y69500D01*
Y69444D01*
X72554Y69352D01*
X72499Y69259D01*
X72443Y69167D01*
X72351Y69074D01*
X72221Y69019D01*
X72036Y69000D01*
X71962D01*
X71869Y69037D01*
X71777Y69074D01*
X71684Y69130D01*
X71592Y69222D01*
X71536Y69352D01*
X71517Y69518D01*
Y77721D01*
X70295Y76499D01*
X70277Y76481D01*
X70203Y76425D01*
X70073Y76370D01*
X69925Y76351D01*
X69851D01*
X69758Y76388D01*
X69666Y76425D01*
X69573Y76481D01*
X69481Y76573D01*
X69425Y76703D01*
X69406Y76870D01*
Y76888D01*
Y76907D01*
X69425Y76999D01*
X69462Y77129D01*
X69555Y77240D01*
X71610Y79295D01*
X71628Y79314D01*
X71647Y79332D01*
X71740Y79406D01*
X71869Y79480D01*
X71962Y79517D01*
X72129D01*
X72203Y79499D01*
D02*
G37*
G36*
X64370Y79517D02*
X64481D01*
X64611Y79480D01*
X64925Y79425D01*
X65277Y79314D01*
X65648Y79147D01*
X65833Y79036D01*
X66018Y78925D01*
X66203Y78777D01*
X66388Y78610D01*
X66407Y78592D01*
X66425Y78573D01*
X66481Y78517D01*
X66536Y78443D01*
X66610Y78351D01*
X66685Y78240D01*
X66851Y77980D01*
X67018Y77666D01*
X67166Y77277D01*
X67277Y76851D01*
X67296Y76610D01*
X67314Y76370D01*
Y76351D01*
Y76277D01*
X67296Y76166D01*
X67277Y76018D01*
X67259Y75833D01*
X67222Y75647D01*
X67147Y75425D01*
X67073Y75184D01*
X66981Y74944D01*
X66851Y74685D01*
X66703Y74444D01*
X66518Y74203D01*
X66296Y73981D01*
X66037Y73777D01*
X65740Y73592D01*
X65407Y73425D01*
X67259Y69759D01*
X67277Y69741D01*
X67296Y69685D01*
X67314Y69611D01*
Y69518D01*
Y69481D01*
X67296Y69389D01*
X67240Y69278D01*
X67147Y69148D01*
X67111Y69130D01*
X67036Y69074D01*
X66925Y69019D01*
X66777Y69000D01*
X66722D01*
X66666Y69019D01*
X66592Y69037D01*
X66518Y69074D01*
X66444Y69111D01*
X66370Y69185D01*
X66314Y69278D01*
X64352Y73203D01*
X62056D01*
Y69518D01*
Y69500D01*
Y69444D01*
X62037Y69352D01*
X61981Y69259D01*
X61926Y69167D01*
X61833Y69074D01*
X61704Y69019D01*
X61519Y69000D01*
X61444D01*
X61352Y69037D01*
X61259Y69074D01*
X61167Y69130D01*
X61074Y69222D01*
X61019Y69352D01*
X61000Y69518D01*
Y78999D01*
Y79018D01*
Y79092D01*
X61037Y79166D01*
X61074Y79277D01*
X61130Y79369D01*
X61222Y79462D01*
X61352Y79517D01*
X61519Y79536D01*
X64277D01*
X64370Y79517D01*
D02*
G37*
G36*
X31924Y18517D02*
X32128Y18499D01*
X32387Y18443D01*
X32683Y18351D01*
X32998Y18203D01*
X33313Y18017D01*
X33609Y17758D01*
X33646Y17721D01*
X33739Y17629D01*
X33850Y17462D01*
X33998Y17240D01*
X34146Y16962D01*
X34257Y16647D01*
X34350Y16277D01*
X34387Y15888D01*
Y15851D01*
Y15758D01*
X34369Y15610D01*
X34332Y15425D01*
X34276Y15184D01*
X34183Y14944D01*
X34072Y14666D01*
X33906Y14370D01*
X30591Y9055D01*
X33943D01*
X34017Y9037D01*
X34128Y8981D01*
X34220Y8926D01*
X34313Y8833D01*
X34369Y8704D01*
X34387Y8518D01*
Y8500D01*
Y8444D01*
X34369Y8352D01*
X34313Y8259D01*
X34257Y8167D01*
X34165Y8074D01*
X34035Y8019D01*
X33850Y8000D01*
X29573D01*
X29480Y8037D01*
X29388Y8074D01*
X29276Y8130D01*
X29202Y8222D01*
X29128Y8352D01*
X29110Y8518D01*
Y8555D01*
X29128Y8611D01*
X29147Y8722D01*
X29202Y8815D01*
X33072Y15018D01*
X33091Y15036D01*
X33109Y15092D01*
X33146Y15184D01*
X33202Y15295D01*
X33258Y15425D01*
X33294Y15573D01*
X33313Y15721D01*
X33332Y15888D01*
Y15925D01*
Y15999D01*
X33313Y16129D01*
X33276Y16277D01*
X33221Y16462D01*
X33128Y16647D01*
X33017Y16832D01*
X32869Y17018D01*
X32850Y17036D01*
X32795Y17092D01*
X32683Y17166D01*
X32554Y17258D01*
X32387Y17332D01*
X32202Y17406D01*
X31980Y17462D01*
X31739Y17480D01*
X31702D01*
X31591Y17462D01*
X31424Y17406D01*
X31202Y17314D01*
X31073Y17240D01*
X30943Y17147D01*
X30813Y17055D01*
X30665Y16925D01*
X30517Y16758D01*
X30387Y16592D01*
X30239Y16388D01*
X30091Y16147D01*
Y16129D01*
X30073Y16110D01*
X29980Y16018D01*
X29850Y15925D01*
X29758Y15907D01*
X29647Y15888D01*
X29573D01*
X29480Y15925D01*
X29388Y15962D01*
X29276Y16018D01*
X29202Y16110D01*
X29128Y16240D01*
X29110Y16425D01*
Y16444D01*
Y16499D01*
X29128Y16555D01*
X29165Y16629D01*
X29184Y16647D01*
X29202Y16703D01*
X29258Y16814D01*
X29351Y16925D01*
X29443Y17073D01*
X29554Y17240D01*
X29702Y17406D01*
X29850Y17592D01*
X30036Y17758D01*
X30221Y17925D01*
X30443Y18091D01*
X30665Y18240D01*
X30906Y18369D01*
X31165Y18462D01*
X31443Y18517D01*
X31739Y18536D01*
X31850D01*
X31924Y18517D01*
D02*
G37*
G36*
X26647Y18499D02*
X26758Y18443D01*
X26851Y18388D01*
X26943Y18295D01*
X26999Y18166D01*
X27017Y17980D01*
Y8518D01*
Y8500D01*
Y8444D01*
X26999Y8352D01*
X26943Y8259D01*
X26888Y8167D01*
X26795Y8074D01*
X26666Y8019D01*
X26480Y8000D01*
X26406D01*
X26314Y8037D01*
X26221Y8074D01*
X26129Y8130D01*
X26036Y8222D01*
X25981Y8352D01*
X25962Y8518D01*
Y16721D01*
X24740Y15499D01*
X24721Y15481D01*
X24647Y15425D01*
X24518Y15370D01*
X24369Y15351D01*
X24295D01*
X24203Y15388D01*
X24110Y15425D01*
X24018Y15481D01*
X23925Y15573D01*
X23870Y15703D01*
X23851Y15869D01*
Y15888D01*
Y15907D01*
X23870Y15999D01*
X23907Y16129D01*
X23999Y16240D01*
X26055Y18295D01*
X26073Y18314D01*
X26092Y18332D01*
X26184Y18406D01*
X26314Y18480D01*
X26406Y18517D01*
X26573D01*
X26647Y18499D01*
D02*
G37*
G36*
X21388Y18517D02*
X21500Y18462D01*
X21592Y18406D01*
X21685Y18314D01*
X21740Y18184D01*
X21759Y17999D01*
Y17980D01*
Y17925D01*
X21740Y17832D01*
X21685Y17740D01*
X21629Y17647D01*
X21537Y17555D01*
X21407Y17499D01*
X21222Y17480D01*
X19018D01*
X18889Y17462D01*
X18741Y17425D01*
X18555Y17369D01*
X18370Y17277D01*
X18185Y17166D01*
X18000Y17018D01*
X17981Y16999D01*
X17926Y16944D01*
X17852Y16832D01*
X17778Y16703D01*
X17704Y16536D01*
X17629Y16351D01*
X17574Y16129D01*
X17555Y15888D01*
Y10629D01*
Y10592D01*
Y10518D01*
X17574Y10389D01*
X17611Y10240D01*
X17666Y10055D01*
X17741Y9870D01*
X17852Y9685D01*
X18000Y9500D01*
X18018Y9481D01*
X18092Y9426D01*
X18185Y9352D01*
X18315Y9278D01*
X18481Y9204D01*
X18666Y9129D01*
X18889Y9074D01*
X19129Y9055D01*
X21314D01*
X21388Y9037D01*
X21500Y8981D01*
X21592Y8926D01*
X21685Y8833D01*
X21740Y8704D01*
X21759Y8518D01*
Y8500D01*
Y8444D01*
X21740Y8352D01*
X21685Y8259D01*
X21629Y8167D01*
X21537Y8074D01*
X21407Y8019D01*
X21222Y8000D01*
X19018D01*
X18944Y8019D01*
X18741Y8037D01*
X18481Y8093D01*
X18185Y8185D01*
X17889Y8315D01*
X17555Y8500D01*
X17259Y8759D01*
X17222Y8796D01*
X17148Y8907D01*
X17019Y9055D01*
X16889Y9278D01*
X16741Y9555D01*
X16611Y9870D01*
X16537Y10240D01*
X16500Y10629D01*
Y15888D01*
Y15907D01*
Y15944D01*
Y15999D01*
X16518Y16073D01*
X16537Y16277D01*
X16593Y16536D01*
X16685Y16832D01*
X16815Y17147D01*
X17000Y17462D01*
X17259Y17758D01*
X17296Y17795D01*
X17407Y17888D01*
X17555Y17999D01*
X17778Y18147D01*
X18055Y18295D01*
X18370Y18406D01*
X18741Y18499D01*
X19129Y18536D01*
X21314D01*
X21388Y18517D01*
D02*
G37*
%LPC*%
G36*
X72574Y142212D02*
X70482D01*
Y139046D01*
X72685D01*
X72815Y139065D01*
X72963Y139102D01*
X73148Y139157D01*
X73333Y139250D01*
X73518Y139361D01*
X73703Y139509D01*
X73722Y139528D01*
X73777Y139583D01*
X73852Y139694D01*
X73944Y139824D01*
X74018Y139991D01*
X74092Y140176D01*
X74148Y140379D01*
X74166Y140620D01*
Y140657D01*
Y140731D01*
X74148Y140842D01*
X74111Y141009D01*
X74055Y141176D01*
X73963Y141361D01*
X73852Y141546D01*
X73703Y141731D01*
X73685Y141750D01*
X73629Y141805D01*
X73518Y141879D01*
X73389Y141972D01*
X73222Y142064D01*
X73037Y142139D01*
X72815Y142194D01*
X72574Y142212D01*
D02*
G37*
G36*
X72592Y137991D02*
X70482D01*
Y133787D01*
X72629D01*
X72741Y133806D01*
X72907Y133825D01*
X73111Y133862D01*
X73333Y133936D01*
X73592Y134047D01*
X73833Y134176D01*
X74074Y134380D01*
X74092Y134417D01*
X74166Y134491D01*
X74277Y134621D01*
X74388Y134806D01*
X74500Y135010D01*
X74611Y135269D01*
X74685Y135565D01*
X74703Y135880D01*
Y135898D01*
Y135917D01*
Y136028D01*
X74666Y136195D01*
X74629Y136398D01*
X74555Y136639D01*
X74444Y136880D01*
X74277Y137139D01*
X74074Y137380D01*
X74055Y137398D01*
X73963Y137472D01*
X73833Y137565D01*
X73666Y137695D01*
X73444Y137806D01*
X73185Y137898D01*
X72907Y137972D01*
X72592Y137991D01*
D02*
G37*
G36*
X299740Y11185D02*
X299629D01*
X299499Y11166D01*
X299351Y11129D01*
X299166Y11074D01*
X298981Y10981D01*
X298796Y10870D01*
X298610Y10722D01*
X298592Y10703D01*
X298536Y10648D01*
X298462Y10555D01*
X298388Y10426D01*
X298314Y10259D01*
X298240Y10074D01*
X298185Y9852D01*
X298166Y9611D01*
Y9574D01*
Y9500D01*
X298185Y9370D01*
X298222Y9222D01*
X298277Y9037D01*
X298351Y8852D01*
X298462Y8667D01*
X298610Y8481D01*
X298629Y8463D01*
X298703Y8407D01*
X298796Y8333D01*
X298925Y8259D01*
X299092Y8185D01*
X299277Y8111D01*
X299499Y8056D01*
X299740Y8037D01*
X299851D01*
X299962Y8056D01*
X300129Y8093D01*
X300296Y8148D01*
X300481Y8222D01*
X300666Y8333D01*
X300851Y8481D01*
X300870Y8500D01*
X300925Y8574D01*
X300999Y8667D01*
X301092Y8796D01*
X301166Y8963D01*
X301240Y9148D01*
X301295Y9370D01*
X301314Y9611D01*
Y9648D01*
Y9722D01*
X301295Y9833D01*
X301258Y10000D01*
X301203Y10166D01*
X301110Y10352D01*
X300999Y10537D01*
X300851Y10722D01*
X300833Y10740D01*
X300777Y10796D01*
X300666Y10870D01*
X300536Y10963D01*
X300370Y11037D01*
X300184Y11111D01*
X299981Y11166D01*
X299740Y11185D01*
D02*
G37*
G36*
Y6982D02*
X299629D01*
X299499Y6963D01*
X299351Y6926D01*
X299166Y6870D01*
X298981Y6778D01*
X298796Y6667D01*
X298610Y6519D01*
X298592Y6500D01*
X298536Y6445D01*
X298462Y6334D01*
X298388Y6204D01*
X298314Y6037D01*
X298240Y5852D01*
X298185Y5648D01*
X298166Y5408D01*
Y4352D01*
Y4315D01*
Y4241D01*
X298185Y4112D01*
X298222Y3963D01*
X298277Y3778D01*
X298351Y3593D01*
X298462Y3408D01*
X298610Y3223D01*
X298629Y3204D01*
X298703Y3149D01*
X298796Y3075D01*
X298925Y3000D01*
X299092Y2927D01*
X299277Y2852D01*
X299499Y2797D01*
X299740Y2778D01*
X299851D01*
X299962Y2797D01*
X300129Y2834D01*
X300296Y2889D01*
X300481Y2964D01*
X300666Y3075D01*
X300851Y3223D01*
X300870Y3241D01*
X300925Y3315D01*
X300999Y3408D01*
X301092Y3537D01*
X301166Y3704D01*
X301240Y3889D01*
X301295Y4112D01*
X301314Y4352D01*
Y5408D01*
Y5445D01*
Y5519D01*
X301295Y5630D01*
X301258Y5796D01*
X301203Y5963D01*
X301110Y6148D01*
X300999Y6334D01*
X300851Y6519D01*
X300833Y6537D01*
X300777Y6593D01*
X300666Y6667D01*
X300536Y6759D01*
X300370Y6834D01*
X300184Y6908D01*
X299981Y6963D01*
X299740Y6982D01*
D02*
G37*
G36*
X390771Y14147D02*
X388160D01*
Y5722D01*
X390882D01*
X391011Y5741D01*
X391159Y5778D01*
X391345Y5833D01*
X391530Y5907D01*
X391715Y6018D01*
X391900Y6166D01*
X391919Y6185D01*
X391974Y6259D01*
X392048Y6352D01*
X392141Y6481D01*
X392215Y6648D01*
X392289Y6833D01*
X392345Y7055D01*
X392363Y7296D01*
Y12555D01*
Y12592D01*
Y12666D01*
X392345Y12795D01*
X392308Y12944D01*
X392252Y13129D01*
X392159Y13314D01*
X392048Y13499D01*
X391900Y13684D01*
X391882Y13703D01*
X391826Y13758D01*
X391715Y13832D01*
X391585Y13925D01*
X391419Y13999D01*
X391233Y14073D01*
X391011Y14129D01*
X390771Y14147D01*
D02*
G37*
G36*
X361880Y165212D02*
X359269D01*
Y156788D01*
X361991D01*
X362121Y156806D01*
X362269Y156843D01*
X362454Y156899D01*
X362639Y156973D01*
X362824Y157084D01*
X363009Y157232D01*
X363028Y157250D01*
X363083Y157324D01*
X363158Y157417D01*
X363250Y157547D01*
X363324Y157713D01*
X363398Y157899D01*
X363454Y158121D01*
X363472Y158361D01*
Y163620D01*
Y163657D01*
Y163731D01*
X363454Y163861D01*
X363417Y164009D01*
X363361Y164194D01*
X363269Y164379D01*
X363158Y164564D01*
X363009Y164750D01*
X362991Y164768D01*
X362935Y164824D01*
X362824Y164898D01*
X362695Y164990D01*
X362528Y165064D01*
X362343Y165138D01*
X362121Y165194D01*
X361880Y165212D01*
D02*
G37*
G36*
X476306Y14212D02*
X474214D01*
Y9991D01*
X476343D01*
X476454Y10009D01*
X476621Y10028D01*
X476824Y10065D01*
X477065Y10139D01*
X477306Y10250D01*
X477565Y10398D01*
X477806Y10602D01*
X477824Y10639D01*
X477898Y10713D01*
X477991Y10842D01*
X478121Y11028D01*
X478232Y11231D01*
X478324Y11491D01*
X478398Y11787D01*
X478417Y12102D01*
Y12120D01*
Y12139D01*
Y12250D01*
X478380Y12416D01*
X478343Y12620D01*
X478269Y12842D01*
X478158Y13102D01*
X478009Y13342D01*
X477806Y13583D01*
X477787Y13601D01*
X477695Y13676D01*
X477565Y13787D01*
X477398Y13898D01*
X477176Y14009D01*
X476917Y14120D01*
X476621Y14194D01*
X476306Y14212D01*
D02*
G37*
G36*
X405213Y151991D02*
X403639D01*
Y149361D01*
Y149324D01*
Y149250D01*
X403657Y149121D01*
X403694Y148973D01*
X403750Y148787D01*
X403824Y148602D01*
X403935Y148417D01*
X404083Y148232D01*
X404102Y148213D01*
X404176Y148158D01*
X404268Y148084D01*
X404398Y148010D01*
X404565Y147936D01*
X404750Y147862D01*
X404972Y147806D01*
X405213Y147788D01*
X405324D01*
X405435Y147806D01*
X405601Y147843D01*
X405768Y147899D01*
X405953Y147973D01*
X406138Y148084D01*
X406324Y148232D01*
X406342Y148250D01*
X406398Y148324D01*
X406472Y148417D01*
X406564Y148547D01*
X406638Y148713D01*
X406712Y148898D01*
X406768Y149121D01*
X406786Y149361D01*
Y150398D01*
Y150435D01*
Y150509D01*
X406768Y150639D01*
X406731Y150787D01*
X406675Y150972D01*
X406583Y151158D01*
X406472Y151343D01*
X406324Y151528D01*
X406305Y151546D01*
X406250Y151602D01*
X406138Y151676D01*
X406009Y151769D01*
X405842Y151843D01*
X405657Y151917D01*
X405453Y151972D01*
X405213Y151991D01*
D02*
G37*
G36*
X397306Y156213D02*
X395214D01*
Y151991D01*
X397343D01*
X397454Y152009D01*
X397621Y152028D01*
X397824Y152065D01*
X398065Y152139D01*
X398306Y152250D01*
X398565Y152398D01*
X398806Y152602D01*
X398824Y152639D01*
X398898Y152713D01*
X398991Y152843D01*
X399121Y153028D01*
X399232Y153231D01*
X399324Y153491D01*
X399398Y153787D01*
X399417Y154102D01*
Y154120D01*
Y154139D01*
Y154250D01*
X399380Y154416D01*
X399343Y154620D01*
X399269Y154842D01*
X399158Y155101D01*
X399010Y155342D01*
X398806Y155583D01*
X398787Y155602D01*
X398695Y155676D01*
X398565Y155787D01*
X398398Y155898D01*
X398176Y156009D01*
X397917Y156120D01*
X397621Y156194D01*
X397306Y156213D01*
D02*
G37*
G36*
X480213Y157194D02*
X480101D01*
X479972Y157176D01*
X479824Y157139D01*
X479638Y157083D01*
X479453Y156990D01*
X479268Y156879D01*
X479083Y156731D01*
X479064Y156713D01*
X479009Y156657D01*
X478935Y156565D01*
X478861Y156435D01*
X478787Y156268D01*
X478713Y156083D01*
X478657Y155861D01*
X478639Y155620D01*
Y155583D01*
Y155509D01*
X478657Y155379D01*
X478694Y155231D01*
X478750Y155046D01*
X478824Y154861D01*
X478935Y154676D01*
X479083Y154491D01*
X479101Y154472D01*
X479176Y154417D01*
X479268Y154342D01*
X479398Y154268D01*
X479564Y154194D01*
X479750Y154120D01*
X479972Y154065D01*
X480213Y154046D01*
X480324D01*
X480435Y154065D01*
X480601Y154102D01*
X480768Y154157D01*
X480953Y154231D01*
X481138Y154342D01*
X481324Y154491D01*
X481342Y154509D01*
X481398Y154583D01*
X481472Y154676D01*
X481564Y154805D01*
X481638Y154972D01*
X481712Y155157D01*
X481768Y155379D01*
X481786Y155620D01*
Y155657D01*
Y155731D01*
X481768Y155842D01*
X481731Y156009D01*
X481675Y156176D01*
X481583Y156361D01*
X481472Y156546D01*
X481324Y156731D01*
X481305Y156750D01*
X481250Y156805D01*
X481138Y156879D01*
X481009Y156972D01*
X480842Y157046D01*
X480657Y157120D01*
X480453Y157176D01*
X480213Y157194D01*
D02*
G37*
G36*
Y152991D02*
X480101D01*
X479972Y152972D01*
X479824Y152935D01*
X479638Y152880D01*
X479453Y152787D01*
X479268Y152676D01*
X479083Y152528D01*
X479064Y152509D01*
X479009Y152454D01*
X478935Y152343D01*
X478861Y152213D01*
X478787Y152046D01*
X478713Y151861D01*
X478657Y151658D01*
X478639Y151417D01*
Y150361D01*
Y150324D01*
Y150250D01*
X478657Y150121D01*
X478694Y149972D01*
X478750Y149787D01*
X478824Y149602D01*
X478935Y149417D01*
X479083Y149232D01*
X479101Y149213D01*
X479176Y149158D01*
X479268Y149084D01*
X479398Y149010D01*
X479564Y148936D01*
X479750Y148862D01*
X479972Y148806D01*
X480213Y148787D01*
X480324D01*
X480435Y148806D01*
X480601Y148843D01*
X480768Y148899D01*
X480953Y148973D01*
X481138Y149084D01*
X481324Y149232D01*
X481342Y149250D01*
X481398Y149325D01*
X481472Y149417D01*
X481564Y149547D01*
X481638Y149713D01*
X481712Y149899D01*
X481768Y150121D01*
X481786Y150361D01*
Y151417D01*
Y151454D01*
Y151528D01*
X481768Y151639D01*
X481731Y151806D01*
X481675Y151972D01*
X481583Y152157D01*
X481472Y152343D01*
X481324Y152528D01*
X481305Y152546D01*
X481250Y152602D01*
X481138Y152676D01*
X481009Y152769D01*
X480842Y152843D01*
X480657Y152917D01*
X480453Y152972D01*
X480213Y152991D01*
D02*
G37*
G36*
X472306Y157212D02*
X470214D01*
Y152991D01*
X472343D01*
X472454Y153009D01*
X472621Y153028D01*
X472824Y153065D01*
X473065Y153139D01*
X473306Y153250D01*
X473565Y153398D01*
X473806Y153602D01*
X473824Y153639D01*
X473898Y153713D01*
X473991Y153842D01*
X474121Y154028D01*
X474232Y154231D01*
X474324Y154491D01*
X474398Y154787D01*
X474417Y155102D01*
Y155120D01*
Y155139D01*
Y155250D01*
X474380Y155416D01*
X474343Y155620D01*
X474269Y155842D01*
X474158Y156102D01*
X474010Y156342D01*
X473806Y156583D01*
X473787Y156601D01*
X473695Y156676D01*
X473565Y156787D01*
X473398Y156898D01*
X473176Y157009D01*
X472917Y157120D01*
X472621Y157194D01*
X472306Y157212D01*
D02*
G37*
G36*
X417306Y156213D02*
X415214D01*
Y151991D01*
X417343D01*
X417454Y152009D01*
X417621Y152028D01*
X417824Y152065D01*
X418065Y152139D01*
X418306Y152250D01*
X418565Y152398D01*
X418806Y152602D01*
X418824Y152639D01*
X418898Y152713D01*
X418991Y152843D01*
X419121Y153028D01*
X419232Y153231D01*
X419324Y153491D01*
X419398Y153787D01*
X419417Y154102D01*
Y154120D01*
Y154139D01*
Y154250D01*
X419380Y154416D01*
X419343Y154620D01*
X419269Y154842D01*
X419158Y155101D01*
X419010Y155342D01*
X418806Y155583D01*
X418787Y155602D01*
X418695Y155676D01*
X418565Y155787D01*
X418398Y155898D01*
X418176Y156009D01*
X417917Y156120D01*
X417621Y156194D01*
X417306Y156213D01*
D02*
G37*
G36*
X446306D02*
X444214D01*
Y151991D01*
X446343D01*
X446454Y152009D01*
X446621Y152028D01*
X446824Y152065D01*
X447065Y152139D01*
X447306Y152250D01*
X447565Y152398D01*
X447806Y152602D01*
X447824Y152639D01*
X447898Y152713D01*
X447991Y152843D01*
X448121Y153028D01*
X448232Y153231D01*
X448324Y153491D01*
X448398Y153787D01*
X448417Y154102D01*
Y154120D01*
Y154139D01*
Y154250D01*
X448380Y154416D01*
X448343Y154620D01*
X448269Y154842D01*
X448158Y155101D01*
X448009Y155342D01*
X447806Y155583D01*
X447787Y155602D01*
X447695Y155676D01*
X447565Y155787D01*
X447398Y155898D01*
X447176Y156009D01*
X446917Y156120D01*
X446621Y156194D01*
X446306Y156213D01*
D02*
G37*
G36*
X548314Y182213D02*
X548277D01*
X548166Y182194D01*
X548018Y182120D01*
X547925Y182064D01*
X547833Y181990D01*
X547722Y181898D01*
X547611Y181787D01*
X547499Y181639D01*
X547407Y181472D01*
X547296Y181268D01*
X547203Y181028D01*
X547111Y180768D01*
X547018Y180453D01*
Y180435D01*
X547000Y180398D01*
Y180342D01*
X546981Y180250D01*
X546963Y180139D01*
X546925Y180009D01*
X546888Y179694D01*
X546833Y179324D01*
X546777Y178917D01*
X546759Y178472D01*
X546740Y177991D01*
Y177972D01*
Y177935D01*
Y177861D01*
Y177769D01*
Y177658D01*
X546759Y177528D01*
X546777Y177194D01*
X546814Y176824D01*
X546851Y176398D01*
X546925Y175972D01*
X547018Y175528D01*
Y175509D01*
X547037Y175454D01*
X547055Y175361D01*
X547092Y175250D01*
X547148Y175121D01*
X547203Y174972D01*
X547333Y174658D01*
X547518Y174343D01*
X547629Y174195D01*
X547740Y174065D01*
X547870Y173954D01*
X547999Y173862D01*
X548148Y173806D01*
X548314Y173787D01*
X548351D01*
X548462Y173825D01*
X548610Y173880D01*
X548703Y173936D01*
X548796Y174010D01*
X548907Y174102D01*
X549018Y174213D01*
X549110Y174361D01*
X549221Y174528D01*
X549314Y174713D01*
X549425Y174954D01*
X549518Y175213D01*
X549592Y175528D01*
Y175547D01*
X549610Y175584D01*
X549629Y175639D01*
X549647Y175732D01*
X549666Y175843D01*
X549684Y175972D01*
X549740Y176269D01*
X549795Y176639D01*
X549851Y177065D01*
X549870Y177509D01*
X549888Y177991D01*
Y178009D01*
Y178046D01*
Y178120D01*
Y178213D01*
Y178324D01*
X549870Y178472D01*
X549851Y178787D01*
X549814Y179176D01*
X549758Y179583D01*
X549684Y180028D01*
X549592Y180453D01*
Y180472D01*
X549573Y180527D01*
X549555Y180620D01*
X549518Y180731D01*
X549462Y180861D01*
X549425Y181009D01*
X549277Y181342D01*
X549110Y181657D01*
X548999Y181805D01*
X548888Y181935D01*
X548759Y182046D01*
X548610Y182139D01*
X548481Y182194D01*
X548314Y182213D01*
D02*
G37*
G36*
X330077Y14389D02*
X329966D01*
X329837Y14370D01*
X329688Y14333D01*
X329503Y14278D01*
X329318Y14185D01*
X329133Y14074D01*
X328948Y13926D01*
X328929Y13907D01*
X328874Y13852D01*
X328800Y13741D01*
X328726Y13611D01*
X328652Y13444D01*
X328577Y13259D01*
X328522Y13055D01*
X328503Y12815D01*
Y11759D01*
Y11722D01*
Y11648D01*
X328522Y11519D01*
X328559Y11371D01*
X328615Y11185D01*
X328689Y11000D01*
X328800Y10815D01*
X328948Y10630D01*
X328966Y10611D01*
X329040Y10556D01*
X329133Y10482D01*
X329263Y10408D01*
X329429Y10334D01*
X329614Y10259D01*
X329837Y10204D01*
X330077Y10186D01*
X331651D01*
Y12815D01*
Y12852D01*
Y12926D01*
X331633Y13037D01*
X331596Y13204D01*
X331540Y13370D01*
X331447Y13556D01*
X331336Y13741D01*
X331188Y13926D01*
X331170Y13944D01*
X331114Y14000D01*
X331003Y14074D01*
X330873Y14167D01*
X330707Y14241D01*
X330522Y14315D01*
X330318Y14370D01*
X330077Y14389D01*
D02*
G37*
G36*
X322171Y14407D02*
X320078D01*
Y10186D01*
X322208D01*
X322319Y10204D01*
X322486Y10223D01*
X322689Y10259D01*
X322930Y10334D01*
X323171Y10445D01*
X323430Y10593D01*
X323671Y10797D01*
X323689Y10833D01*
X323763Y10908D01*
X323856Y11037D01*
X323985Y11222D01*
X324096Y11426D01*
X324189Y11685D01*
X324263Y11982D01*
X324282Y12296D01*
Y12315D01*
Y12333D01*
Y12444D01*
X324244Y12611D01*
X324207Y12815D01*
X324133Y13037D01*
X324022Y13296D01*
X323874Y13537D01*
X323671Y13778D01*
X323652Y13796D01*
X323559Y13870D01*
X323430Y13981D01*
X323263Y14093D01*
X323041Y14204D01*
X322782Y14315D01*
X322486Y14389D01*
X322171Y14407D01*
D02*
G37*
G36*
X341778Y165212D02*
X339686D01*
Y160991D01*
X341815D01*
X341926Y161009D01*
X342093Y161028D01*
X342297Y161065D01*
X342537Y161139D01*
X342778Y161250D01*
X343037Y161398D01*
X343278Y161602D01*
X343297Y161639D01*
X343371Y161713D01*
X343463Y161842D01*
X343593Y162028D01*
X343704Y162231D01*
X343797Y162491D01*
X343871Y162787D01*
X343889Y163102D01*
Y163120D01*
Y163139D01*
Y163250D01*
X343852Y163416D01*
X343815Y163620D01*
X343741Y163842D01*
X343630Y164102D01*
X343482Y164342D01*
X343278Y164583D01*
X343260Y164601D01*
X343167Y164676D01*
X343037Y164787D01*
X342871Y164898D01*
X342649Y165009D01*
X342389Y165120D01*
X342093Y165194D01*
X341778Y165212D01*
D02*
G37*
G36*
X349832Y31402D02*
X347739D01*
Y27180D01*
X349869D01*
X349980Y27198D01*
X350147Y27217D01*
X350350Y27254D01*
X350591Y27328D01*
X350832Y27439D01*
X351091Y27587D01*
X351332Y27791D01*
X351350Y27828D01*
X351424Y27902D01*
X351517Y28031D01*
X351646Y28217D01*
X351758Y28420D01*
X351850Y28679D01*
X351924Y28976D01*
X351943Y29291D01*
Y29309D01*
Y29328D01*
Y29439D01*
X351906Y29605D01*
X351869Y29809D01*
X351795Y30031D01*
X351684Y30291D01*
X351535Y30531D01*
X351332Y30772D01*
X351313Y30790D01*
X351221Y30865D01*
X351091Y30976D01*
X350924Y31087D01*
X350702Y31198D01*
X350443Y31309D01*
X350147Y31383D01*
X349832Y31402D01*
D02*
G37*
G36*
X179732Y179212D02*
X177640D01*
Y174991D01*
X179769D01*
X179880Y175009D01*
X180047Y175028D01*
X180250Y175065D01*
X180491Y175139D01*
X180732Y175250D01*
X180991Y175398D01*
X181232Y175602D01*
X181250Y175639D01*
X181325Y175713D01*
X181417Y175842D01*
X181547Y176028D01*
X181658Y176231D01*
X181750Y176491D01*
X181824Y176787D01*
X181843Y177102D01*
Y177120D01*
Y177139D01*
Y177250D01*
X181806Y177416D01*
X181769Y177620D01*
X181695Y177842D01*
X181584Y178102D01*
X181436Y178342D01*
X181232Y178583D01*
X181213Y178601D01*
X181121Y178676D01*
X180991Y178787D01*
X180825Y178898D01*
X180602Y179009D01*
X180343Y179120D01*
X180047Y179194D01*
X179732Y179212D01*
D02*
G37*
G36*
X197842Y14212D02*
X197805D01*
X197694Y14194D01*
X197546Y14120D01*
X197453Y14064D01*
X197360Y13990D01*
X197249Y13898D01*
X197138Y13787D01*
X197027Y13638D01*
X196935Y13472D01*
X196824Y13268D01*
X196731Y13027D01*
X196638Y12768D01*
X196546Y12454D01*
Y12435D01*
X196527Y12398D01*
Y12342D01*
X196509Y12250D01*
X196490Y12139D01*
X196453Y12009D01*
X196416Y11694D01*
X196361Y11324D01*
X196305Y10917D01*
X196287Y10472D01*
X196268Y9991D01*
Y9972D01*
Y9935D01*
Y9861D01*
Y9769D01*
Y9657D01*
X196287Y9528D01*
X196305Y9194D01*
X196342Y8824D01*
X196379Y8398D01*
X196453Y7972D01*
X196546Y7528D01*
Y7509D01*
X196564Y7454D01*
X196583Y7361D01*
X196620Y7250D01*
X196675Y7121D01*
X196731Y6973D01*
X196861Y6658D01*
X197046Y6343D01*
X197157Y6195D01*
X197268Y6065D01*
X197397Y5954D01*
X197527Y5862D01*
X197675Y5806D01*
X197842Y5788D01*
X197879D01*
X197990Y5824D01*
X198138Y5880D01*
X198231Y5936D01*
X198323Y6010D01*
X198434Y6102D01*
X198545Y6213D01*
X198638Y6362D01*
X198749Y6528D01*
X198842Y6713D01*
X198953Y6954D01*
X199046Y7213D01*
X199119Y7528D01*
Y7547D01*
X199138Y7584D01*
X199157Y7639D01*
X199175Y7732D01*
X199194Y7843D01*
X199212Y7972D01*
X199268Y8269D01*
X199323Y8639D01*
X199379Y9065D01*
X199397Y9509D01*
X199416Y9991D01*
Y10009D01*
Y10046D01*
Y10120D01*
Y10213D01*
Y10324D01*
X199397Y10472D01*
X199379Y10787D01*
X199342Y11176D01*
X199286Y11583D01*
X199212Y12028D01*
X199119Y12454D01*
Y12472D01*
X199101Y12528D01*
X199083Y12620D01*
X199046Y12731D01*
X198990Y12861D01*
X198953Y13009D01*
X198805Y13342D01*
X198638Y13657D01*
X198527Y13805D01*
X198416Y13935D01*
X198286Y14046D01*
X198138Y14138D01*
X198008Y14194D01*
X197842Y14212D01*
D02*
G37*
G36*
X184677D02*
X182584D01*
Y9991D01*
X184714D01*
X184825Y10009D01*
X184991Y10028D01*
X185195Y10065D01*
X185436Y10139D01*
X185676Y10250D01*
X185936Y10398D01*
X186176Y10602D01*
X186195Y10639D01*
X186269Y10713D01*
X186362Y10842D01*
X186491Y11028D01*
X186602Y11231D01*
X186695Y11491D01*
X186769Y11787D01*
X186787Y12102D01*
Y12120D01*
Y12139D01*
Y12250D01*
X186751Y12416D01*
X186713Y12620D01*
X186639Y12842D01*
X186528Y13102D01*
X186380Y13342D01*
X186176Y13583D01*
X186158Y13601D01*
X186065Y13676D01*
X185936Y13787D01*
X185769Y13898D01*
X185547Y14009D01*
X185288Y14120D01*
X184991Y14194D01*
X184677Y14212D01*
D02*
G37*
G36*
X64427Y109213D02*
X62334D01*
Y104991D01*
X64464D01*
X64575Y105009D01*
X64741Y105028D01*
X64945Y105065D01*
X65186Y105139D01*
X65427Y105250D01*
X65686Y105398D01*
X65926Y105602D01*
X65945Y105639D01*
X66019Y105713D01*
X66112Y105843D01*
X66241Y106028D01*
X66352Y106231D01*
X66445Y106491D01*
X66519Y106787D01*
X66537Y107102D01*
Y107120D01*
Y107139D01*
Y107250D01*
X66501Y107416D01*
X66463Y107620D01*
X66389Y107842D01*
X66278Y108102D01*
X66130Y108342D01*
X65926Y108583D01*
X65908Y108602D01*
X65815Y108676D01*
X65686Y108787D01*
X65519Y108898D01*
X65297Y109009D01*
X65038Y109120D01*
X64741Y109194D01*
X64427Y109213D01*
D02*
G37*
G36*
X108824Y181213D02*
X106214D01*
Y172787D01*
X108935D01*
X109065Y172806D01*
X109213Y172843D01*
X109398Y172899D01*
X109584Y172973D01*
X109769Y173084D01*
X109954Y173232D01*
X109972Y173250D01*
X110028Y173325D01*
X110102Y173417D01*
X110195Y173547D01*
X110269Y173713D01*
X110343Y173899D01*
X110398Y174121D01*
X110417Y174361D01*
Y179620D01*
Y179657D01*
Y179731D01*
X110398Y179861D01*
X110361Y180009D01*
X110306Y180194D01*
X110213Y180379D01*
X110102Y180564D01*
X109954Y180750D01*
X109935Y180768D01*
X109880Y180824D01*
X109769Y180898D01*
X109639Y180990D01*
X109473Y181064D01*
X109287Y181138D01*
X109065Y181194D01*
X108824Y181213D01*
D02*
G37*
G36*
X115824Y21212D02*
X113214D01*
Y12787D01*
X115935D01*
X116065Y12806D01*
X116213Y12843D01*
X116398Y12899D01*
X116584Y12973D01*
X116769Y13084D01*
X116954Y13232D01*
X116972Y13250D01*
X117028Y13325D01*
X117102Y13417D01*
X117195Y13547D01*
X117269Y13713D01*
X117343Y13899D01*
X117398Y14121D01*
X117417Y14361D01*
Y19620D01*
Y19657D01*
Y19731D01*
X117398Y19861D01*
X117361Y20009D01*
X117306Y20194D01*
X117213Y20379D01*
X117102Y20564D01*
X116954Y20750D01*
X116935Y20768D01*
X116880Y20824D01*
X116769Y20898D01*
X116639Y20990D01*
X116473Y21064D01*
X116287Y21139D01*
X116065Y21194D01*
X115824Y21212D01*
D02*
G37*
G36*
X327603Y27919D02*
X325511D01*
Y23697D01*
X327640D01*
X327752Y23716D01*
X327918Y23734D01*
X328122Y23771D01*
X328363Y23845D01*
X328603Y23956D01*
X328862Y24105D01*
X329103Y24308D01*
X329122Y24345D01*
X329196Y24419D01*
X329288Y24549D01*
X329418Y24734D01*
X329529Y24938D01*
X329622Y25197D01*
X329696Y25493D01*
X329714Y25808D01*
Y25827D01*
Y25845D01*
Y25956D01*
X329677Y26123D01*
X329640Y26327D01*
X329566Y26549D01*
X329455Y26808D01*
X329307Y27049D01*
X329103Y27290D01*
X329085Y27308D01*
X328992Y27382D01*
X328862Y27493D01*
X328696Y27604D01*
X328474Y27715D01*
X328214Y27826D01*
X327918Y27901D01*
X327603Y27919D01*
D02*
G37*
G36*
X322863Y35398D02*
X321289D01*
Y32769D01*
Y32732D01*
Y32658D01*
X321308Y32528D01*
X321345Y32380D01*
X321400Y32195D01*
X321475Y32010D01*
X321586Y31825D01*
X321734Y31639D01*
X321752Y31621D01*
X321826Y31565D01*
X321919Y31491D01*
X322049Y31417D01*
X322215Y31343D01*
X322400Y31269D01*
X322623Y31214D01*
X322863Y31195D01*
X322974D01*
X323086Y31214D01*
X323252Y31251D01*
X323419Y31306D01*
X323604Y31380D01*
X323789Y31491D01*
X323974Y31639D01*
X323993Y31658D01*
X324048Y31732D01*
X324123Y31825D01*
X324215Y31954D01*
X324289Y32121D01*
X324363Y32306D01*
X324419Y32528D01*
X324437Y32769D01*
Y33806D01*
Y33843D01*
Y33917D01*
X324419Y34046D01*
X324382Y34195D01*
X324326Y34380D01*
X324234Y34565D01*
X324123Y34750D01*
X323974Y34935D01*
X323956Y34954D01*
X323900Y35009D01*
X323789Y35083D01*
X323660Y35176D01*
X323493Y35250D01*
X323308Y35324D01*
X323104Y35380D01*
X322863Y35398D01*
D02*
G37*
G36*
X353369Y49352D02*
X353258D01*
X353129Y49334D01*
X352980Y49297D01*
X352795Y49241D01*
X352610Y49149D01*
X352425Y49037D01*
X352240Y48889D01*
X352221Y48871D01*
X352166Y48815D01*
X352092Y48704D01*
X352018Y48575D01*
X351944Y48408D01*
X351870Y48223D01*
X351814Y48019D01*
X351795Y47778D01*
Y46723D01*
Y46686D01*
Y46612D01*
X351814Y46482D01*
X351851Y46334D01*
X351907Y46149D01*
X351981Y45964D01*
X352092Y45778D01*
X352240Y45593D01*
X352258Y45575D01*
X352332Y45519D01*
X352425Y45445D01*
X352555Y45371D01*
X352721Y45297D01*
X352906Y45223D01*
X353129Y45167D01*
X353369Y45149D01*
X354943D01*
Y47778D01*
Y47815D01*
Y47889D01*
X354925Y48000D01*
X354888Y48167D01*
X354832Y48334D01*
X354740Y48519D01*
X354628Y48704D01*
X354480Y48889D01*
X354462Y48908D01*
X354406Y48963D01*
X354295Y49037D01*
X354166Y49130D01*
X353999Y49204D01*
X353814Y49278D01*
X353610Y49334D01*
X353369Y49352D01*
D02*
G37*
G36*
X73916Y51231D02*
X71305D01*
Y42805D01*
X74027D01*
X74157Y42824D01*
X74305Y42861D01*
X74490Y42916D01*
X74675Y42991D01*
X74861Y43102D01*
X75046Y43250D01*
X75064Y43268D01*
X75120Y43342D01*
X75194Y43435D01*
X75286Y43565D01*
X75361Y43731D01*
X75435Y43916D01*
X75490Y44139D01*
X75509Y44379D01*
Y49638D01*
Y49675D01*
Y49749D01*
X75490Y49879D01*
X75453Y50027D01*
X75398Y50212D01*
X75305Y50397D01*
X75194Y50582D01*
X75046Y50768D01*
X75027Y50786D01*
X74972Y50842D01*
X74861Y50916D01*
X74731Y51008D01*
X74564Y51082D01*
X74379Y51156D01*
X74157Y51212D01*
X73916Y51231D01*
D02*
G37*
G36*
X64148Y78481D02*
X62056D01*
Y74259D01*
X64185D01*
X64296Y74277D01*
X64463Y74296D01*
X64666Y74333D01*
X64907Y74407D01*
X65148Y74518D01*
X65407Y74666D01*
X65648Y74870D01*
X65666Y74907D01*
X65740Y74981D01*
X65833Y75111D01*
X65963Y75296D01*
X66074Y75499D01*
X66166Y75759D01*
X66240Y76055D01*
X66259Y76370D01*
Y76388D01*
Y76407D01*
Y76518D01*
X66222Y76684D01*
X66185Y76888D01*
X66111Y77110D01*
X65999Y77369D01*
X65851Y77610D01*
X65648Y77851D01*
X65629Y77869D01*
X65537Y77944D01*
X65407Y78055D01*
X65240Y78166D01*
X65018Y78277D01*
X64759Y78388D01*
X64463Y78462D01*
X64148Y78481D01*
D02*
G37*
%LPD*%
D10*
X485680Y56940D02*
G03*
X485680Y56940I-1000J0D01*
G01*
X384414Y175040D02*
G03*
X384414Y175000I-1414J-41D01*
G01*
X383999Y10041D02*
G03*
X384000Y10000I-1414J-41D01*
G01*
X124414Y10041D02*
G03*
X124414Y10000I-1414J-41D01*
G01*
X123999Y177041D02*
G03*
X124000Y177000I-1414J-41D01*
G01*
X126750Y16250D02*
X153250D01*
X126750Y3750D02*
X153250D01*
X126750D02*
Y16250D01*
X153250Y3750D02*
Y16250D01*
X126750Y181250D02*
X153250D01*
X126750Y169000D02*
X153250D01*
X126750D02*
Y181250D01*
X153250Y169000D02*
Y181250D01*
X304556Y750D02*
X317056D01*
X304556Y27250D02*
X317056D01*
X304556Y750D02*
Y27250D01*
X317056Y750D02*
Y27250D01*
X3000Y147500D02*
X99000D01*
X3000Y186500D02*
X99000D01*
Y147500D02*
Y186500D01*
X3000Y147500D02*
Y186500D01*
X59500Y37500D02*
X64500D01*
X59500Y9500D02*
X64500D01*
X59500D02*
Y37500D01*
X64500Y9500D02*
Y37500D01*
X-16000Y137200D02*
X-4500D01*
X-16000Y47800D02*
Y137200D01*
Y47800D02*
X-4500D01*
X351750Y168750D02*
X378250D01*
X351750Y181250D02*
X378250D01*
Y168750D02*
Y181250D01*
X351750Y168750D02*
Y181250D01*
Y3750D02*
Y16250D01*
X378250Y3750D02*
Y16250D01*
X351750D02*
X378250D01*
X351750Y3750D02*
X378250D01*
X65000Y87000D02*
X69000D01*
X342000Y173000D02*
Y177000D01*
Y8000D02*
Y12000D01*
X85000Y22500D02*
Y162500D01*
X255000D01*
Y22500D02*
Y162500D01*
X85000Y22500D02*
X255000D01*
X90000Y16000D02*
X94000D01*
X65000Y60000D02*
X69000D01*
X167000Y173000D02*
Y177000D01*
X168000Y8000D02*
Y12000D01*
X327000Y41000D02*
X331000D01*
X337000D02*
X341000D01*
X267000Y113250D02*
Y117250D01*
X266368Y59770D02*
Y86270D01*
X278868Y59770D02*
Y86270D01*
X266368Y59770D02*
X278868D01*
X266368Y86270D02*
X278868D01*
X387000Y23000D02*
X391000D01*
X284750Y28750D02*
Y36750D01*
X260750Y28750D02*
Y36750D01*
X281500Y143000D02*
X285500D01*
X291750D02*
X295750D01*
X326500D02*
X330500D01*
X294000Y41000D02*
X298000D01*
X307500D02*
X311500D01*
X527000Y-250D02*
Y16250D01*
X493000Y-250D02*
Y16250D01*
Y-250D02*
X527000D01*
X493000Y16250D02*
X527000D01*
X367750Y25250D02*
Y29250D01*
X488000Y187000D02*
X532000D01*
X488000Y167000D02*
X532000D01*
X488000D02*
Y187000D01*
X532000Y167000D02*
Y187000D01*
X473000Y168000D02*
X477000D01*
X448000D02*
X452000D01*
X398000D02*
X402000D01*
X423000D02*
X427000D01*
X34250Y19250D02*
X38250D01*
D11*
X357550Y124700D02*
G03*
X357050Y124200I0J-500D01*
G01*
Y60800D02*
G03*
X357550Y60300I500J0D01*
G01*
X482450D02*
G03*
X482950Y60800I0J500D01*
G01*
Y124200D02*
G03*
X482450Y124700I-500J0D01*
G01*
X357290Y127000D02*
G03*
X354750Y124460I0J-2540D01*
G01*
Y60540D02*
G03*
X357290Y58000I2540J0D01*
G01*
X482710D02*
G03*
X485250Y60540I0J2540D01*
G01*
Y124460D02*
G03*
X482710Y127000I-2540J0D01*
G01*
X532500Y22500D02*
Y162500D01*
Y22500D02*
X555800D01*
X532500Y162500D02*
X555800D01*
X610000Y22500D02*
X641500D01*
Y162500D01*
X610000D02*
X641500D01*
X357050Y60800D02*
Y124200D01*
X357550Y60300D02*
X482450D01*
X482950Y60800D02*
Y124200D01*
X357550Y124700D02*
X482450D01*
X357290Y127000D02*
X482710D01*
X354750Y60540D02*
Y124460D01*
X357290Y58000D02*
X482710D01*
X485250Y60540D02*
Y124460D01*
D12*
X380000Y74500D02*
G03*
X380000Y74500I-4000J0D01*
G01*
D13*
X50250Y40500D02*
G03*
X50250Y40500I-1250J0D01*
G01*
D14*
X224500Y152500D02*
G03*
X224500Y152500I-2000J0D01*
G01*
D15*
X327200Y149000D02*
D03*
M02*
