M48
;Layer_Color=9474304
;FILE_FORMAT=4:4
METRIC,LZ
;TYPE=PLATED
T1F00S00C0.3000
T3F00S00C1.0000
;TYPE=NON_PLATED
T4F00S00C1.0000
T5F00S00C1.8000
%
T01
X00372Y00018
X0039668Y0001737
X00409191Y00018677
X00419191
X00429191
X00439191
X00449191
X00459191
X00464191Y00008677
X00454191
X00444191
X00434191
X00424191
X00414191
X00404191
X0038886Y00009322
X00401Y00062
X00375
X00359Y00081
X00365Y00089
X00351Y00094
X00348Y00113
X0034275Y00126
X00351Y00133
X0033997Y00062511
X00347Y00046
X00481Y00098
Y00123
X00468Y00163
X00458
X00535Y00177
X00543
X00551
X00559
X00558035Y00008021
X00550034
X00542034
X00534035
X00328259Y00007154
X00329Y00029
X00310565Y00029319
X00299311Y0001425
X00287Y00035
X0025Y000375
X002425Y000525
X0025Y000675
X002425Y000825
X00243337Y00103908
X00252Y00115
X00261598Y00106166
X0026139Y00124234
X0028Y001275
X00283614Y00157
X00293614
X0030642Y00158014
X00316565Y00158124
X00319Y001275
X0033125
X00337Y00137
X00323496Y001035
Y000925
Y000815
X00312496
X00301496
Y000925
X00312496
Y001035
X00301496
X00316Y00056
X00332
X0022Y000675
X00205
X0019
X00175
X001825Y000825
X001975
X002125
X00205Y000975
X0022
X002125Y001125
X001975
X001825
X001675
X0016Y001275
X00175
X0019
X00205
X0022
X00220005Y00156495
X00223965Y00163528
X0021075Y001635
X00198Y00165
X00186
X0024721Y00163444
X00250944Y00156657
X00241694Y00156502
X0019Y000975
X00175
X0016
X001675Y000825
X00121055Y000803
Y000927
Y001056
X0013Y001275
X00122Y00142
X001075Y001425
X001092Y00171
X00122
X000625Y001725
X000475
X00034Y00167
X0004Y001575
X00055
X000625Y001425
X0007Y001275
X00059Y0012
X000625Y001125
X00038Y0012
X00025Y001275
X000325Y001425
X00017Y00154
X000175Y001125
X0001Y000975
X000175Y000825
X0001Y000675
Y000375
X000175Y000225
X0001Y000075
X00025
X00036229Y00034613
X00038Y00065
X00059
X00067Y00075
X001075Y000825
Y000525
X00115Y000075
X00133Y00020933
X0019Y000075
X00201Y00012
X00223512Y00012685
X00235Y000075
X00232585Y00022299
X00220891Y00031399
X00057861Y000235
T03
X0013219Y000676
X0015251
X0014235Y001184
T04
X00583Y0000575
Y0017925
T05
X00515Y00035
Y0015
M30
